<svg xmlns="http://www.w3.org/2000/svg" width="17.005" height="16.999"><g data-name="Group 686"><path data-name="Path 1256" d="M8.504.002a8.5 8.5 0 0 0-5.367 15.09l.009.007.316.245a8.5 8.5 0 0 0 10.085 0c.115-.082.222-.166.328-.255A8.5 8.5 0 0 0 8.503.002zm4.53 14.719a7.682 7.682 0 0 1-9.06 0c.008-.061.017-.115.028-.179a4.573 4.573 0 0 1 9.005 0c.01.06.02.115.028.178zm-7.516-7.87a3 3 0 1 1 .875 2.113 2.994 2.994 0 0 1-.875-2.113zm8.234 7.282a5.384 5.384 0 0 0-3.525-3.893 3.8 3.8 0 1 0-3.429 0 5.384 5.384 0 0 0-3.525 3.893 7.694 7.694 0 1 1 10.48 0z" fill="currentColor"/></g></svg>