<?xml version="1.0" encoding="UTF-8"?>
<svg xmlns="http://www.w3.org/2000/svg" xmlns:xlink="http://www.w3.org/1999/xlink" width="150pt" height="150pt" viewBox="0 0 150 150" version="1.1">
<g id="surface1">
<path style=" stroke:none;fill-rule:nonzero;fill:rgb(56.470588%,42.745098%,30.588235%,0.4);fill-opacity:0.2;" d="M 76.742188 86.4375 C 76.28125 85.617188 75.484375 85.121094 74.625 85.121094 C 73.769531 85.121094 72.972656 85.617188 72.511719 86.4375 L 43.625 146.503906 C 43.21875 147.347656 43.234375 148.375 43.667969 149.203125 C 44.101562 150.03125 44.890625 150.539062 45.742188 150.539062 L 103.515625 150.539062 C 104.367188 150.539062 105.152344 150.03125 105.585938 149.203125 C 106.023438 148.375 106.039062 147.347656 105.628906 146.503906 Z M 49.792969 145.078125 L 74.632812 93.445312 L 99.472656 145.078125 Z M 49.792969 145.078125 "/>
<path style=" stroke:none;fill-rule:nonzero;fill:rgb(56.470588%,42.745098%,30.588235%,0.4);fill-opacity:0.2;" d="M 101.023438 22.492188 C 99.769531 17.1875 97.25 12.382812 93.738281 8.601562 C 92.972656 7.78125 91.828125 7.617188 90.90625 8.195312 L 88.289062 9.839844 C 88.007812 10.035156 87.65625 10.046875 87.363281 9.867188 C 86.3125 9.066406 85.203125 8.363281 84.046875 7.769531 C 83.808594 7.625 83.664062 7.34375 83.671875 7.039062 L 83.671875 3.734375 C 83.671875 2.5 82.941406 1.417969 81.886719 1.097656 C 79.410156 0.320312 76.847656 -0.0507812 74.277344 0 C 71.945312 0.0429688 69.621094 0.414062 67.371094 1.109375 C 66.316406 1.425781 65.582031 2.507812 65.582031 3.746094 L 65.582031 7.039062 C 65.59375 7.347656 65.445312 7.632812 65.203125 7.777344 C 64.046875 8.371094 62.9375 9.070312 61.886719 9.871094 C 61.597656 10.050781 61.242188 10.039062 60.960938 9.84375 L 58.359375 8.195312 C 57.441406 7.617188 56.296875 7.78125 55.527344 8.601562 C 52.015625 12.378906 49.488281 17.183594 48.230469 22.488281 C 47.945312 23.695312 48.417969 24.964844 49.378906 25.574219 L 52.433594 27.507812 C 52.265625 29.183594 52.265625 30.875 52.433594 32.550781 L 49.378906 34.484375 C 48.417969 35.09375 47.945312 36.367188 48.230469 37.578125 C 49.484375 42.878906 52.003906 47.6875 55.515625 51.464844 C 56.28125 52.289062 57.425781 52.453125 58.347656 51.871094 L 60.964844 50.226562 C 61.246094 50.03125 61.597656 50.019531 61.890625 50.199219 C 62.941406 51.003906 64.050781 51.703125 65.207031 52.296875 C 65.441406 52.441406 65.589844 52.722656 65.582031 53.027344 L 65.582031 56.332031 C 65.582031 57.566406 66.3125 58.648438 67.367188 58.96875 C 69.734375 59.691406 72.171875 60.0625 74.625 60.066406 L 74.96875 60.066406 C 77.300781 60.023438 79.625 59.652344 81.878906 58.960938 C 82.929688 58.640625 83.664062 57.558594 83.664062 56.324219 L 83.664062 53.03125 C 83.65625 52.722656 83.804688 52.433594 84.046875 52.289062 C 85.199219 51.699219 86.308594 50.996094 87.359375 50.195312 C 87.652344 50.015625 88.003906 50.027344 88.285156 50.222656 L 90.886719 51.871094 C 91.804688 52.453125 92.953125 52.289062 93.71875 51.464844 C 97.230469 47.6875 99.757812 42.882812 101.019531 37.582031 C 101.300781 36.375 100.828125 35.101562 99.867188 34.492188 L 96.816406 32.558594 C 96.980469 30.882812 96.980469 29.191406 96.816406 27.515625 L 99.867188 25.582031 C 100.832031 24.972656 101.308594 23.699219 101.023438 22.492188 Z M 91.832031 26.566406 C 92.238281 28.859375 92.238281 31.21875 91.832031 33.507812 C 91.636719 34.664062 92.117188 35.832031 93.023438 36.402344 L 95.824219 38.179688 C 94.882812 41.09375 93.457031 43.777344 91.628906 46.085938 L 90.644531 45.460938 C 88.777344 44.261719 86.472656 44.339844 84.675781 45.667969 C 83.851562 46.300781 82.980469 46.851562 82.074219 47.316406 C 80.105469 48.339844 78.847656 50.578125 78.859375 53.035156 L 78.859375 54.148438 C 76.066406 54.761719 73.195312 54.765625 70.398438 54.160156 L 70.398438 53.035156 C 70.410156 50.578125 69.15625 48.34375 67.1875 47.316406 C 66.28125 46.851562 65.410156 46.300781 64.582031 45.671875 C 62.785156 44.34375 60.484375 44.261719 58.617188 45.460938 L 57.617188 46.09375 C 55.792969 43.78125 54.371094 41.09375 53.4375 38.179688 L 56.234375 36.402344 C 57.140625 35.832031 57.621094 34.664062 57.425781 33.511719 C 57.019531 31.214844 57.019531 28.851562 57.425781 26.558594 C 57.621094 25.402344 57.140625 24.238281 56.234375 23.664062 L 53.4375 21.890625 C 54.378906 18.976562 55.800781 16.292969 57.628906 13.984375 L 58.617188 14.605469 C 60.480469 15.8125 62.785156 15.730469 64.582031 14.398438 C 65.410156 13.769531 66.28125 13.21875 67.183594 12.753906 C 69.152344 11.726562 70.410156 9.492188 70.402344 7.035156 L 70.402344 5.921875 C 71.699219 5.636719 73.019531 5.484375 74.34375 5.460938 C 75.855469 5.429688 77.371094 5.582031 78.859375 5.910156 L 78.859375 7.035156 C 78.847656 9.492188 80.101562 11.726562 82.070312 12.75 C 82.976562 13.214844 83.847656 13.765625 84.675781 14.398438 C 86.472656 15.726562 88.773438 15.808594 90.640625 14.609375 L 91.640625 13.976562 C 93.46875 16.289062 94.886719 18.976562 95.820312 21.890625 L 93.019531 23.664062 C 92.113281 24.238281 91.632812 25.40625 91.828125 26.5625 Z M 91.832031 26.566406 "/>
<path style=" stroke:none;fill-rule:nonzero;fill:rgb(56.470588%,42.745098%,30.588235%,0.4);fill-opacity:0.2;" d="M 74.628906 16.375 C 68.878906 16.367188 63.925781 20.972656 62.796875 27.367188 C 61.671875 33.761719 64.6875 40.167969 70 42.664062 C 75.308594 45.164062 81.4375 43.058594 84.632812 37.636719 C 87.828125 32.214844 87.203125 24.988281 83.136719 20.378906 C 80.878906 17.816406 77.820312 16.378906 74.628906 16.375 Z M 74.628906 38.21875 C 71.179688 38.222656 68.207031 35.460938 67.53125 31.625 C 66.855469 27.789062 68.664062 23.945312 71.851562 22.445312 C 75.035156 20.945312 78.710938 22.210938 80.628906 25.460938 C 82.546875 28.714844 82.171875 33.046875 79.730469 35.816406 C 78.378906 37.351562 76.542969 38.214844 74.628906 38.21875 Z M 74.628906 38.21875 "/>
<path style=" stroke:none;fill-rule:nonzero;fill:rgb(56.470588%,42.745098%,30.588235%,0.4);fill-opacity:0.2;" d="M 72.21875 109.585938 L 77.035156 109.585938 L 77.035156 128.699219 L 72.21875 128.699219 Z M 72.21875 109.585938 "/>
<path style=" stroke:none;fill-rule:nonzero;fill:rgb(56.470588%,42.745098%,30.588235%,0.4);fill-opacity:0.2;" d="M 72.21875 134.15625 L 77.035156 134.15625 L 77.035156 139.617188 L 72.21875 139.617188 Z M 72.21875 134.15625 "/>
<path style=" stroke:none;fill-rule:nonzero;fill:rgb(56.470588%,42.745098%,30.588235%,0.4);fill-opacity:0.2;" d="M 125.179688 74.09375 L 139.625 74.09375 C 140.953125 74.09375 142.03125 72.871094 142.03125 71.363281 L 142.03125 49.519531 L 146.84375 49.519531 C 147.785156 49.519531 148.640625 48.898438 149.03125 47.929688 C 149.425781 46.964844 149.285156 45.824219 148.671875 45.015625 L 134.230469 25.902344 C 133.757812 25.324219 133.097656 24.992188 132.402344 24.992188 C 131.707031 24.992188 131.042969 25.324219 130.574219 25.902344 L 116.128906 45.015625 C 115.519531 45.824219 115.378906 46.964844 115.773438 47.929688 C 116.164062 48.898438 117.019531 49.519531 117.957031 49.519531 L 122.773438 49.519531 L 122.773438 71.363281 C 122.773438 72.871094 123.847656 74.09375 125.179688 74.09375 Z M 132.402344 31.875 L 141.613281 44.058594 L 139.625 44.058594 C 138.296875 44.058594 137.21875 45.28125 137.21875 46.789062 L 137.21875 68.632812 L 127.589844 68.632812 L 127.589844 46.789062 C 127.589844 45.28125 126.511719 44.058594 125.183594 44.058594 L 123.195312 44.058594 Z M 132.402344 31.875 "/>
<path style=" stroke:none;fill-rule:nonzero;fill:rgb(56.470588%,42.745098%,30.588235%,0.4);fill-opacity:0.2;" d="M 24.074219 24.949219 L 9.628906 24.949219 C 8.992188 24.945312 8.378906 25.234375 7.925781 25.746094 C 7.472656 26.257812 7.21875 26.953125 7.222656 27.679688 L 7.222656 49.519531 L 2.40625 49.519531 C 1.464844 49.519531 0.613281 50.140625 0.21875 51.109375 C -0.171875 52.078125 -0.03125 53.214844 0.578125 54.027344 L 15.023438 73.136719 C 15.480469 73.742188 16.148438 74.09375 16.851562 74.09375 C 17.554688 74.09375 18.21875 73.742188 18.675781 73.136719 L 33.121094 54.027344 C 33.734375 53.214844 33.871094 52.078125 33.480469 51.109375 C 33.085938 50.140625 32.234375 49.519531 31.292969 49.519531 L 26.480469 49.519531 L 26.480469 27.679688 C 26.480469 26.171875 25.402344 24.949219 24.074219 24.949219 Z M 16.851562 67.167969 L 7.640625 54.980469 L 9.628906 54.980469 C 10.265625 54.980469 10.878906 54.695312 11.332031 54.179688 C 11.78125 53.667969 12.035156 52.972656 12.035156 52.25 L 12.035156 30.40625 L 21.664062 30.40625 L 21.664062 52.25 C 21.664062 52.972656 21.917969 53.667969 22.371094 54.179688 C 22.820312 54.695312 23.433594 54.980469 24.074219 54.980469 L 26.0625 54.980469 Z M 16.851562 67.167969 "/>
<path style=" stroke:none;fill-rule:nonzero;fill:rgb(56.470588%,42.745098%,30.588235%,0.4);fill-opacity:0.2;" d="M 2.40625 76.820312 L 146.847656 76.820312 C 148.175781 76.820312 149.253906 78.042969 149.253906 79.554688 C 149.253906 81.0625 148.175781 82.285156 146.847656 82.285156 L 2.40625 82.285156 C 1.078125 82.285156 0 81.0625 0 79.554688 C 0 78.042969 1.078125 76.820312 2.40625 76.820312 Z M 2.40625 76.820312 "/>
</g>
</svg>
