<svg xmlns="http://www.w3.org/2000/svg" width="56.819" height="73.863" viewBox="0 0 56.819 73.863">
  <g id="Group_682" data-name="Group 682" transform="translate(-154 -28)">
    <path id="Path_1240" data-name="Path 1240" d="M192.941,28H154v73.863h56.819V45.877Zm.832,4.849,12.2,12.2h-12.2ZM156.842,99.021V30.84h34.09V47.884h17.044V99.021H156.842Z" fill="#906d4e"/>
    <path id="Path_1241" data-name="Path 1241" d="M232.25,280h32.669a.71.71,0,0,1,.711.71h0a.71.71,0,0,1-.711.71H232.25a.71.71,0,0,1-.71-.71h0A.71.71,0,0,1,232.25,280Z" transform="translate(-66.176 -215.068)" fill="#906d4e"/>
    <path id="Path_1242" data-name="Path 1242" d="M232.25,435.07h32.669a.71.71,0,0,1,.711.71h0a.71.71,0,0,1-.711.71H232.25a.71.71,0,0,1-.71-.71h0A.71.71,0,0,1,232.25,435.07Z" transform="translate(-66.176 -347.412)" fill="#906d4e"/>
    <path id="Path_1243" data-name="Path 1243" d="M232.25,318.77h9.943a.71.71,0,0,1,.71.71h0a.71.71,0,0,1-.71.71H232.25a.71.71,0,0,1-.71-.71h0A.71.71,0,0,1,232.25,318.77Z" transform="translate(-66.176 -248.157)" fill="#906d4e"/>
    <path id="Path_1244" data-name="Path 1244" d="M232.25,241.23h32.669a.71.71,0,0,1,.711.711h0a.71.71,0,0,1-.711.71H232.25a.71.71,0,0,1-.71-.71h0A.71.71,0,0,1,232.25,241.23Z" transform="translate(-66.176 -181.98)" fill="#906d4e"/>
    <path id="Path_1245" data-name="Path 1245" d="M232.25,202.46h32.669a.71.71,0,0,1,.711.711h0a.71.71,0,0,1-.711.71H232.25a.71.71,0,0,1-.71-.71h0A.71.71,0,0,1,232.25,202.46Z" transform="translate(-66.176 -148.892)" fill="#906d4e"/>
    <path id="Path_1246" data-name="Path 1246" d="M232.25,163.7h18.466a.71.71,0,0,1,.71.71h0a.71.71,0,0,1-.71.71H232.25a.71.71,0,0,1-.71-.71h0A.71.71,0,0,1,232.25,163.7Z" transform="translate(-66.176 -115.813)" fill="#906d4e"/>
    <path id="Path_1247" data-name="Path 1247" d="M232.25,357.54h9.943a.71.71,0,0,1,.71.71h0a.71.71,0,0,1-.71.71H232.25a.71.71,0,0,1-.71-.71h0A.71.71,0,0,1,232.25,357.54Z" transform="translate(-66.176 -281.245)" fill="#906d4e"/>
    <path id="Path_1248" data-name="Path 1248" d="M232.25,396.3h9.943a.71.71,0,0,1,.71.71h0a.71.71,0,0,1-.71.71H232.25a.71.71,0,0,1-.71-.71h0A.71.71,0,0,1,232.25,396.3Z" transform="translate(-66.176 -314.324)" fill="#906d4e"/>
    <path id="Path_1249" data-name="Path 1249" d="M344.8,318.77a2.13,2.13,0,0,0-1.773,3.312l-1.851,2.468a2.132,2.132,0,0,0-2.116.5l-2.091-1.045a2.1,2.1,0,0,0,.018-.263,2.131,2.131,0,1,0-3.9,1.181l-1.851,2.468a2.135,2.135,0,1,0,1.135.853l1.851-2.468a2.134,2.134,0,0,0,2.116-.5l2.091,1.045a2.09,2.09,0,0,0-.018.263,2.131,2.131,0,1,0,3.9-1.181l1.851-2.468a2.131,2.131,0,1,0,.638-4.165Z" transform="translate(-148.896 -248.157)" fill="#906d4e"/>
  </g>
</svg>
