<svg xmlns="http://www.w3.org/2000/svg" width="74.256" height="74.332" viewBox="0 0 74.256 74.332">
  <g id="Group_684" data-name="Group 684" transform="translate(0.25 0.218)">
    <path id="Path_1255" data-name="Path 1255" d="M173.18,62.747a1.551,1.551,0,0,1-1.335.443l-6.99-1.012-5.334,5.334c16.127,18.022,3.323,46.771-20.906,46.771A28.117,28.117,0,0,1,110.53,86.2c0-24.2,28.729-37.05,46.771-20.906l5.318-5.318c-.757-6.56-1.542-7.4-.575-8.363,11.212-10.974,10.846-11.559,12.3-11.079,1.57.521.927,2.108,2.018,7.891,5.774,1.09,7.369.447,7.891,2.018.558,1.684-.939,1.738-11.079,12.3ZM151.528,75.5c8.977,10.822,1.328,27.467-12.913,27.467A16.792,16.792,0,0,1,121.84,86.2c0-14.229,16.637-21.9,27.468-12.913l5.775-5.775C139.03,53.345,113.669,64.776,113.669,86.2a24.973,24.973,0,0,0,24.945,24.945c21.41,0,32.857-25.355,18.688-41.414Zm-14.022,9.584,9.566-9.566a13.629,13.629,0,1,0,2.219,2.22l-9.566,9.566a1.569,1.569,0,1,1-2.219-2.219Zm35.243-39.743-7.929,7.929.569,3.929,7.93-7.93Zm2.805,6.132-7.93,7.93,3.892.564,7.929-7.929Z" transform="translate(-110.53 -40.419)" fill="#906d4e" stroke="#906d4e" stroke-width="0.5"/>
  </g>
</svg>
