<svg xmlns="http://www.w3.org/2000/svg" width="25.751" height="25.381" viewBox="0 0 25.751 25.381">
  <g id="Group_66" data-name="Group 66" transform="translate(-83.676 -17.597)">
    <path id="Path_129" data-name="Path 129" d="M218.174,143.136a6.825,6.825,0,0,0-5.813-1.268,6.621,6.621,0,0,0-4.915,4.862,6.708,6.708,0,0,0,2.431,7.028.832.832,0,0,1,.264.634v3.62a1.353,1.353,0,0,0,1.348,1.348h.846A1.737,1.737,0,0,0,214,160.575a1.771,1.771,0,0,0,1.665-1.216h.846a1.353,1.353,0,0,0,1.348-1.348v-3.646a.738.738,0,0,1,.238-.581,6.707,6.707,0,0,0,2.669-5.337,6.9,6.9,0,0,0-2.589-5.311Zm-1.982,14.585h-4.439v-1.533h4.439Zm.872-5.232a2.343,2.343,0,0,0-.9,1.876v.211h-4.413v-.185a2.489,2.489,0,0,0-.9-1.929,5.13,5.13,0,0,1-1.85-5.364,5.026,5.026,0,0,1,3.725-3.646,5.2,5.2,0,0,1,4.439.951,5.07,5.07,0,0,1,1.955,4.016,5.156,5.156,0,0,1-2.061,4.069Z" transform="translate(-117.421 -117.921)" fill="#906d4e" stroke="#fff" stroke-width="0.65"/>
    <path id="Path_130" data-name="Path 130" d="M333.46,22.123a.823.823,0,0,0,.819-.819V18.741a.819.819,0,1,0-1.638,0V21.3A.823.823,0,0,0,333.46,22.123Z" transform="translate(-236.908 0)" fill="#906d4e" stroke="#fff" stroke-width="0.65"/>
    <path id="Path_131" data-name="Path 131" d="M160.022,93.382a.829.829,0,0,0,0-1.163L158.2,90.4a.822.822,0,0,0-1.163,1.163l1.823,1.823a.829.829,0,0,0,1.163,0Z" transform="translate(-69.363 -68.828)" fill="#906d4e" stroke="#fff" stroke-width="0.65"/>
    <path id="Path_132" data-name="Path 132" d="M87.383,266.56H84.82a.819.819,0,0,0,0,1.638h2.563a.819.819,0,0,0,0-1.638Z" transform="translate(0 -236.907)" fill="#906d4e" stroke="#fff" stroke-width="0.65"/>
    <path id="Path_133" data-name="Path 133" d="M530.343,266.56H527.78a.819.819,0,0,0,0,1.638h2.563a.819.819,0,1,0,0-1.638Z" transform="translate(-422.06 -236.907)" fill="#906d4e" stroke="#fff" stroke-width="0.65"/>
    <path id="Path_134" data-name="Path 134" d="M473.062,90.961a.83.83,0,0,0-1.163,0l-1.823,1.823a.829.829,0,0,0,0,1.163.83.83,0,0,0,1.163,0l1.823-1.823a.829.829,0,0,0,0-1.162Z" transform="translate(-367.633 -69.366)" fill="#906d4e" stroke="#fff" stroke-width="0.65"/>
    <path id="Path_135" data-name="Path 135" d="M294.417,248.878l-1.929,1.929-.819-.819a.841.841,0,1,0-1.189,1.189l1.427,1.427a.837.837,0,0,0,.608.238.931.931,0,0,0,.608-.238l2.537-2.537a.815.815,0,0,0,0-1.189.93.93,0,0,0-1.242,0Z" transform="translate(-196.491 -219.832)" fill="#906d4e" stroke="#fff" stroke-width="0.65"/>
  </g>
</svg>
