<svg xmlns="http://www.w3.org/2000/svg" width="47.936" height="46.76" viewBox="0 0 47.936 46.76">
  <g id="Group_75" data-name="Group 75" transform="translate(-97.744 -33.262)">
    <path id="Path_1038" data-name="Path 1038" d="M201.324,123.168l-.335-.631h0l-1.258-2.372-.277,3.387c-.15,1.835-1.9,2.882-3.41,3.59-.647.3-1.306.591-2.04.91a42.8,42.8,0,0,0-4.277,2.058,11.923,11.923,0,0,0-4.936,4.752c-.076.149-.15.3-.223.458a9.966,9.966,0,0,0-2.627-1.374c-3.742-1.327-7.652-2.971-8.288-5.093l-.323-1.079-.538.989a5.118,5.118,0,0,0-.452,1.193,23.7,23.7,0,0,0-.082,5.673c.433,3.948,1.941,6.658,4.363,7.836a44.534,44.534,0,0,0,5.05,2.032c2.253.787,3.741,1.306,4.37,2.646l.265.565.632.016h.626l.285-.562a5.237,5.237,0,0,0-.487-3.311l.242-1.022,0-.012c.015-.07.046-.219.078-.432a14.268,14.268,0,0,0,9.472-3.615,16.718,16.718,0,0,0,5.028-10.014A10.713,10.713,0,0,0,201.324,123.168ZM187.68,140.476c-.038-.248-.089-.5-.155-.76a8.324,8.324,0,0,1,1.42-1.634,24.331,24.331,0,0,1,2.6-1.936c.546-.37,1.11-.753,1.651-1.16l-.517-.781c-.516.3-1.052.59-1.571.871a32.9,32.9,0,0,0-3.2,1.9,13.107,13.107,0,0,0-1.109.866,7.53,7.53,0,0,0-.911-1.333q-.083-.1-.17-.19c.117-.264.243-.53.377-.795a10.673,10.673,0,0,1,4.359-4.143,41.887,41.887,0,0,1,4.135-1.986c.682-.3,1.387-.6,2.074-.926a7.517,7.517,0,0,0,3.877-3.339,9.859,9.859,0,0,1,.282,3.812l-.086.6a15.26,15.26,0,0,1-4.569,9.149,12.792,12.792,0,0,1-8.374,3.228V141.9A9.459,9.459,0,0,0,187.68,140.476Zm-14.024-9.035a12.244,12.244,0,0,0,1.776,1.192,38.244,38.244,0,0,0,6.018,2.689,7.62,7.62,0,0,1,3.3,2.149,6.25,6.25,0,0,1,1.072,1.782,7.158,7.158,0,0,1,.4,1.492,8.111,8.111,0,0,1,.1,1.219c0,.164,0,.318-.011.462-.244-.288-.5-.569-.769-.847a12.275,12.275,0,0,0-4.358-3.016,4.261,4.261,0,0,0-.59-.181l-.011,0a.81.81,0,0,0-.14-.015l-.371,0-.092.35-.087.355.31.175c.2.121.4.247.564.354a16.447,16.447,0,0,1,3.1,2.557c.287.306.551.615.785.917a9.536,9.536,0,0,1,1.591,2.965,12.782,12.782,0,0,0-4.086-1.929,42.606,42.606,0,0,1-4.893-1.967C173.483,140.309,173.478,134.067,173.656,131.441Z" transform="translate(-67.169 -78.508)" fill="rgba(144, 109, 78,0.2)" stroke="rgba(144, 109, 78,0.2)" stroke-width="0.5"/>
    <path id="Path_1039" data-name="Path 1039" d="M116.923,35.491l-1.961,3.4-2.278.613,1.355-2.35a21.01,21.01,0,0,0-13.867,24.626.815.815,0,0,1-.579.973l-.014,0a.814.814,0,0,1-1-.606,22.645,22.645,0,0,1,15.114-26.6l-2.449-1.41,2.278-.613Z" fill="rgba(144, 109, 78,0.2)" stroke="rgba(144, 109, 78,0.2)" stroke-width="0.5"/>
    <path id="Path_1040" data-name="Path 1040" d="M418.579,78.549l-.611,2.278-3.4,1.966-1.965-3.4.611-2.279,1.357,2.351a21.06,21.06,0,0,0-14.406-24.33.81.81,0,0,1-.542-.985l0-.014a.814.814,0,0,1,1.027-.565,22.7,22.7,0,0,1,15.492,26.389Z" transform="translate(-273.296 -18.125)" fill="rgba(144, 109, 78,0.2)" stroke="rgba(144, 109, 78,0.2)" stroke-width="0.5"/>
    <path id="Path_1041" data-name="Path 1041" d="M192.374,436.04a.814.814,0,0,1-.026,1.172,22.782,22.782,0,0,1-15.458,6.05,22.543,22.543,0,0,1-15.136-5.839l0,2.826-1.665-1.672.006-3.929,3.929.005,1.666,1.672-2.713-.006a21,21,0,0,0,28.266-.313.81.81,0,0,1,1.124.024Z" transform="translate(-56.258 -363.491)" fill="rgba(144, 109, 78,0.2)" stroke="rgba(144, 109, 78,0.2)" stroke-width="0.5"/>
  </g>
</svg>
