<svg xmlns="http://www.w3.org/2000/svg" width="17.005" height="16.999" viewBox="0 0 17.005 16.999">
  <g id="Group_686" data-name="Group 686" transform="translate(-69.816 0.002)">
    <path id="Path_1256" data-name="Path 1256" d="M78.32,0a8.5,8.5,0,0,0-5.367,15.09l.009.007.316.245h0a8.5,8.5,0,0,0,10.085,0c.115-.082.222-.166.328-.255A8.5,8.5,0,0,0,78.319,0Zm4.53,14.719a7.682,7.682,0,0,1-9.06,0c.008-.061.017-.115.028-.179h0a4.573,4.573,0,0,1,9.005,0c.01.06.02.115.028.178ZM75.334,6.849a3,3,0,1,1,.875,2.113A2.994,2.994,0,0,1,75.334,6.849Zm8.234,7.282a5.384,5.384,0,0,0-3.525-3.893,3.8,3.8,0,1,0-3.429,0,5.384,5.384,0,0,0-3.525,3.893,7.694,7.694,0,1,1,10.48,0Z" fill="#fff"/>
  </g>
</svg>
