<svg xmlns="http://www.w3.org/2000/svg" width="15.3" height="17" viewBox="0 0 15.3 17">
  <g id="Group_692" data-name="Group 692" transform="translate(-123.198 -28)">
    <path id="Path_1259" data-name="Path 1259" d="M128.222,43.375a.373.373,0,0,1-.113-.264v-.075c0-.019.019-.057.019-.075s.019-.038.038-.057.019-.038.038-.057a.327.327,0,0,1,.34-.094c.019,0,.038.019.076.019.019.019.038.019.057.038s.038.038.057.038a.365.365,0,0,1,0,.529.3.3,0,0,1-.245.113.373.373,0,0,1-.264-.113Zm10.276-6.5a5.125,5.125,0,0,1-2.644,4.477,5.29,5.29,0,0,1-2.078.6v1.53A1.516,1.516,0,0,1,132.265,45h-7.556a1.516,1.516,0,0,1-1.511-1.511V29.511A1.516,1.516,0,0,1,124.709,28h7.556a1.516,1.516,0,0,1,1.511,1.511V31.8a5.094,5.094,0,0,1,4.722,5.081Zm-14.544-6.989h9.067v-.378a.758.758,0,0,0-.755-.755h-7.556a.758.758,0,0,0-.755.755Zm0,11.333h6.781A5.093,5.093,0,0,1,133.02,31.8V30.644h-9.067Zm9.067.755h-9.067v1.511a.758.758,0,0,0,.755.755h7.556a.758.758,0,0,0,.755-.755Zm2.267-2.267a1.889,1.889,0,0,0-3.778,0v1.077a4.324,4.324,0,0,0,3.778,0ZM133.4,37.067a1.133,1.133,0,1,0-1.133-1.133A1.137,1.137,0,0,0,133.4,37.067Zm4.344-.189a4.344,4.344,0,1,0-6.989,3.438v-.6a2.652,2.652,0,0,1,1.417-2.342,1.851,1.851,0,0,1-.661-1.436,1.889,1.889,0,0,1,3.778,0,1.914,1.914,0,0,1-.661,1.436,2.617,2.617,0,0,1,1.417,2.342v.6a4.34,4.34,0,0,0,1.7-3.438Z" fill="#fff"/>
  </g>
</svg>
