<svg xmlns="http://www.w3.org/2000/svg" width="47.625" height="126.5" viewBox="0 0 47.625 126.5">
  <g id="Group_47" data-name="Group 47" transform="translate(-319.213 -370.244)">
    <g id="Group_46" data-name="Group 46">
      <g id="Group_40" data-name="Group 40">
        <circle id="Ellipse_2" data-name="Ellipse 2" cx="1" cy="1" r="1" transform="translate(364.838 370.244)" fill="#906d4e"/>
        <circle id="Ellipse_3" data-name="Ellipse 3" cx="1" cy="1" r="1" transform="translate(364.838 380.619)" fill="#906d4e"/>
        <circle id="Ellipse_4" data-name="Ellipse 4" cx="1" cy="1" r="1" transform="translate(364.838 390.994)" fill="#906d4e"/>
        <circle id="Ellipse_5" data-name="Ellipse 5" cx="1" cy="1" r="1" transform="translate(364.838 401.369)" fill="#906d4e"/>
        <circle id="Ellipse_6" data-name="Ellipse 6" cx="1" cy="1" r="1" transform="translate(364.838 411.744)" fill="#906d4e"/>
        <circle id="Ellipse_7" data-name="Ellipse 7" cx="1" cy="1" r="1" transform="translate(364.838 422.119)" fill="#906d4e"/>
        <circle id="Ellipse_8" data-name="Ellipse 8" cx="1" cy="1" r="1" transform="translate(364.838 432.494)" fill="#906d4e"/>
        <circle id="Ellipse_9" data-name="Ellipse 9" cx="1" cy="1" r="1" transform="translate(364.838 442.869)" fill="#906d4e"/>
        <circle id="Ellipse_10" data-name="Ellipse 10" cx="1" cy="1" r="1" transform="translate(364.838 453.244)" fill="#906d4e"/>
        <circle id="Ellipse_11" data-name="Ellipse 11" cx="1" cy="1" r="1" transform="translate(364.838 463.619)" fill="#906d4e"/>
        <circle id="Ellipse_12" data-name="Ellipse 12" cx="1" cy="1" r="1" transform="translate(364.838 473.994)" fill="#906d4e"/>
        <circle id="Ellipse_13" data-name="Ellipse 13" cx="1" cy="1" r="1" transform="translate(364.838 484.369)" fill="#906d4e"/>
        <circle id="Ellipse_14" data-name="Ellipse 14" cx="1" cy="1" r="1" transform="translate(364.838 494.744)" fill="#906d4e"/>
      </g>
      <g id="Group_41" data-name="Group 41">
        <circle id="Ellipse_15" data-name="Ellipse 15" cx="1" cy="1" r="1" transform="translate(355.713 370.244)" fill="#906d4e"/>
        <circle id="Ellipse_16" data-name="Ellipse 16" cx="1" cy="1" r="1" transform="translate(355.713 380.619)" fill="#906d4e"/>
        <circle id="Ellipse_17" data-name="Ellipse 17" cx="1" cy="1" r="1" transform="translate(355.713 390.994)" fill="#906d4e"/>
        <circle id="Ellipse_18" data-name="Ellipse 18" cx="1" cy="1" r="1" transform="translate(355.713 401.369)" fill="#906d4e"/>
        <circle id="Ellipse_19" data-name="Ellipse 19" cx="1" cy="1" r="1" transform="translate(355.713 411.744)" fill="#906d4e"/>
        <circle id="Ellipse_20" data-name="Ellipse 20" cx="1" cy="1" r="1" transform="translate(355.713 422.119)" fill="#906d4e"/>
        <circle id="Ellipse_21" data-name="Ellipse 21" cx="1" cy="1" r="1" transform="translate(355.713 432.494)" fill="#906d4e"/>
        <circle id="Ellipse_22" data-name="Ellipse 22" cx="1" cy="1" r="1" transform="translate(355.713 442.869)" fill="#906d4e"/>
        <circle id="Ellipse_23" data-name="Ellipse 23" cx="1" cy="1" r="1" transform="translate(355.713 453.244)" fill="#906d4e"/>
        <circle id="Ellipse_24" data-name="Ellipse 24" cx="1" cy="1" r="1" transform="translate(355.713 463.619)" fill="#906d4e"/>
        <circle id="Ellipse_25" data-name="Ellipse 25" cx="1" cy="1" r="1" transform="translate(355.713 473.994)" fill="#906d4e"/>
        <circle id="Ellipse_26" data-name="Ellipse 26" cx="1" cy="1" r="1" transform="translate(355.713 484.369)" fill="#906d4e"/>
        <circle id="Ellipse_27" data-name="Ellipse 27" cx="1" cy="1" r="1" transform="translate(355.713 494.744)" fill="#906d4e"/>
      </g>
      <g id="Group_42" data-name="Group 42">
        <circle id="Ellipse_28" data-name="Ellipse 28" cx="1" cy="1" r="1" transform="translate(346.588 370.244)" fill="#906d4e"/>
        <circle id="Ellipse_29" data-name="Ellipse 29" cx="1" cy="1" r="1" transform="translate(346.588 380.619)" fill="#906d4e"/>
        <circle id="Ellipse_30" data-name="Ellipse 30" cx="1" cy="1" r="1" transform="translate(346.588 390.994)" fill="#906d4e"/>
        <circle id="Ellipse_31" data-name="Ellipse 31" cx="1" cy="1" r="1" transform="translate(346.588 401.369)" fill="#906d4e"/>
        <circle id="Ellipse_32" data-name="Ellipse 32" cx="1" cy="1" r="1" transform="translate(346.588 411.744)" fill="#906d4e"/>
        <circle id="Ellipse_33" data-name="Ellipse 33" cx="1" cy="1" r="1" transform="translate(346.588 422.119)" fill="#906d4e"/>
        <circle id="Ellipse_34" data-name="Ellipse 34" cx="1" cy="1" r="1" transform="translate(346.588 432.494)" fill="#906d4e"/>
        <circle id="Ellipse_35" data-name="Ellipse 35" cx="1" cy="1" r="1" transform="translate(346.588 442.869)" fill="#906d4e"/>
        <circle id="Ellipse_36" data-name="Ellipse 36" cx="1" cy="1" r="1" transform="translate(346.588 453.244)" fill="#906d4e"/>
        <circle id="Ellipse_37" data-name="Ellipse 37" cx="1" cy="1" r="1" transform="translate(346.588 463.619)" fill="#906d4e"/>
        <circle id="Ellipse_38" data-name="Ellipse 38" cx="1" cy="1" r="1" transform="translate(346.588 473.994)" fill="#906d4e"/>
        <circle id="Ellipse_39" data-name="Ellipse 39" cx="1" cy="1" r="1" transform="translate(346.588 484.369)" fill="#906d4e"/>
        <circle id="Ellipse_40" data-name="Ellipse 40" cx="1" cy="1" r="1" transform="translate(346.588 494.744)" fill="#906d4e"/>
      </g>
      <g id="Group_43" data-name="Group 43">
        <circle id="Ellipse_41" data-name="Ellipse 41" cx="1" cy="1" r="1" transform="translate(337.463 370.244)" fill="#906d4e"/>
        <circle id="Ellipse_42" data-name="Ellipse 42" cx="1" cy="1" r="1" transform="translate(337.463 380.619)" fill="#906d4e"/>
        <circle id="Ellipse_43" data-name="Ellipse 43" cx="1" cy="1" r="1" transform="translate(337.463 390.994)" fill="#906d4e"/>
        <circle id="Ellipse_44" data-name="Ellipse 44" cx="1" cy="1" r="1" transform="translate(337.463 401.369)" fill="#906d4e"/>
        <circle id="Ellipse_45" data-name="Ellipse 45" cx="1" cy="1" r="1" transform="translate(337.463 411.744)" fill="#906d4e"/>
        <circle id="Ellipse_46" data-name="Ellipse 46" cx="1" cy="1" r="1" transform="translate(337.463 422.119)" fill="#906d4e"/>
        <circle id="Ellipse_47" data-name="Ellipse 47" cx="1" cy="1" r="1" transform="translate(337.463 432.494)" fill="#906d4e"/>
        <circle id="Ellipse_48" data-name="Ellipse 48" cx="1" cy="1" r="1" transform="translate(337.463 442.869)" fill="#906d4e"/>
        <circle id="Ellipse_49" data-name="Ellipse 49" cx="1" cy="1" r="1" transform="translate(337.463 453.244)" fill="#906d4e"/>
        <circle id="Ellipse_50" data-name="Ellipse 50" cx="1" cy="1" r="1" transform="translate(337.463 463.619)" fill="#906d4e"/>
        <circle id="Ellipse_51" data-name="Ellipse 51" cx="1" cy="1" r="1" transform="translate(337.463 473.994)" fill="#906d4e"/>
        <circle id="Ellipse_52" data-name="Ellipse 52" cx="1" cy="1" r="1" transform="translate(337.463 484.369)" fill="#906d4e"/>
        <circle id="Ellipse_53" data-name="Ellipse 53" cx="1" cy="1" r="1" transform="translate(337.463 494.744)" fill="#906d4e"/>
      </g>
      <g id="Group_44" data-name="Group 44">
        <circle id="Ellipse_54" data-name="Ellipse 54" cx="1" cy="1" r="1" transform="translate(328.338 370.244)" fill="#906d4e"/>
        <circle id="Ellipse_55" data-name="Ellipse 55" cx="1" cy="1" r="1" transform="translate(328.338 380.619)" fill="#906d4e"/>
        <circle id="Ellipse_56" data-name="Ellipse 56" cx="1" cy="1" r="1" transform="translate(328.338 390.994)" fill="#906d4e"/>
        <circle id="Ellipse_57" data-name="Ellipse 57" cx="1" cy="1" r="1" transform="translate(328.338 401.369)" fill="#906d4e"/>
        <circle id="Ellipse_58" data-name="Ellipse 58" cx="1" cy="1" r="1" transform="translate(328.338 411.744)" fill="#906d4e"/>
        <circle id="Ellipse_59" data-name="Ellipse 59" cx="1" cy="1" r="1" transform="translate(328.338 422.119)" fill="#906d4e"/>
        <circle id="Ellipse_60" data-name="Ellipse 60" cx="1" cy="1" r="1" transform="translate(328.338 432.494)" fill="#906d4e"/>
        <circle id="Ellipse_61" data-name="Ellipse 61" cx="1" cy="1" r="1" transform="translate(328.338 442.869)" fill="#906d4e"/>
        <circle id="Ellipse_62" data-name="Ellipse 62" cx="1" cy="1" r="1" transform="translate(328.338 453.244)" fill="#906d4e"/>
        <circle id="Ellipse_63" data-name="Ellipse 63" cx="1" cy="1" r="1" transform="translate(328.338 463.619)" fill="#906d4e"/>
        <circle id="Ellipse_64" data-name="Ellipse 64" cx="1" cy="1" r="1" transform="translate(328.338 473.994)" fill="#906d4e"/>
        <circle id="Ellipse_65" data-name="Ellipse 65" cx="1" cy="1" r="1" transform="translate(328.338 484.369)" fill="#906d4e"/>
        <circle id="Ellipse_66" data-name="Ellipse 66" cx="1" cy="1" r="1" transform="translate(328.338 494.744)" fill="#906d4e"/>
      </g>
      <g id="Group_45" data-name="Group 45">
        <circle id="Ellipse_67" data-name="Ellipse 67" cx="1" cy="1" r="1" transform="translate(319.213 370.244)" fill="#906d4e"/>
        <circle id="Ellipse_68" data-name="Ellipse 68" cx="1" cy="1" r="1" transform="translate(319.213 380.619)" fill="#906d4e"/>
        <circle id="Ellipse_69" data-name="Ellipse 69" cx="1" cy="1" r="1" transform="translate(319.213 390.994)" fill="#906d4e"/>
        <circle id="Ellipse_70" data-name="Ellipse 70" cx="1" cy="1" r="1" transform="translate(319.213 401.369)" fill="#906d4e"/>
        <circle id="Ellipse_71" data-name="Ellipse 71" cx="1" cy="1" r="1" transform="translate(319.213 411.744)" fill="#906d4e"/>
        <circle id="Ellipse_72" data-name="Ellipse 72" cx="1" cy="1" r="1" transform="translate(319.213 422.119)" fill="#906d4e"/>
        <circle id="Ellipse_73" data-name="Ellipse 73" cx="1" cy="1" r="1" transform="translate(319.213 432.494)" fill="#906d4e"/>
        <circle id="Ellipse_74" data-name="Ellipse 74" cx="1" cy="1" r="1" transform="translate(319.213 442.869)" fill="#906d4e"/>
        <circle id="Ellipse_75" data-name="Ellipse 75" cx="1" cy="1" r="1" transform="translate(319.213 453.244)" fill="#906d4e"/>
        <circle id="Ellipse_76" data-name="Ellipse 76" cx="1" cy="1" r="1" transform="translate(319.213 463.619)" fill="#906d4e"/>
        <circle id="Ellipse_77" data-name="Ellipse 77" cx="1" cy="1" r="1" transform="translate(319.213 473.994)" fill="#906d4e"/>
        <circle id="Ellipse_78" data-name="Ellipse 78" cx="1" cy="1" r="1" transform="translate(319.213 484.369)" fill="#906d4e"/>
        <circle id="Ellipse_79" data-name="Ellipse 79" cx="1" cy="1" r="1" transform="translate(319.213 494.744)" fill="#906d4e"/>
      </g>
    </g>
  </g>
</svg>
