<svg xmlns="http://www.w3.org/2000/svg" width="25.094" height="31.213" viewBox="0 0 25.094 31.213">
  <g id="Group_62" data-name="Group 62" transform="translate(-175.532 -31.168)">
    <path id="Path_126" data-name="Path 126" d="M272.05,161.245v6.577a.377.377,0,0,0,.377.377h2.26v6.931h0a.377.377,0,0,0,.377.377h5.65a.377.377,0,0,0,.377-.377V168.2h2.26a.377.377,0,0,0,.377-.377v-6.577a3.714,3.714,0,0,0-3.767-3.665h-4.249a3.665,3.665,0,0,0-3.661,3.665Zm3.661-2.912h4.294a2.961,2.961,0,0,1,3.014,2.912v6.2h-2.26a.377.377,0,0,0-.377.377v6.931h-4.9v-6.931a.377.377,0,0,0-.377-.377h-2.26v-6.2a2.912,2.912,0,0,1,2.863-2.912Z" transform="translate(-89.793 -117.675)" fill="#906d4e" stroke="#906d4e" stroke-width="0.5"/>
    <path id="Path_127" data-name="Path 127" d="M310.018,35.286a3.868,3.868,0,1,0-1.137,2.732,3.864,3.864,0,0,0,1.137-2.732Zm-6.973,0a1.286,1.286,0,1,1-.011,0Z" transform="translate(-117.997 0)" fill="#906d4e" stroke="#906d4e" stroke-width="0.5"/>
    <path id="Path_128" data-name="Path 128" d="M175.783,361.514c0,2.565,5.4,4.577,12.3,4.577s12.295-2.015,12.295-4.577c0-1.782-2.49-3.307-6.66-4.087a.378.378,0,1,0-.139.742c3.673.685,6.046,2,6.046,3.345,0,1.846-4.637,3.823-11.542,3.823s-11.545-1.981-11.545-3.823c0-1.431,2.693-2.821,6.7-3.458a.381.381,0,0,0-.117-.754c-4.524.727-7.334,2.328-7.334,4.211Z" transform="translate(0 -303.96)" fill="#906d4e" stroke="#906d4e" stroke-width="0.5"/>
  </g>
</svg>
