<svg xmlns="http://www.w3.org/2000/svg" width="92.537" height="82.294" viewBox="0 0 92.537 82.294">
  <g id="Group_60" data-name="Group 60" transform="translate(0 0)">
    <path id="Path_106" data-name="Path 106" d="M256.957,342.314a1.554,1.554,0,0,0-2.621,0l-17.91,32.836a1.492,1.492,0,0,0,1.311,2.207h35.821a1.492,1.492,0,0,0,1.311-2.207ZM240.25,374.372l15.4-28.227,15.4,28.227Z" transform="translate(-209.378 -295.062)" fill="rgb(144, 109, 78,0.1)"/>
    <path id="Path_107" data-name="Path 107" d="M286.536,81.09a16.284,16.284,0,0,0-4.518-7.593,1.5,1.5,0,0,0-1.756-.222l-1.621.9h0a.578.578,0,0,1-.574.015,14.03,14.03,0,0,0-2.057-1.147.442.442,0,0,1-.233-.4V70.837a1.49,1.49,0,0,0-1.106-1.441,16.5,16.5,0,0,0-4.717-.6,17.39,17.39,0,0,0-4.284.605,1.491,1.491,0,0,0-1.107,1.441v1.8a.442.442,0,0,1-.237.405,14.072,14.072,0,0,0-2.055,1.145.575.575,0,0,1-.574-.016l-1.612-.9h0a1.5,1.5,0,0,0-1.756.221,16.3,16.3,0,0,0-4.526,7.591,1.491,1.491,0,0,0,.714,1.688l1.892,1.057h0a12.318,12.318,0,0,0,0,2.757l-1.892,1.057h0a1.493,1.493,0,0,0-.714,1.69,16.285,16.285,0,0,0,4.518,7.593,1.493,1.493,0,0,0,1.756.222l1.621-.9h0a.577.577,0,0,1,.574-.015,14.044,14.044,0,0,0,2.057,1.147.443.443,0,0,1,.233.4v1.806a1.49,1.49,0,0,0,1.106,1.441,17.393,17.393,0,0,0,4.5.6h.213a17.406,17.406,0,0,0,4.284-.605,1.491,1.491,0,0,0,1.107-1.441v-1.8a.442.442,0,0,1,.237-.405,14.1,14.1,0,0,0,2.055-1.145.57.57,0,0,1,.574.016l1.612.9h0a1.491,1.491,0,0,0,1.756-.221,16.3,16.3,0,0,0,4.526-7.591,1.492,1.492,0,0,0-.714-1.688l-1.892-1.057h0a12.315,12.315,0,0,0,0-2.757l1.892-1.057h0A1.494,1.494,0,0,0,286.536,81.09Zm-5.7,2.229h0a9.591,9.591,0,0,1,0,3.793,1.492,1.492,0,0,0,.739,1.584l1.736.97h0a13.314,13.314,0,0,1-2.6,4.322l-.611-.34h0a3.557,3.557,0,0,0-3.7.113,11.059,11.059,0,0,1-1.613.9,3.421,3.421,0,0,0-1.994,3.126v.61a13.924,13.924,0,0,1-5.244.005v-.615a3.42,3.42,0,0,0-1.991-3.125,10.922,10.922,0,0,1-1.615-.9,3.563,3.563,0,0,0-3.7-.115l-.62.345h0a13.305,13.305,0,0,1-2.591-4.326l1.734-.97h0a1.492,1.492,0,0,0,.739-1.582,9.688,9.688,0,0,1,0-3.8,1.492,1.492,0,0,0-.739-1.582l-1.734-.97h0a13.312,13.312,0,0,1,2.6-4.322l.611.34h0a3.553,3.553,0,0,0,3.7-.113,11.074,11.074,0,0,1,1.613-.9,3.422,3.422,0,0,0,1.994-3.126v-.609a13.859,13.859,0,0,1,2.443-.251,13.353,13.353,0,0,1,2.8.245v.615a3.419,3.419,0,0,0,1.991,3.125,10.918,10.918,0,0,1,1.615.9,3.559,3.559,0,0,0,3.7.115l.62-.345h0a13.3,13.3,0,0,1,2.591,4.326l-1.736.969a1.492,1.492,0,0,0-.739,1.584Z" transform="translate(-223.901 -68.795)" fill="rgb(144, 109, 78,0.1)"/>
    <path id="Path_108" data-name="Path 108" d="M313.713,121.3a7.471,7.471,0,1,0,5.275,2.188A7.466,7.466,0,0,0,313.713,121.3Zm0,11.94a4.482,4.482,0,1,1,3.165-1.313,4.478,4.478,0,0,1-3.165,1.313Z" transform="translate(-267.444 -112.348)" fill="rgb(144, 109, 78,0.1)"/>
    <path id="Path_109" data-name="Path 109" d="M341.25,420h2.985v10.448H341.25Z" transform="translate(-296.474 -360.093)" fill="rgb(144, 109, 78,0.1)"/>
    <path id="Path_110" data-name="Path 110" d="M341.25,498.75h2.985v2.985H341.25Z" transform="translate(-296.474 -425.411)" fill="rgb(144, 109, 78,0.1)"/>
    <path id="Path_111" data-name="Path 111" d="M504.723,175.738h8.955a1.492,1.492,0,0,0,1.492-1.493v-11.94h2.985a1.492,1.492,0,0,0,1.133-2.463l-8.955-10.448a1.54,1.54,0,0,0-2.266,0l-8.955,10.448a1.492,1.492,0,0,0,1.133,2.463h2.985v11.94a1.492,1.492,0,0,0,1.492,1.493Zm4.478-23.08,5.711,6.662h-1.233a1.492,1.492,0,0,0-1.492,1.493v11.94h-5.97v-11.94a1.492,1.492,0,0,0-1.492-1.493h-1.233Z" transform="translate(-427.111 -135.234)" fill="rgb(144, 109, 78,0.1)"/>
    <path id="Path_112" data-name="Path 112" d="M93.678,148.75H84.723a1.492,1.492,0,0,0-1.493,1.493v11.94H80.245a1.492,1.492,0,0,0-1.133,2.463l8.955,10.448a1.491,1.491,0,0,0,2.266,0l8.955-10.448a1.492,1.492,0,0,0-1.133-2.463H95.171v-11.94a1.493,1.493,0,0,0-1.493-1.493ZM89.2,171.83l-5.711-6.662h1.233a1.492,1.492,0,0,0,1.493-1.493v-11.94h5.97v11.94a1.492,1.492,0,0,0,1.493,1.493h1.233Z" transform="translate(-78.753 -135.112)" fill="rgb(144, 109, 78,0.1)"/>
    <path id="Path_113" data-name="Path 113" d="M80.243,315h89.552a1.493,1.493,0,0,1,1.493,1.493h0a1.493,1.493,0,0,1-1.493,1.493H80.243a1.493,1.493,0,0,1-1.493-1.493h0A1.493,1.493,0,0,1,80.243,315Z" transform="translate(-78.75 -273.004)" fill="rgb(144, 109, 78,0.1)"/>
  </g>
</svg>
