<svg xmlns="http://www.w3.org/2000/svg" width="63.999" height="82.294" viewBox="0 0 63.999 82.294">
  <g id="Group_697" data-name="Group 697" transform="translate(-173.605 -53.178)">
    <path id="Path_1260" data-name="Path 1260" d="M198.364,57.762a9.3,9.3,0,0,1,2.88,1.08c5.8,4.715,6.335,9.359,8.171,16.27,1.044,6.155,1.871,12.85.54,18.214a2.989,2.989,0,0,1,.36,2.52,14.879,14.879,0,0,1-8.387,9.9,55.782,55.782,0,0,0,6.731,15.01c2.844-2.7,5.831-5.544,8.459-7.811a40.789,40.789,0,0,1,8.135-5.831c2.556-1.26,5.364-1.871,7.739-.5,4.175,2.411,5.435,7.919,4.1,13.066a17.146,17.146,0,0,1-12.491,12.166c-6.444,1.728-12.059-.756-16.342-5.184-2.484,2.3-4.968,4.751-7.091,6.587-3.455,2.844-7.991,2.7-11.591,1.044a21.7,21.7,0,0,1-6.982-6.407,7.1,7.1,0,0,1-3.671-13.715,7.186,7.186,0,0,1,8.711,5.04,7.007,7.007,0,0,1-1.44,6.335,10.25,10.25,0,0,0,5.112,5.04c2.556,1.188,5.147,1.26,7.235-.432,2.556-2.268,5.04-4.644,7.127-6.624a55.565,55.565,0,0,1-7.631-16.666c-4.86.828-9.359-1.548-12.383-4.427a3.222,3.222,0,0,1-.864-2.808,38.958,38.958,0,0,1-8.675-15.551c-1.476-5.723-4.176-12.85-1.116-18.214a9.01,9.01,0,0,1,1.944-2.34c-1.331-3.6.288-5.939,2.376-6.587,2.16-.575,4.5,1.152,5.219,3.852.756,2.7-.432,5.364-2.591,5.939a3.51,3.51,0,0,1-2.268-.18,5.185,5.185,0,0,0-1.188,1.368c-1.8,5.724-.144,9.035,1.512,14.974a33.915,33.915,0,0,0,8.171,14.363,2.9,2.9,0,0,1,1.728.828,8.256,8.256,0,0,0,8.459,2.484c2.3-.612,4.751-1.691,6.084-6.371a3.162,3.162,0,0,1,1.584-1.944c1.116-4.284,1.008-9.935-.576-16.09-1.511-4.571-1.728-11.122-6.227-13.786a4.962,4.962,0,0,0-1.728-.648,3.4,3.4,0,0,1-1.836,1.332c-2.2.576-4.535-1.116-5.255-3.816s.432-5.363,2.592-5.975c2.628-.54,4.931,1.584,5.363,4.5Zm28.688,52.95a38.68,38.68,0,0,0-7.271,5.255c-2.556,2.2-5.724,5.22-8.567,7.955,3.455,3.671,7.307,5.327,12.347,4a12.911,12.911,0,0,0,9.611-9.251c.972-3.851-.216-7.379-2.232-8.531-1.3-.576-2.771.036-3.888.576Zm-47.047,7.379a3.034,3.034,0,1,0,3.708,2.16A3.208,3.208,0,0,0,180.006,118.091Z" fill="currentColor"/>
  </g>
</svg>
