<svg xmlns="http://www.w3.org/2000/svg" width="61.469" height="54.26" viewBox="0 0 61.469 54.26">
  <g id="Group_61" data-name="Group 61" transform="translate(-106.394 -65.016)">
    <path id="Path_115" data-name="Path 115" d="M367.729,316.027V294.606a1,1,0,0,0-1-1h0a1,1,0,0,0-1,1v23.414a1,1,0,0,0,1,1H393.49a1,1,0,0,0,1-1h0a1,1,0,0,0-1-1H368.726A1,1,0,0,1,367.729,316.027Z" transform="translate(-226.623 -199.754)" fill="#906d4e"/>
    <path id="Path_116" data-name="Path 116" d="M398.266,387.946H402.8a1,1,0,0,0,1-1V378.1a1,1,0,0,0-1-1h-4.536a1,1,0,0,0-1,1v8.845A1,1,0,0,0,398.266,387.946Zm1.416-9.4h1.657a1,1,0,0,1,1,1v5.963a1,1,0,0,1-1,1H399.7a1,1,0,0,1-1-.993l-.021-5.963A1,1,0,0,1,399.683,378.549Z" transform="translate(-254.178 -272.717)" fill="#906d4e"/>
    <path id="Path_117" data-name="Path 117" d="M460.536,353.981h4.536a1,1,0,0,0,1-1V339.236a1,1,0,0,0-1-1h-4.536a1,1,0,0,0-1,1v13.749A1,1,0,0,0,460.536,353.981Zm1.415-14.307h1.658a1,1,0,0,1,1,1v10.874a1,1,0,0,1-1,1h-1.634a1,1,0,0,1-1-.994l-.024-10.874A1,1,0,0,1,461.951,339.674Z" transform="translate(-308.592 -238.753)" fill="#906d4e"/>
    <path id="Path_118" data-name="Path 118" d="M522.806,321.1h4.536a1,1,0,0,0,1-1v-18.5a1,1,0,0,0-1-1h-4.536a1,1,0,0,0-1,1v18.5A1,1,0,0,0,522.806,321.1Zm1.414-19.076h1.659a1,1,0,0,1,1,1V318.69a1,1,0,0,1-1,1h-1.64a1,1,0,0,1-1-1l-.019-15.67A1,1,0,0,1,524.22,302.023Z" transform="translate(-363.005 -205.87)" fill="#906d4e"/>
    <path id="Path_119" data-name="Path 119" d="M402.288,230.9l5.705-5.832a.243.243,0,0,1,.346,0l3.285,3.324a.243.243,0,0,0,.345,0l8.857-8.926v1.675h1.434V217h-4.147v1.434h1.7l-7.846,7.909a.243.243,0,0,1-.345,0l-3.292-3.337a.243.243,0,0,0-.347,0l-6.723,6.884a.243.243,0,0,0,0,.343l.678.664A.243.243,0,0,0,402.288,230.9Z" transform="translate(-257.607 -132.812)" fill="#906d4e"/>
    <path id="Path_120" data-name="Path 120" d="M275.519,65.016H251.954a.684.684,0,0,0-.684.684V81.02a.684.684,0,0,0,.684.684h1.366a.684.684,0,0,1,.684.684v4.29a.684.684,0,0,0,1.071.564l7.889-5.418a.684.684,0,0,1,.387-.12h12.174a.684.684,0,0,0,.684-.684L276.2,65.7A.684.684,0,0,0,275.519,65.016ZM274.1,80.255H262.9a.684.684,0,0,0-.386.119l-6,4.1a.684.684,0,0,1-1.07-.565V80.939a.684.684,0,0,0-.684-.684h-1.367a.684.684,0,0,1-.684-.684V67.148a.684.684,0,0,1,.684-.684h20.677a.684.684,0,0,1,.684.682l.032,12.423A.684.684,0,0,1,274.1,80.255Z" transform="translate(-126.598)" fill="#906d4e"/>
    <path id="Path_121" data-name="Path 121" d="M311.071,119.482h11.053a.753.753,0,0,1,.753.753h0a.753.753,0,0,1-.753.753H311.071a.753.753,0,0,1-.753-.753h0A.753.753,0,0,1,311.071,119.482Z" transform="translate(-178.196 -47.594)" fill="#906d4e"/>
    <path id="Path_122" data-name="Path 122" d="M291.053,95.7h13.579a.753.753,0,0,1,.753.753h0a.753.753,0,0,1-.753.753H291.053a.753.753,0,0,1-.753-.753h0A.753.753,0,0,1,291.053,95.7Z" transform="translate(-160.704 -26.815)" fill="#906d4e"/>
    <path id="Path_123" data-name="Path 123" d="M342.693,144.87h7.065a.753.753,0,0,1,.753.753h0a.753.753,0,0,1-.753.753h-7.065a.753.753,0,0,1-.753-.753h0A.753.753,0,0,1,342.693,144.87Z" transform="translate(-205.829 -69.779)" fill="#906d4e"/>
    <path id="Path_124" data-name="Path 124" d="M162.016,261.88a7.418,7.418,0,1,0-5.234-2.175,7.406,7.406,0,0,0,5.234,2.175Zm0-12.823a2.245,2.245,0,1,1,0-.007Z" transform="translate(-42.135 -159.086)" fill="#906d4e"/>
    <path id="Path_125" data-name="Path 125" d="M119.882,380.18a13.488,13.488,0,0,0-13.488,13.5h0a1,1,0,0,0,1,1h24.983a1,1,0,0,0,1-1h0a13.487,13.487,0,0,0-13.487-13.5Zm-11.168,12.491a.257.257,0,0,1-.257-.283,11.5,11.5,0,0,1,22.849,0,.257.257,0,0,1-.257.283Z" transform="translate(0 -275.402)" fill="#906d4e"/>
  </g>
</svg>
