<svg xmlns="http://www.w3.org/2000/svg" width="61.786" height="54.61" viewBox="0 0 61.786 54.61">
  <g id="Group_52" data-name="Group 52" transform="translate(-131.129 -86.747)">
    <path id="Path_89" data-name="Path 89" d="M183.216,167.587v-.307a3.361,3.361,0,0,0-1.229-6.557.918.918,0,1,1,.9-.9h2.459a3.359,3.359,0,0,0-2.131-3.131v-.448a1.23,1.23,0,0,0-1.229-1.229h0a1.229,1.229,0,0,0-1.229,1.229v.448a3.336,3.336,0,0,0,1.229,6.557.9.9,0,1,1-.918.9H178.61a3.394,3.394,0,0,0,2.147,3.131v.307a1.229,1.229,0,0,0,1.229,1.229h0A1.229,1.229,0,0,0,183.216,167.587Z" transform="translate(-40.097 -58.523)" fill="#906d4e" stroke="#fff" stroke-width="0.35"/>
    <path id="Path_90" data-name="Path 90" d="M188.051,90.249h-2.033a1.246,1.246,0,0,0-1.246,1.246h0a1.246,1.246,0,0,0,1.246,1.246h2.033c1.213,0,2.229.771,2.229,1.639v39.7a1.3,1.3,0,0,1-1.229,1.361H182.92V90.364a3.459,3.459,0,0,0-3.459-3.442H144.07a3.442,3.442,0,0,0-3.443,3.442v2.787a10.41,10.41,0,0,0,0,20.688v23.9a3.443,3.443,0,0,0,3.443,3.443h35.392a3.426,3.426,0,0,0,3.426-3.278h6.164a3.77,3.77,0,0,0,3.688-3.82V94.38a4.442,4.442,0,0,0-4.689-4.131Zm-54.1,13.245a3.308,3.308,0,1,1-.033,0Zm46.506,34.244a.984.984,0,0,1-1,.984H144.069a.983.983,0,0,1-.984-.984v-23.9a10.426,10.426,0,0,0,0-20.688V90.363a.983.983,0,0,1,.984-.9h35.392a.984.984,0,0,1,1,.984Z" fill="#906d4e" stroke="#fff" stroke-width="0.35"/>
    <path id="Path_91" data-name="Path 91" d="M310.4,276.73h16.31a1.23,1.23,0,0,1,1.229,1.229h0a1.229,1.229,0,0,1-1.229,1.229H310.4a1.229,1.229,0,0,1-1.229-1.229h0A1.23,1.23,0,0,1,310.4,276.73Z" transform="translate(-152.805 -163.138)" fill="#906d4e" stroke="#fff" stroke-width="0.35"/>
    <path id="Path_92" data-name="Path 92" d="M253.929,306.13h24.262a1.23,1.23,0,0,1,1.229,1.229h0a1.229,1.229,0,0,1-1.229,1.229H253.929a1.229,1.229,0,0,1-1.229-1.229h0A1.23,1.23,0,0,1,253.929,306.13Z" transform="translate(-104.27 -188.407)" fill="#906d4e" stroke="#fff" stroke-width="0.35"/>
    <path id="Path_93" data-name="Path 93" d="M253.929,336.12h24.262a1.229,1.229,0,0,1,1.229,1.229h0a1.23,1.23,0,0,1-1.229,1.229H253.929a1.23,1.23,0,0,1-1.229-1.229h0A1.229,1.229,0,0,1,253.929,336.12Z" transform="translate(-104.27 -214.183)" fill="#906d4e" stroke="#fff" stroke-width="0.35"/>
    <path id="Path_94" data-name="Path 94" d="M253.929,366.1h24.262a1.23,1.23,0,0,1,1.229,1.229h0a1.229,1.229,0,0,1-1.229,1.229H253.929a1.229,1.229,0,0,1-1.229-1.229h0A1.23,1.23,0,0,1,253.929,366.1Z" transform="translate(-104.27 -239.951)" fill="#906d4e" stroke="#fff" stroke-width="0.35"/>
    <path id="Path_95" data-name="Path 95" d="M334.549,214.67h0a1.229,1.229,0,0,1,1.229,1.229v1.8a1.229,1.229,0,0,1-1.229,1.229h0a1.23,1.23,0,0,1-1.229-1.229v-1.8A1.23,1.23,0,0,1,334.549,214.67Z" transform="translate(-173.562 -109.798)" fill="#906d4e" stroke="#fff" stroke-width="0.35"/>
    <path id="Path_96" data-name="Path 96" d="M364.409,192.73h0a1.23,1.23,0,0,1,1.229,1.229v4.9a1.23,1.23,0,0,1-1.229,1.229h0a1.229,1.229,0,0,1-1.229-1.229v-4.9A1.229,1.229,0,0,1,364.409,192.73Z" transform="translate(-199.226 -90.941)" fill="#906d4e" stroke="#fff" stroke-width="0.35"/>
    <path id="Path_97" data-name="Path 97" d="M394.159,173.13h0a1.23,1.23,0,0,1,1.229,1.229v7.656a1.229,1.229,0,0,1-1.229,1.229h0a1.229,1.229,0,0,1-1.229-1.229v-7.656A1.229,1.229,0,0,1,394.159,173.13Z" transform="translate(-224.796 -74.095)" fill="#906d4e" stroke="#fff" stroke-width="0.35"/>
    <path id="Path_98" data-name="Path 98" d="M424.029,157.73h0a1.23,1.23,0,0,1,1.229,1.229v9.819a1.229,1.229,0,0,1-1.229,1.229h0a1.229,1.229,0,0,1-1.229-1.229v-9.819A1.229,1.229,0,0,1,424.029,157.73Z" transform="translate(-250.469 -60.859)" fill="#906d4e" stroke="#fff" stroke-width="0.35"/>
    <path id="Path_99" data-name="Path 99" d="M253.929,401.45h4.754a1.23,1.23,0,0,1,1.229,1.229h0a1.229,1.229,0,0,1-1.229,1.229h-4.754a1.229,1.229,0,0,1-1.229-1.229h0A1.229,1.229,0,0,1,253.929,401.45Z" transform="translate(-104.27 -270.334)" fill="#906d4e" stroke="#fff" stroke-width="0.35"/>
    <path id="Path_100" data-name="Path 100" d="M412.129,401.45h2.017a1.23,1.23,0,0,1,1.229,1.229h0a1.229,1.229,0,0,1-1.229,1.229h-2.017a1.229,1.229,0,0,1-1.229-1.229h0A1.229,1.229,0,0,1,412.129,401.45Z" transform="translate(-240.241 -270.334)" fill="#906d4e" stroke="#fff" stroke-width="0.35"/>
  </g>
</svg>
