<svg xmlns="http://www.w3.org/2000/svg" width="25.604" height="24.724" viewBox="0 0 25.604 24.724">
  <g id="Group_68" data-name="Group 68" transform="translate(-83.337 -22.595)">
    <path id="Path_137" data-name="Path 137" d="M124.773,215.828a3.028,3.028,0,1,1-3.028-3.028,3.028,3.028,0,0,1,3.028,3.028" transform="translate(-33.261 -180.938)" fill="none" stroke="#906d4e" stroke-width="1"/>
    <path id="Path_138" data-name="Path 138" d="M89.623,361.2H87.372a3.2,3.2,0,0,0-3.183,2.847l-.336,2.614a.654.654,0,0,0,.518.725,19.3,19.3,0,0,0,4.115.414q.893,0,1.708-.078l.285-2.329a4.564,4.564,0,0,1,1.63-2.976,3.139,3.139,0,0,0-2.484-1.216Z" transform="translate(0 -322.48)" fill="none" stroke="#906d4e" stroke-width="1"/>
    <path id="Path_139" data-name="Path 139" d="M456.293,215.828a3.028,3.028,0,1,1-3.028-3.028,3.028,3.028,0,0,1,3.028,3.028" transform="translate(-349.46 -180.938)" fill="none" stroke="#906d4e" stroke-width="1"/>
    <path id="Path_140" data-name="Path 140" d="M445.307,364.045a3.215,3.215,0,0,0-3.183-2.847h-2.251a3.19,3.19,0,0,0-2.51,1.216,4.458,4.458,0,0,1,1.63,2.976l.285,2.329c.544.052,1.139.078,1.708.078a20.916,20.916,0,0,0,4.115-.414.677.677,0,0,0,.518-.725Z" transform="translate(-337.18 -322.478)" fill="none" stroke="#906d4e" stroke-width="1"/>
    <path id="Path_141" data-name="Path 141" d="M255.359,394.24h-2.251a3.194,3.194,0,0,0-3.183,2.821l-.311,2.614a.639.639,0,0,0,.518.725,19.3,19.3,0,0,0,4.115.414,20.911,20.911,0,0,0,4.115-.414.677.677,0,0,0,.518-.725l-.31-2.614a3.239,3.239,0,0,0-3.209-2.821Z" transform="translate(-158.102 -353.993)" fill="none" stroke="#906d4e" stroke-width="1"/>
    <path id="Path_142" data-name="Path 142" d="M290.536,248.868a3.028,3.028,0,1,1-3.028-3.028,3.028,3.028,0,0,1,3.028,3.028" transform="translate(-191.363 -212.451)" fill="none" stroke="#906d4e" stroke-width="1"/>
    <path id="Path_143" data-name="Path 143" d="M252.18,28.472a.672.672,0,0,1,.207.647l-.492,2.019a.652.652,0,0,0,.983.7l1.786-1.087a.631.631,0,0,1,.673,0l1.786,1.087a.657.657,0,0,0,.983-.7l-.492-2.019a.672.672,0,0,1,.207-.647l1.579-1.346a.645.645,0,0,0-.362-1.139l-2.07-.181a.67.67,0,0,1-.544-.388l-.8-1.915a.657.657,0,0,0-1.216,0l-.8,1.889a.611.611,0,0,1-.544.388l-2.07.181a.649.649,0,0,0-.362,1.139Z" transform="translate(-158.856)" fill="none" stroke="#906d4e" stroke-width="1"/>
  </g>
</svg>
