<svg xmlns="http://www.w3.org/2000/svg" width="48.559" height="50.386" viewBox="0 0 48.559 50.386">
  <g id="Group_74" data-name="Group 74" transform="translate(0.641 0.625)">
    <path id="Path_1037" data-name="Path 1037" d="M126.66,72.416a.629.629,0,0,0,.71-.059,6.657,6.657,0,0,1,4.321-1.539,6.841,6.841,0,0,1,5.446,2.723.616.616,0,0,0,.947,0,6.816,6.816,0,0,1,11.189.414l.177.178V95.385c0,.118.059.178.059.3a4.749,4.749,0,0,0,9.412-.888V93.017a.592.592,0,1,0-1.184,0v1.776a3.552,3.552,0,1,1-7.1,0V73.422a6.759,6.759,0,0,1,5.328-2.6,6.908,6.908,0,0,1,5.742,3.138.6.6,0,0,0,.474.3.527.527,0,0,0,.474-.3,6.829,6.829,0,0,1,10.064-1.6.62.62,0,0,0,.71.059.562.562,0,0,0,.237-.651,24.189,24.189,0,0,0-23.028-18.707V50.985a.592.592,0,0,0-1.184,0v2.072a24.189,24.189,0,0,0-23.028,18.707.657.657,0,0,0,.237.651Zm23.383-18.174A23,23,0,0,1,172.125,70.58a7.94,7.94,0,0,0-9.946,2.013,7.943,7.943,0,0,0-6.216-2.96,8.133,8.133,0,0,0-6.216,2.96,8.018,8.018,0,0,0-12.136-.355,7.974,7.974,0,0,0-5.92-2.6,7.44,7.44,0,0,0-3.73.947,23,23,0,0,1,22.082-16.339Z" transform="translate(-126.407 -50.393)" fill="currentColor" stroke="currentColor" stroke-width="1.25"/>
  </g>
</svg>
