<svg xmlns="http://www.w3.org/2000/svg" width="11.88" height="10.12" viewBox="0 0 11.88 10.12">
  <g id="Group_702" data-name="Group 702" transform="translate(-113.75 -78.751)">
    <path id="Path_1265" data-name="Path 1265" d="M125.206,79.554h-4.271a.919.919,0,0,1,.749-.38h.986a.211.211,0,1,0,0-.423h-.986a1.336,1.336,0,0,0-1.232.8h-3.283a.918.918,0,0,1,.748-.38h.986a.211.211,0,1,0,0-.423h-.986a1.336,1.336,0,0,0-1.232.8h-2.51a.423.423,0,0,0-.424.423v8.894h11.88V79.977a.424.424,0,0,0-.424-.423Zm-7.736,8.894h-3.3V85.689h3.3Zm0-3.182h-3.3V82.506h3.3Zm4.143,3.182h-3.718V85.689h3.718Zm0-3.182h-3.718V82.506h3.718Zm3.592,3.182h-3.168V85.689h3.169Zm0-3.182h-3.169V82.506h3.169Zm0-3.182H114.174V79.977h2.413c0,.024,0,.047,0,.072a1.317,1.317,0,0,0,1.333,1.3.211.211,0,1,0,0-.423.894.894,0,0,1-.909-.875c0-.025.006-.048.007-.071h3.339c0,.024,0,.047,0,.071a1.318,1.318,0,0,0,1.334,1.3.211.211,0,1,0,0-.423.894.894,0,0,1-.909-.875c0-.025.005-.048.007-.072h4.424Z" fill="#d2d2d2"/>
  </g>
</svg>
