<svg xmlns="http://www.w3.org/2000/svg" width="24.437" height="17"><g data-name="Group 690"><path data-name="Path 1258" d="M2.125 17h20.187a2.125 2.125 0 0 0 2.125-2.125V2.125A2.125 2.125 0 0 0 22.312 0H2.125A2.125 2.125 0 0 0 0 2.125v12.75A2.125 2.125 0 0 0 2.125 17zM1.063 2.125a1.062 1.062 0 0 1 1.063-1.062h20.187a1.062 1.062 0 0 1 1.063 1.062v12.75a1.062 1.062 0 0 1-1.062 1.063H2.125a1.062 1.062 0 0 1-1.062-1.062zm1.594 11.918a.531.531 0 0 1-.014-.751l5.411-5.625-5.193-4.061a.531.531 0 0 1 .655-.837l8.193 6.408a1.063 1.063 0 0 0 1.022 0l8.193-6.408a.531.531 0 0 1 .655.837l-5.193 4.061 5.412 5.625a.531.531 0 0 1-.766.737l-5.476-5.692s0-.01-.009-.014l-2.191 1.714a.479.479 0 0 1-.058.039 2.125 2.125 0 0 1-2.155 0 .481.481 0 0 1-.058-.039L8.894 8.323l-.009.014-5.476 5.692a.531.531 0 0 1-.751.014z" fill="currentColor"/></g></svg>