<?xml version="1.0" encoding="UTF-8"?>
<svg xmlns="http://www.w3.org/2000/svg" xmlns:xlink="http://www.w3.org/1999/xlink" width="25%" height="150pt" viewBox="0 0 200 150" version="1.1">
<g id="surface1">
<path style=" stroke:none;fill-rule:nonzero;fill:rgb(144, 109, 78,0.2);fill-opacity:1;" d="M 114.539062 24.234375 C 114.351562 23.703125 114.117188 23.710938 113.933594 24.253906 L 103.351562 54.851562 L 103.351562 26.808594 C 103.351562 25.742188 103.234375 24.761719 103.046875 24.234375 C 102.855469 23.707031 102.625 23.714844 102.4375 24.257812 L 93.421875 50.324219 L 93.421875 3.863281 C 93.421875 3.078125 93.359375 2.320312 93.242188 1.765625 C 93.128906 1.210938 92.976562 0.898438 92.816406 0.898438 L 85.144531 0.898438 C 84.984375 0.898438 84.832031 1.210938 84.71875 1.765625 C 84.605469 2.320312 84.539062 3.078125 84.539062 3.863281 L 84.539062 146.128906 C 84.539062 146.914062 84.605469 147.667969 84.71875 148.226562 C 84.832031 148.78125 84.984375 149.09375 85.144531 149.09375 L 114.238281 149.09375 C 114.398438 149.09375 114.554688 148.78125 114.667969 148.226562 C 114.78125 147.667969 114.84375 146.914062 114.84375 146.128906 L 114.84375 26.804688 C 114.847656 25.742188 114.730469 24.757812 114.539062 24.230469 Z M 113.632812 143.171875 L 85.75 143.171875 L 85.75 6.828125 L 92.207031 6.828125 L 92.207031 55.527344 C 92.207031 56.59375 92.324219 57.574219 92.515625 58.101562 C 92.703125 58.628906 92.933594 58.621094 93.121094 58.078125 L 102.136719 32.007812 L 102.136719 60.046875 C 102.136719 61.109375 102.253906 62.09375 102.445312 62.621094 C 102.632812 63.144531 102.863281 63.136719 103.050781 62.597656 L 113.632812 32 Z M 113.632812 143.171875 "/>
</g>
</svg>
