<?xml version="1.0" encoding="UTF-8"?>
<svg xmlns="http://www.w3.org/2000/svg" xmlns:xlink="http://www.w3.org/1999/xlink" width="130pt" height="130pt" viewBox="0 0 130 130" version="1.1">
<g id="surface1">
<path style="fill-rule:nonzero;fill:rgb(56.470588%,42.745098%,30.588235%,0.5);fill-opacity:0.2;stroke-width:1;stroke-linecap:butt;stroke-linejoin:miter;stroke-opacity:0.2;stroke-miterlimit:4;" d="M 179.779538 132.179806 L 164.799795 132.179806 L 164.799795 117.200302 L 179.779538 117.200302 Z M 166.027821 130.952504 L 178.551513 130.952504 L 178.551513 118.427605 L 166.027821 118.427605 Z M 166.027821 130.952504 " transform="matrix(3.241356,0,0,3.411954,-529.913148,-390.73357)"/>
<path style="fill-rule:nonzero;fill:rgb(56.470588%,42.745098%,30.588235%,0.5);fill-opacity:0.2;stroke-width:1;stroke-linecap:butt;stroke-linejoin:miter;stroke-opacity:0.2;stroke-miterlimit:4;" d="M 362.178487 116.831419 L 352.714615 107.367908 L 362.178487 97.904396 L 371.641154 107.367908 Z M 354.451205 107.367908 L 362.178487 115.094648 L 369.905769 107.367908 L 362.178487 99.641167 Z M 354.451205 107.367908 " transform="matrix(3.241356,0,0,3.411954,-1076.687832,-331.635114)"/>
<path style="fill-rule:nonzero;fill:rgb(56.470588%,42.745098%,30.588235%,0.5);fill-opacity:0.2;stroke-width:1;stroke-linecap:butt;stroke-linejoin:miter;stroke-opacity:0.2;stroke-miterlimit:4;" d="M 176.286256 327.76053 L 160.406282 327.76053 L 168.345667 314.009473 Z M 162.533333 326.533227 L 174.159205 326.533227 L 168.345667 316.466368 Z M 162.533333 326.533227 " transform="matrix(3.241356,0,0,3.411954,-517.129239,-993.530323)"/>
<path style="fill-rule:nonzero;fill:rgb(56.470588%,42.745098%,30.588235%,0.5);fill-opacity:0.2;stroke-width:1;stroke-linecap:butt;stroke-linejoin:miter;stroke-opacity:0.2;stroke-miterlimit:4;" d="M 379.499923 328.180546 C 379.380615 328.180546 379.262513 328.178257 379.143205 328.172532 C 375.292821 327.968745 372.217333 324.893619 372.013667 321.04456 C 371.869051 317.986607 373.600821 315.148469 376.385872 313.877662 C 379.170923 312.605709 382.448872 313.157537 384.663897 315.269826 C 386.880128 317.382115 387.587538 320.630116 386.449897 323.472833 C 385.313462 326.314405 382.560949 328.179402 379.499923 328.180546 Z M 379.499923 314.428345 C 377.788641 314.42949 376.150872 315.130151 374.968641 316.368903 C 373.787615 317.608799 373.164564 319.278022 373.245308 320.987316 C 373.415231 324.205551 375.985769 326.775789 379.203462 326.946375 C 381.473923 327.053992 383.623872 325.922859 384.821769 323.992605 C 386.018462 322.062351 386.076308 319.634078 384.97241 317.647725 C 383.869718 315.662517 381.775205 314.430635 379.503538 314.428345 Z M 379.499923 314.428345 " transform="matrix(3.241356,0,0,3.411954,-1132.805436,-991.053244)"/>
</g>
</svg>
