<?xml version="1.0" encoding="UTF-8"?>
<svg xmlns="http://www.w3.org/2000/svg" xmlns:xlink="http://www.w3.org/1999/xlink" width="130pt" height="130pt" viewBox="0 0 130 130" version="1.1">
<g id="surface1">
<path style="fill-rule:nonzero;fill:rgb(56.470588%,42.745098%,30.588235%,0.1);fill-opacity:1;stroke-width:0.75;stroke-linecap:butt;stroke-linejoin:miter;stroke-opacity:1;stroke-miterlimit:4;" d="M 93.316415 78.165699 C 92.785677 78.224088 92.389431 78.677457 92.401 79.209822 L 92.401 114.143299 C 92.401 114.711156 92.860877 115.171394 93.429215 115.171394 L 138.637431 115.171394 C 139.010538 115.181698 139.361954 114.98936 139.554292 114.666506 C 139.745185 114.343652 139.745185 113.942947 139.554292 113.620093 C 139.361954 113.297239 139.010538 113.103756 138.637431 113.116349 L 94.455985 113.116349 L 94.455985 79.208678 C 94.463215 78.913301 94.341738 78.629372 94.121923 78.42902 C 93.903554 78.228667 93.609985 78.132498 93.316415 78.164554 Z M 133.399462 84.86091 C 133.026354 84.868924 132.687954 85.079581 132.514415 85.410449 C 132.340877 85.742462 132.359677 86.139732 132.565031 86.452282 C 132.770385 86.764832 133.127585 86.941143 133.500692 86.91481 L 135.859369 86.91481 L 120.800569 99.309194 L 115.807 92.95172 C 115.470046 92.521248 114.855431 92.428514 114.407123 92.743353 L 98.9998 103.530337 C 98.535585 103.858915 98.422785 104.502333 98.751062 104.968296 C 99.079338 105.434259 99.722877 105.544166 100.187092 105.216733 L 114.800477 94.989592 L 119.857677 101.412324 C 120.026877 101.629849 120.278508 101.769524 120.553277 101.800435 C 120.828046 101.830202 121.104262 101.748916 121.316846 101.573751 L 137.612108 88.151272 L 137.612108 91.026046 C 137.600538 91.400419 137.794323 91.751894 138.116815 91.943088 C 138.439308 92.134282 138.839892 92.134282 139.162385 91.943088 C 139.484877 91.751894 139.678662 91.400419 139.667092 91.026046 L 139.667092 85.886716 C 139.665646 85.320004 139.205769 84.86091 138.638877 84.86091 L 133.500692 84.86091 C 133.467431 84.86091 133.435615 84.86091 133.399462 84.86091 Z M 133.399462 84.86091 " transform="matrix(2.70113,0,0,3.411954,-248.571518,-265.357905)"/>
</g>
</svg>
