<?xml version="1.0" encoding="UTF-8"?>
<svg xmlns="http://www.w3.org/2000/svg" xmlns:xlink="http://www.w3.org/1999/xlink" width="130pt" height="130pt" viewBox="0 0 130 130" version="1.1">
<g id="surface1">
<path style="fill-rule:nonzero;fill:rgb(56.470588%,42.745098%,30.588235%,0.4);fill-opacity:0.2;stroke-width:0.5;stroke-linecap:butt;stroke-linejoin:miter;stroke-opacity:0.2;stroke-miterlimit:4;" d="M 201.324262 123.167604 L 200.988754 122.537473 L 199.7306 120.16563 L 199.454385 123.551347 C 199.303985 125.386517 197.554138 126.434376 196.044354 127.142389 C 195.396477 127.44117 194.738477 127.732872 194.003831 128.052893 C 192.541769 128.657536 191.112969 129.344309 189.726108 130.110379 C 187.652323 131.176646 185.935738 132.829148 184.790385 134.862561 C 184.715185 135.009828 184.639985 135.162759 184.567677 135.319938 C 183.765062 134.733703 182.880015 134.270663 181.940015 133.944977 C 178.198815 132.619577 174.289862 130.975571 173.653554 128.852948 L 173.331062 127.773936 L 172.791646 128.763738 C 172.592077 129.140401 172.440231 129.541136 172.340446 129.956032 C 172.085923 131.836514 172.058446 133.741069 172.258015 135.628631 C 172.690415 139.576511 174.198754 142.286785 176.621062 143.464918 C 178.262446 144.245148 179.948662 144.923425 181.671031 145.496915 C 183.924138 146.284226 185.412231 146.803907 186.039862 148.143467 L 186.305954 148.708462 L 186.937923 148.724038 L 187.564108 148.724038 L 187.849 148.161876 C 188.052908 147.034719 187.882262 145.872162 187.361646 144.851207 L 187.6046 143.828837 L 187.6046 143.817509 C 187.619062 143.746707 187.650877 143.598025 187.681246 143.384205 C 191.175154 143.379957 194.546138 142.094205 197.153554 139.770507 C 199.931615 137.109794 201.707492 133.573978 202.181831 129.756372 C 202.601215 127.524716 202.300415 125.21801 201.324262 123.167604 Z M 187.6798 140.475688 C 187.6422 140.227883 187.590138 139.975831 187.525062 139.715282 C 187.925646 139.112055 188.402877 138.562637 188.945185 138.081188 C 189.768046 137.380255 190.637185 136.733132 191.545369 136.146897 C 192.090569 135.775898 192.656015 135.392155 193.195431 134.985756 L 192.679154 134.205525 C 192.162877 134.505723 191.626354 134.794592 191.108631 135.074965 C 190.006662 135.648456 188.937954 136.282835 187.908292 136.976688 C 187.523615 137.244317 187.1534 137.533186 186.799092 137.84188 C 186.544569 137.366095 186.237985 136.920047 185.888015 136.507983 C 185.833062 136.442846 185.775215 136.379125 185.717369 136.318236 C 185.835954 136.054855 185.960323 135.788642 186.094815 135.525262 C 187.120138 133.753813 188.634262 132.315131 190.454969 131.38197 C 191.795554 130.642805 193.175185 129.981521 194.589523 129.395286 C 195.270662 129.095088 195.974938 128.794891 196.663308 128.467789 C 198.306138 127.843322 199.678538 126.662356 200.540446 125.1288 C 200.881738 126.370655 200.978631 127.664902 200.822446 128.942158 L 200.735677 129.542553 C 200.310508 133.025976 198.6966 136.257347 196.167277 138.691495 C 193.856323 140.743317 190.883031 141.888881 187.7926 141.918618 L 187.7926 141.90021 C 187.791154 141.423009 187.753554 140.947224 187.6798 140.475688 Z M 173.655 131.441443 C 174.211769 131.888907 174.806138 132.288227 175.432323 132.633737 C 177.357154 133.70142 179.3702 134.600597 181.451215 135.321354 C 182.719492 135.736249 183.856169 136.478247 184.749892 137.470881 C 185.203985 138.000475 185.566969 138.602286 185.821492 139.252241 C 186.009492 139.735106 186.142538 140.234963 186.222077 140.744733 C 186.285708 141.1483 186.318969 141.556115 186.321862 141.963931 C 186.321862 142.12819 186.321862 142.282537 186.310292 142.426971 C 186.067338 142.138102 185.809923 141.857729 185.542385 141.580188 C 184.326169 140.268948 182.839523 139.239497 181.183677 138.562637 C 180.991338 138.489004 180.794662 138.428114 180.593646 138.382802 L 180.583523 138.382802 C 180.537246 138.372889 180.490969 138.367225 180.443246 138.367225 L 180.071585 138.367225 L 179.980477 138.716984 L 179.893708 139.07099 L 180.203185 139.246577 C 180.402754 139.368356 180.602323 139.494382 180.767185 139.602 C 181.900969 140.324173 182.9422 141.182285 183.866292 142.157926 C 184.154077 142.463788 184.418723 142.772482 184.651554 143.075511 C 185.354385 143.961943 185.892354 144.96449 186.242323 146.039253 C 185.007308 145.159901 183.623338 144.505697 182.156938 144.110626 C 180.486631 143.55696 178.852477 142.899924 177.2646 142.143766 C 173.482908 140.308597 173.478569 134.066755 173.655 131.441443 Z M 173.655 131.441443 " transform="matrix(2.70113,0,0,2.758601,-445.451504,-308.328854)"/>
<path style="fill-rule:nonzero;fill:rgb(56.470588%,42.745098%,30.588235%,0.4);fill-opacity:0.2;stroke-width:0.5;stroke-linecap:butt;stroke-linejoin:miter;stroke-opacity:0.2;stroke-miterlimit:4;" d="M 116.922892 35.490828 L 114.961908 38.890706 L 112.684215 39.503845 L 114.039262 37.154659 C 103.761446 40.563033 97.758462 51.224291 100.172092 61.780763 C 100.273323 62.206987 100.015908 62.637459 99.592185 62.753573 L 99.579169 62.753573 C 99.365138 62.808798 99.139538 62.77623 98.950092 62.661531 C 98.762092 62.548249 98.6276 62.361334 98.578431 62.147514 C 95.960892 50.703194 102.522092 39.155503 113.692185 35.547469 L 111.243846 34.137108 L 113.521538 33.523968 Z M 116.922892 35.490828 " transform="matrix(2.70113,0,0,2.758601,-264.019282,-91.756592)"/>
<path style="fill-rule:nonzero;fill:rgb(56.470588%,42.745098%,30.588235%,0.4);fill-opacity:0.2;stroke-width:0.5;stroke-linecap:butt;stroke-linejoin:miter;stroke-opacity:0.2;stroke-miterlimit:4;" d="M 418.579415 78.549213 L 417.967692 80.826182 L 414.567785 82.793042 L 412.602462 79.391748 L 413.214185 77.114779 L 414.570677 79.463965 C 416.735569 68.857932 410.505538 58.336861 400.165538 55.135226 C 399.749046 55.006368 399.508985 54.570232 399.621785 54.149672 L 399.621785 54.135512 C 399.681077 53.923108 399.8228 53.741857 400.016585 53.635655 C 400.210369 53.529453 400.438862 53.50538 400.65 53.570518 C 411.857692 57.041197 418.573631 68.482685 416.142646 79.960991 Z M 418.579415 78.549213 " transform="matrix(2.70113,0,0,2.758601,-1002.227394,-141.756239)"/>
<path style="fill-rule:nonzero;fill:rgb(56.470588%,42.745098%,30.588235%,0.4);fill-opacity:0.2;stroke-width:0.5;stroke-linecap:butt;stroke-linejoin:miter;stroke-opacity:0.2;stroke-miterlimit:4;" d="M 192.374246 436.039265 C 192.528985 436.19786 192.614308 436.410264 192.609969 436.63258 C 192.605631 436.852064 192.510185 437.061636 192.348215 437.211734 C 188.139908 441.100141 182.621385 443.260996 176.888831 443.262413 C 171.295108 443.260996 165.899508 441.180855 161.754831 437.422722 L 161.754831 440.24911 L 160.088862 438.576783 L 160.094646 434.647312 L 164.023846 434.652976 L 165.689815 436.325302 L 162.976831 436.318222 C 171.069508 443.520129 183.312646 443.385607 191.243354 436.006696 C 191.562954 435.710747 192.058985 435.722075 192.367015 436.029353 Z M 192.374246 436.039265 " transform="matrix(2.70113,0,0,2.758601,-415.979471,-1094.483293)"/>
</g>
</svg>
