<svg xmlns="http://www.w3.org/2000/svg" width="171.156" height="177.753" viewBox="0 0 171.156 177.753">
  <g id="Group_82" data-name="Group 82" transform="translate(0.666 0.625)" opacity="0.1">
    <path id="Path_1037" data-name="Path 1037" d="M127.316,129.5a2.259,2.259,0,0,0,2.551-.212,23.913,23.913,0,0,1,15.523-5.529,24.574,24.574,0,0,1,19.564,9.783,2.213,2.213,0,0,0,3.4,0,24.484,24.484,0,0,1,40.191,1.488l.638.638v76.342c0,.426.212.638.212,1.064a17.061,17.061,0,0,0,33.811-3.191V203.5a2.127,2.127,0,1,0-4.254,0v6.38a12.76,12.76,0,1,1-25.52,0V203.5l0-70.175v-.212a24.279,24.279,0,0,1,19.138-9.357A24.815,24.815,0,0,1,253.2,135.03a2.17,2.17,0,0,0,1.7,1.064,1.9,1.9,0,0,0,1.7-1.064,24.529,24.529,0,0,1,36.15-5.742,2.227,2.227,0,0,0,2.551.212,2.019,2.019,0,0,0,.85-2.339,86.892,86.892,0,0,0-82.721-67.2V52.52a2.127,2.127,0,1,0-4.255,0v7.444a86.89,86.89,0,0,0-82.721,67.2,2.361,2.361,0,0,0,.852,2.339Zm84-65.284a82.622,82.622,0,0,1,79.319,58.692,28.523,28.523,0,0,0-35.726,7.23,28.534,28.534,0,0,0-22.329-10.633,29.215,29.215,0,0,0-22.329,10.633,28.8,28.8,0,0,0-43.594-1.276,28.642,28.642,0,0,0-21.265-9.357,26.727,26.727,0,0,0-13.4,3.4,82.629,82.629,0,0,1,79.323-58.692Z" transform="translate(-126.407 -50.393)" fill="#906d4e" stroke="#906d4e" stroke-width="1.25"/>
  </g>
</svg>
