<svg id="Group_59" data-name="Group 59" xmlns="http://www.w3.org/2000/svg" width="79.308" height="82.294" viewBox="0 0 79.308 82.294">
  <path id="Path_102" data-name="Path 102" d="M348.645,260.679l.056-4.189c0-.016,0-.031,0-.047s0-.038,0-.057a2.487,2.487,0,0,0-.061-.54l-.019-4.779h0l.059-4.4c0-.015,0-.029,0-.044s0-.04,0-.06a2.456,2.456,0,0,0-.057-.52l.056-4.265c0-.016,0-.03,0-.046s0-.039,0-.059a2.47,2.47,0,0,0-.075-.6l.056-4.189c0-.015,0-.029,0-.044s0-.04,0-.061a2.46,2.46,0,0,0-.057-.52l.056-4.266c0-.015,0-.029,0-.044s0-.04,0-.06c0-3.362-6.337-4.894-12.225-4.894-5.807,0-12.047,1.492-12.216,4.759,0,.039-.006.077-.007.117,0,.006,0,.012,0,.018v0l.019,4.6a2.408,2.408,0,0,0-.019.284v.008l.019,2.921v.347a1.114,1.114,0,0,1,0,.372v.021a1.223,1.223,0,1,0,2.445,0v-.021a1.241,1.241,0,0,0-.015-.186,1.225,1.225,0,0,0,.015-.186v-.173a10.875,10.875,0,0,0,1.119.487l.017.007a23.317,23.317,0,0,0,6.605,1.24h0c.371.022.754.039,1.129.049l.3.007c.195,0,.39.005.586.005s.392,0,.586-.005l.29-.006c.385-.01.765-.026,1.133-.049h.008a23.3,23.3,0,0,0,6.615-1.243l.035-.014a10.768,10.768,0,0,0,1.072-.467l-.018,1.346v.39c0,.112-.354.7-1.989,1.324a21.082,21.082,0,0,1-6.121,1.127l-.529.023c-.087,0-.173.006-.259.008h-.018l-.233,0h-.029c-.448.007-.883.006-1.394-.008h0l-.3-.009c-.187-.006-.374-.015-.559-.026h-.008c-.1,0-.207-.012-.31-.019l-.358-.026h-.013c-.082-.006-.161-.013-.243-.021-.7-.061-1.378-.148-2.024-.256a1.223,1.223,0,0,0-.407,2.411c.71.12,1.456.214,2.214.281l.278.023.24.019h.021l.137.009.338.021c.2.011.4.021.609.028.1,0,.206.008.3.009h.023c.319.009.619.013.916.013.2,0,.392,0,.589-.005h.028c.087,0,.173,0,.26-.006l.289-.008.276-.011h.023l.269-.012h.013a24.073,24.073,0,0,0,6.868-1.245l.037-.013a10.794,10.794,0,0,0,1.107-.481l-.018,1.38v.356c0,.115-.363.715-2.041,1.346a20.976,20.976,0,0,1-5.81,1.09q-.518.032-1.068.046c-.085,0-.171,0-.258.006-.361.006-.721.006-1.091,0h0c-.085,0-.17,0-.254-.006h-.016c-.352-.009-.708-.024-1.056-.046-.878-.054-1.734-.146-2.545-.274a1.223,1.223,0,0,0-.38,2.416c.886.14,1.82.24,2.776.3.377.023.762.039,1.131.049l.3.007c.195,0,.391,0,.588,0s.392,0,.587,0c.1,0,.2,0,.289-.006h.013c.378-.01.757-.026,1.127-.049h.008a23.478,23.478,0,0,0,6.555-1.223l.011,0,.049-.017a10.835,10.835,0,0,0,1.1-.478l-.018,1.368v.368c0,.115-.363.716-2.041,1.346a23.155,23.155,0,0,1-7.68,1.146,28.487,28.487,0,0,1-4.42-.33,1.223,1.223,0,0,0-.381,2.416,30.923,30.923,0,0,0,4.8.36,25.276,25.276,0,0,0,8.539-1.3,10.766,10.766,0,0,0,1.2-.528l.006,1.477v.351c0,.112-.354.7-1.99,1.325a20.725,20.725,0,0,1-5.862,1.111q-.51.031-1.065.046l-.233,0h-.029c-.361.006-.731.006-1.087,0H335.9l-.211,0h-.029c-.358-.009-.714-.024-1.056-.046a26.729,26.729,0,0,1-2.7-.3,1.223,1.223,0,1,0-.4,2.413,29.207,29.207,0,0,0,2.945.326c.371.023.756.039,1.134.049l.267.006h.055c.188,0,.377,0,.566,0s.392,0,.589,0h.028c.09,0,.179,0,.26-.006.389-.01.772-.027,1.139-.049h0a23.355,23.355,0,0,0,6.615-1.242l.032-.013a10.764,10.764,0,0,0,1.074-.468l-.018,1.346v.39c0,.112-.354.7-1.989,1.325a21.053,21.053,0,0,1-6.122,1.127c-.263.014-.529.022-.807.031-.085,0-.171,0-.258.006-.442.008-.867.006-1.394-.007h0l-.3-.009c-.188-.006-.374-.015-.556-.025-.155-.009-.308-.018-.471-.03l-.21-.016h-.012c-.08-.006-.16-.013-.244-.021-.642-.056-1.271-.134-1.872-.231a1.223,1.223,0,1,0-.391,2.414c.659.107,1.349.192,2.044.253.095.009.192.017.294.025.081.006.161.013.232.017.16.011.322.021.488.031.2.012.405.021.611.028.1,0,.206.008.3.009h.022c.326.009.626.013.915.013.2,0,.392,0,.587,0,.1,0,.2,0,.289-.007h.016c.283-.008.563-.017.84-.032h.015a24.079,24.079,0,0,0,6.871-1.245l.035-.012a10.957,10.957,0,0,0,1.107-.481l-.018,1.38v.356c0,.472-2.362,2.1-7.852,2.436-.339.021-.695.036-1.064.046-.087,0-.173,0-.259.006-.362.006-.731.006-1.092,0h0l-.239-.006h-.029c-.358-.009-.714-.024-1.056-.046a26.568,26.568,0,0,1-2.783-.312,1.223,1.223,0,1,0-.406,2.411,28.979,28.979,0,0,0,3.04.342c.371.023.756.039,1.134.049l.3.007q.292,0,.586,0c.2,0,.392,0,.586,0l.291-.006c.39-.01.774-.027,1.142-.049l.069,0a23.274,23.274,0,0,0,6.543-1.237,10.78,10.78,0,0,0,1.109-.482l-.019,1.4v.338c0,.174-.561.844-2.366,1.461a23.689,23.689,0,0,1-7.355,1.031,27.908,27.908,0,0,1-5.091-.447,1.222,1.222,0,1,0-.454,2.4,30.414,30.414,0,0,0,5.544.489,26.162,26.162,0,0,0,8.146-1.162c3.323-1.135,4.021-2.679,4.021-3.775v-.321l.059-4.422c0-.016,0-.031,0-.047s0-.038,0-.058a2.449,2.449,0,0,0-.057-.52l.056-4.265c0-.016,0-.031,0-.047s0-.038,0-.058a2.366,2.366,0,0,0-.074-.594Zm-11.662-21.452c-.362.006-.73.006-1.092,0h0l-.239-.006h-.029c-.357-.009-.712-.024-1.056-.046a20.978,20.978,0,0,1-5.857-1.1c-1.677-.631-2.03-1.24-2.03-1.334v-.213l-.006-1.535a10.979,10.979,0,0,0,1.132.493l.036.013a29.292,29.292,0,0,0,17.193,0l.037-.013a10.942,10.942,0,0,0,1.107-.481l-.018,1.379v.357c0,.112-.354.7-1.989,1.324a20.755,20.755,0,0,1-5.862,1.111q-.512.032-1.065.046l-.259.006Zm-7.938-8.77a27.491,27.491,0,0,1,14.785,0c1.972.658,2.387,1.331,2.387,1.426v.009c0,.007,0,.015,0,.021-.064.208-.557.738-1.965,1.268l-.035.012a26.9,26.9,0,0,1-15.552,0l-.034-.012c-1.523-.574-1.941-1.131-1.968-1.289,0-.106.416-.779,2.387-1.436Z" transform="translate(-288.678 -194.316)" fill="currentColor"/>
  <path id="Path_103" data-name="Path 103" d="M227.605,343.849h0l.059-4.479c0-.015,0-.03,0-.046s0-.039,0-.06a2.534,2.534,0,0,0-.057-.528l.057-4.344c0-.016,0-.032,0-.048s0-.039,0-.058a2.516,2.516,0,0,0-.076-.606l.057-4.267c0-.015,0-.031,0-.047s0-.039,0-.06a2.529,2.529,0,0,0-.057-.528l.057-4.344c0-.016,0-.031,0-.046s0-.039,0-.06c0-3.407-6.441-4.96-12.425-4.96a27.254,27.254,0,0,0-8.307,1.158c-3.4,1.135-4.116,2.694-4.116,3.8v0l.019,4.686a2.485,2.485,0,0,0-.019.288v0l.019,4.755v.223l.019,4.686a2.475,2.475,0,0,0-.019.288v0l.019,4.755v.175c0,.026,0,.054,0,.081,0,0,0,.008,0,.012l.019,4.686a2.371,2.371,0,0,0,.018.713c.227,1.323,1.441,2.4,3.606,3.211l.025.009a23.728,23.728,0,0,0,6.7,1.255h0c.384.023.774.04,1.147.049l.284.007h.036q.291,0,.585.005c.2,0,.4,0,.6-.005h.026c.093,0,.186,0,.268-.006h.012c.384-.01.769-.026,1.148-.049h0a23.781,23.781,0,0,0,6.728-1.263l.034-.013c1.958-.735,3.135-1.7,3.5-2.89a2.7,2.7,0,0,0,.1-.545c0-.011,0-.027,0-.037,0-.05,0-.1,0-.15a2.518,2.518,0,0,0-.061-.548Zm-3.639-15.872.036-.013a11.115,11.115,0,0,0,1.157-.505l-.019,1.443v.362c0,.117-.363.73-2.039,1.369a21.164,21.164,0,0,1-5.974,1.133q-.524.032-1.087.047l-.238.006h-.026c-.368.006-.745.006-1.109,0h-.031l-.225,0h-.021c-.362-.009-.724-.025-1.076-.046a21.383,21.383,0,0,1-5.97-1.124c-1.711-.644-2.081-1.261-2.081-1.379v-.216l-.006-1.6a11.08,11.08,0,0,0,1.184.518l.036.013a29.777,29.777,0,0,0,17.489,0ZM205.283,344.2V344.2l-.007-1.817a11.116,11.116,0,0,0,1.185.519l.034.012-.007,0,.061.023a23.929,23.929,0,0,0,6.631,1.231h.008c.38.023.77.04,1.149.049l.276.006h.044q.291,0,.585,0c.2,0,.4,0,.6,0h.026c.093,0,.185,0,.267-.006h.012c.389-.01.775-.027,1.149-.049h.011a23.857,23.857,0,0,0,6.666-1.243l.011,0,.05-.018a10.961,10.961,0,0,0,1.15-.5l-.019,1.43v.374c0,.12-.372.745-2.093,1.391a23.605,23.605,0,0,1-7.827,1.168,23.846,23.846,0,0,1-7.821-1.159c-1.737-.643-2.127-1.259-2.139-1.395Zm1.144-11.266.023.009a23.71,23.71,0,0,0,6.718,1.26h0c.379.023.769.04,1.147.049l.276.006h.051c.191,0,.384,0,.576,0s.4,0,.6,0h.026c.093,0,.185,0,.268-.006h.011c.386-.01.77-.027,1.142-.049h.008A23.72,23.72,0,0,0,224,332.941l.034-.013a10.824,10.824,0,0,0,1.124-.492l-.019,1.408v.4c0,.117-.363.73-2.039,1.369a21.446,21.446,0,0,1-6.235,1.148h0l-.537.023c-.087,0-.175.006-.262.008h-.022l-.238.006h-.026c-.457.007-.9.006-1.432-.008l-.293-.009c-.191-.006-.381-.016-.578-.026-.1,0-.205-.012-.307-.018l-.376-.027h-.011l-.25-.021a20.129,20.129,0,0,1-5.187-1.065c-1.682-.633-2.07-1.246-2.08-1.374v0l-.007-1.817a11.068,11.068,0,0,0,1.171.513Zm.032,4.983.036.013a22.775,22.775,0,0,0,5.792,1.184l.026,0c.1.009.194.017.284.024l.242.019h.022l.149.009c.113.007.226.014.333.019.2.012.412.022.62.029.11.005.221.009.319.01.332.009.639.013.939.013.2,0,.4,0,.6,0h.026l.267-.006.3-.008.281-.011h.02l.276-.013H217a24.469,24.469,0,0,0,6.988-1.266l.035-.013a10.906,10.906,0,0,0,1.157-.505l-.019,1.443v.362c0,.12-.372.745-2.092,1.391a21.394,21.394,0,0,1-5.922,1.112q-.523.032-1.086.046l-.238.006h-.026c-.368.006-.744.006-1.109,0h-.03l-.228,0h-.019c-.362-.009-.724-.024-1.076-.046a21.59,21.59,0,0,1-5.915-1.1c-1.756-.651-2.137-1.28-2.137-1.4V339l-.006-1.6a10.962,10.962,0,0,0,1.184.518Zm9.383,13.855h-.026c-.368.006-.744.006-1.109,0h-.034l-.224,0h-.019c-.358-.009-.719-.024-1.076-.046a21.448,21.448,0,0,1-5.969-1.122c-1.711-.646-2.082-1.263-2.082-1.38V349l-.006-1.674a10.987,10.987,0,0,0,1.273.56,29.243,29.243,0,0,0,17.358-.014,10.9,10.9,0,0,0,1.248-.553l.006,1.54v.356c0,.117-.363.73-2.04,1.369a21.143,21.143,0,0,1-5.974,1.133q-.53.033-1.087.047c-.081,0-.16,0-.24.006Zm-.62-29.962c6.869,0,9.979,1.929,9.979,2.508v.008c0,.008,0,.019-.005.027-.066.215-.573.762-2.015,1.306l-.034.012a27.416,27.416,0,0,1-15.849,0l-.033-.012c-1.561-.588-1.991-1.165-2.019-1.334,0-.586,3.111-2.515,9.977-2.515Z" transform="translate(-186.654 -271.933)" fill="currentColor"/>
  <path id="Path_104" data-name="Path 104" d="M130.29,56.83a1.224,1.224,0,0,0,1.85-.432l9.672-19.926,7.893,6.072a1.224,1.224,0,0,0,1.59-.084l18.864-17.992a1.223,1.223,0,0,0-1.687-1.77L150.365,39.964l-8.252-6.348a1.223,1.223,0,0,0-1.845.435L130.6,53.972l-9.792-7.6a1.223,1.223,0,0,0-1.877.493L101.81,87.739a1.223,1.223,0,1,0,2.256.945l16.5-39.4Z" transform="translate(-101.715 -22.359)" fill="currentColor"/>
  <path id="Path_105" data-name="Path 105" d="M469.273,163.611l.056-4.265c0-.016,0-.031,0-.047s0-.038,0-.057a2.47,2.47,0,0,0-.075-.6l.056-4.189c0-.015,0-.03,0-.044s0-.04,0-.06a2.491,2.491,0,0,0-.061-.54l-.019-4.779h0l.058-4.4c0-.016,0-.031,0-.047s0-.038,0-.057a2.466,2.466,0,0,0-.057-.52l.056-4.265c0-.016,0-.031,0-.047s0-.038,0-.057a2.461,2.461,0,0,0-.075-.6l.056-4.188c0-.016,0-.031,0-.047s0-.038,0-.057a2.466,2.466,0,0,0-.057-.52l.056-4.265c0-.016,0-.031,0-.047s0-.038,0-.057c0-3.362-6.337-4.894-12.225-4.894-5.807,0-12.047,1.491-12.216,4.759a1.121,1.121,0,0,0-.007.117c0,.006,0,.012,0,.018v.005l.019,4.6a2.41,2.41,0,0,0-.019.284v0l.019,4.67v.172s0,.008,0,.011,0,.007,0,.011v.021a1.223,1.223,0,1,0,2.445,0v-.021s0-.008,0-.011,0-.008,0-.011l-.007-1.749a10.865,10.865,0,0,0,1.125.49l.017.006a23.274,23.274,0,0,0,6.589,1.238h.017c.37.023.754.039,1.13.049.089,0,.178,0,.268.006h.054c.188,0,.376,0,.566,0s.392,0,.589,0h.028c.09,0,.179,0,.26-.006.386-.01.767-.026,1.133-.049h.007a23.309,23.309,0,0,0,6.615-1.242l.036-.014a10.7,10.7,0,0,0,1.071-.467l-.018,1.346v.39c0,.112-.354.7-1.99,1.325a21.078,21.078,0,0,1-6.123,1.127l-.527.023c-.085,0-.171.006-.256.008h-.023c-.085,0-.171,0-.258.006-.442.008-.868.006-1.4-.007h0l-.3-.009c-.187-.006-.374-.015-.566-.026-.1,0-.2-.011-.3-.018l-.369-.027h-.012c-.08-.006-.16-.013-.244-.021-.7-.061-1.377-.147-2.024-.256a1.223,1.223,0,1,0-.407,2.411c.711.12,1.457.215,2.212.281.1.009.193.017.28.023l.24.019h.021l.147.009c.111.007.223.014.326.019.2.012.412.022.6.027h.031c.094,0,.187.007.271.009h.026c.326.009.626.013.916.013.2,0,.392,0,.587,0,.1,0,.193,0,.29-.006l.289-.008.278-.011h.018l.272-.012h.013a24.081,24.081,0,0,0,6.871-1.245l.035-.012a10.89,10.89,0,0,0,1.107-.481l-.018,1.38v.356c0,.115-.363.716-2.041,1.346a21,21,0,0,1-5.811,1.09q-.516.032-1.065.046c-.086,0-.173,0-.259.006-.363.006-.731.006-1.092,0h0l-.242-.006h-.026c-.354-.009-.709-.024-1.055-.046-.88-.053-1.736-.146-2.544-.273a1.223,1.223,0,0,0-.381,2.416c.885.14,1.819.24,2.776.3.376.023.761.039,1.134.049l.3.007c.195,0,.39.005.586.005s.392,0,.586-.005l.29-.006c.384-.01.767-.026,1.14-.049h.013a23.451,23.451,0,0,0,6.55-1.223h0l.056-.02a10.949,10.949,0,0,0,1.1-.478l-.018,1.368v.368c0,.115-.363.715-2.041,1.346a23.172,23.172,0,0,1-7.68,1.146,28.5,28.5,0,0,1-4.42-.33,1.223,1.223,0,0,0-.381,2.416,30.93,30.93,0,0,0,4.8.359,25.273,25.273,0,0,0,8.539-1.3,10.77,10.77,0,0,0,1.2-.528l.006,1.477v.351c0,.112-.354.7-1.99,1.325a20.717,20.717,0,0,1-5.861,1.111c-.346.021-.7.037-1.067.046-.086,0-.171,0-.258.006-.359.006-.721.006-1.091,0h0c-.086,0-.17,0-.254-.006h-.016c-.352-.009-.707-.024-1.056-.046a26.593,26.593,0,0,1-2.7-.3,1.223,1.223,0,0,0-.4,2.413,29.287,29.287,0,0,0,2.945.326c.378.023.762.039,1.131.049l.3.007c.195,0,.391.005.587.005s.393,0,.587-.005c.1,0,.2,0,.289-.006h.013c.378-.01.757-.026,1.127-.049h0a23.359,23.359,0,0,0,6.615-1.242l.036-.014a10.759,10.759,0,0,0,1.071-.467l-.018,1.346v.39c0,.112-.354.7-1.989,1.325a21.025,21.025,0,0,1-6.113,1.126H458.7c-.263.014-.53.023-.8.031-.087,0-.173,0-.259.006-.445.007-.875.006-1.406-.008l-.287-.009q-.282-.009-.557-.026h-.016c-.149-.009-.3-.017-.457-.029l-.186-.014h-.006l-.027,0c-.079-.006-.157-.012-.243-.021-.644-.057-1.274-.134-1.873-.231a1.223,1.223,0,1,0-.391,2.414c.657.107,1.347.192,2.054.254.092.008.186.017.271.023h0l.02,0h0l.021,0c.072.006.143.011.2.014h.017c.15.011.3.02.452.029h.021c.2.012.405.021.611.028.109,0,.217.008.314.01.329.009.63.013.921.013.2,0,.392,0,.586-.005.1,0,.2,0,.293-.007h.008c.284-.008.566-.018.844-.032h.015a24.075,24.075,0,0,0,6.87-1.245l.035-.013a10.942,10.942,0,0,0,1.107-.481l-.018,1.38v.356c0,.472-2.362,2.1-7.852,2.436q-.509.031-1.064.046l-.234,0h-.027c-.361.006-.731.006-1.087,0h-.034l-.209,0h-.029c-.358-.009-.714-.024-1.056-.046a26.662,26.662,0,0,1-2.783-.312,1.223,1.223,0,1,0-.406,2.411,29.191,29.191,0,0,0,3.04.342c.371.023.756.039,1.134.049l.268.006h.054c.188,0,.377,0,.566,0s.392,0,.589,0h.027c.09,0,.18,0,.261-.006.39-.01.775-.027,1.142-.049l.066,0a23.246,23.246,0,0,0,6.545-1.238,10.8,10.8,0,0,0,1.109-.482l-.019,1.4v.337c0,.174-.561.845-2.366,1.461a23.688,23.688,0,0,1-7.355,1.031,27.911,27.911,0,0,1-5.091-.447,1.223,1.223,0,1,0-.454,2.4,30.475,30.475,0,0,0,5.544.488,26.167,26.167,0,0,0,8.146-1.162,11.546,11.546,0,0,0,1.586-.666l-.011,1.894a1.217,1.217,0,0,0-.048.336c0,.112-.354.7-1.989,1.325a21.058,21.058,0,0,1-6.122,1.127c-.263.014-.529.023-.806.031-.086,0-.172,0-.258.006-.447.008-.876.006-1.414-.008-.086,0-.172,0-.258-.008h-.021c-.188-.006-.374-.015-.556-.025-.155-.009-.308-.018-.471-.03l-.193-.014-.028,0c-.081-.006-.161-.013-.243-.021-.643-.056-1.273-.134-1.873-.231a1.223,1.223,0,1,0-.391,2.414c.659.107,1.348.192,2.047.253l.276.023h.018l.229.017c.16.011.323.021.489.031q.3.018.611.028c.109,0,.218.009.314.01.329.009.63.013.921.013.2,0,.393,0,.586-.005.1,0,.2,0,.29-.007h.014c.283-.008.563-.017.84-.032h.015a24.08,24.08,0,0,0,6.871-1.245l.035-.012a10.79,10.79,0,0,0,1.1-.476l-.008,1.377v.354c0,.472-2.362,2.1-7.851,2.436q-.512.032-1.065.046c-.087,0-.173,0-.259.006-.362.006-.731.006-1.092,0l-.269-.006c-.357-.009-.712-.024-1.056-.046a26.782,26.782,0,0,1-2.783-.312,1.223,1.223,0,1,0-.406,2.411,28.92,28.92,0,0,0,3.04.342c.372.022.757.039,1.134.049l.3.007q.292,0,.586.005c.2,0,.392,0,.586-.005l.291-.006c.388-.01.772-.027,1.142-.049l.07,0a23.287,23.287,0,0,0,6.542-1.237,10.78,10.78,0,0,0,1.109-.482l-.019,1.4v.337c0,.174-.561.844-2.366,1.461a23.683,23.683,0,0,1-7.355,1.031,27.911,27.911,0,0,1-5.091-.447,1.223,1.223,0,1,0-.454,2.4,30.429,30.429,0,0,0,5.544.489,26.167,26.167,0,0,0,8.146-1.162c3.323-1.135,4.021-2.679,4.021-3.775v-.321l.059-4.421c0-.015,0-.029,0-.044s0-.04,0-.06a2.511,2.511,0,0,0-.055-.516l.023-4c.01-.064.021-.127.026-.19a1.224,1.224,0,0,0-.022-.352l.03-5.21a1.208,1.208,0,0,0-.029-.27v-.058l.059-4.422c0-.016,0-.031,0-.047s0-.038,0-.057a2.788,2.788,0,0,0-.06-.517Zm-11.655-26.42h-.029c-.361.006-.731.006-1.087,0h-.034l-.207,0h-.03c-.358-.009-.714-.024-1.056-.046a21,21,0,0,1-5.857-1.1c-1.677-.631-2.03-1.24-2.03-1.334v-.213l-.006-1.535a10.907,10.907,0,0,0,1.132.493l.037.013a29.294,29.294,0,0,0,17.194,0l.035-.013a10.931,10.931,0,0,0,1.107-.481l-.018,1.38v.356c0,.112-.354.7-1.989,1.324a20.727,20.727,0,0,1-5.827,1.109l-.032,0h0c-.339.021-.7.036-1.064.046-.077,0-.155,0-.233.006Zm-7.964-8.77a27.49,27.49,0,0,1,14.785,0c1.972.658,2.387,1.331,2.387,1.429v.006a.138.138,0,0,1,0,.022c-.064.208-.557.738-1.966,1.268l-.033.012a26.9,26.9,0,0,1-15.552,0l-.034-.012c-1.523-.574-1.94-1.131-1.968-1.289,0-.105.415-.777,2.386-1.435Z" transform="translate(-390.025 -108.577)" fill="currentColor"/>
</svg>
