<svg xmlns="http://www.w3.org/2000/svg" width="529.813" height="534.436" viewBox="0 0 529.813 534.436">
  <g id="Group_50" data-name="Group 50" transform="matrix(0.695, 0.719, -0.719, 0.695, 210.227, -90.884)">
    <g id="Group_49" data-name="Group 49" transform="translate(60.683 68.259)">
      <g id="Group_48" data-name="Group 48">
        <path id="Path_37" data-name="Path 37" d="M60.683,133.281c12.763,8.892,28.281,18.033,37.894,29.968,15,18.621-4.742,45.338,16.305,63,16.869,14.158,16.671,29.525,14.77,50.174-1.492,16.2-2.216,42.81,17.07,46.721,20.487,4.155,34.176-7.861,49.14-22.15,19.565-18.683,52.583-31.073,77.7-20.862,13.039,5.3,26.675,5.352,41.365,4.6,10.561-.537,22.388-2.952,32.017,1.039,11.843,4.909,13.879,19.5,16.6,30.975,4.322,18.225,19.192,40.292,35.313,49.265,25.371,14.124,49.739-23.892,73.49-27.72,19.652-3.167,40.243,13.773,58.125-1.483" transform="translate(-60.683 -86.712)" fill="none" stroke="#906d4e" stroke-width="0.25"/>
        <path id="Path_38" data-name="Path 38" d="M60.683,133.281c12.969,8.867,28.254,17.672,38.645,29.223,15.92,17.7-3.422,44.1,16.723,61.517,16.85,14.563,18.644,26.626,16.682,48.306-1.475,16.292-3.395,43.246,16.4,47.445,20.64,4.378,34.324-8.453,49.792-21.975,21.772-19.034,49.651-31.932,77.53-20.351,13.3,5.523,26.308,6.5,40.944,6.13,10.5-.266,21.894-2.383,31.586,1.451,12.995,5.14,13.675,20.789,16.612,32.762,4.15,16.915,19.02,38.317,34.273,46.258,25.875,13.471,49.3-23.614,73.467-26.618,19.2-2.386,39.433,14.326,57.131-.615" transform="translate(-60.683 -86.712)" fill="none" stroke="#906d4e" stroke-width="0.25"/>
        <path id="Path_39" data-name="Path 39" d="M60.683,133.281c13.17,8.837,28.257,17.347,39.379,28.48,16.8,16.821-2.293,43.344,17.149,60.042,16.709,14.351,20.314,24.9,18.542,46.552-1.339,16.36-4.587,43.588,15.628,48.144,20.852,4.7,34.888-9.217,50.968-21.984A192.271,192.271,0,0,1,234.479,273.7c16.787-8.405,28.441-6.291,44.863,1.184,13.059,5.944,25.924,7.6,40.522,7.571,10.425-.021,21.34-1.806,31.13,1.844,13.2,4.918,13.7,20.425,16.247,32.252,3.577,16.6,18.424,38.049,33.633,45.446,26.462,12.871,49.838-24.38,73.451-25.4,17.338-.753,39.538,14.143,56.144.218" transform="translate(-60.683 -86.712)" fill="none" stroke="#906d4e" stroke-width="0.25"/>
        <path id="Path_40" data-name="Path 40" d="M60.683,133.281c13.365,8.8,28.27,17.05,40.1,27.74,17.741,16.036-.851,42.572,17.6,58.551,16.2,14.031,21.7,23.6,20.29,45.008-1.074,16.359-5.653,43.8,14.792,48.741,21.034,5.085,35.568-9.21,52.424-21.961,9.977-7.547,20.546-16.166,31.788-21.963,16.838-8.683,28.532-4.831,44.552,3.113,12.8,6.349,25.514,8.588,40.089,8.867,10.324.2,20.806-1.228,30.639,2.232,13.405,4.718,13.807,19.951,15.978,31.727,3.022,16.4,17.749,37.608,32.934,44.553,26.97,12.335,48.371-23,73.442-24.082,18.415-.794,37.885,15.328,55.16,1.006" transform="translate(-60.683 -86.712)" fill="none" stroke="#906d4e" stroke-width="0.25"/>
        <path id="Path_41" data-name="Path 41" d="M60.683,133.281c13.553,8.756,28.362,16.775,40.8,27,18.624,15.321.587,41.613,18.109,57.012,15.606,13.715,22.742,22.874,21.867,43.758-.68,16.247-7.138,42.215,13.947,49.175,20.8,6.866,39.019-10.715,54.006-22.074,9.988-7.57,20.02-17.4,31.352-23.248,16.832-8.683,28.938-2.8,44.369,5.444,12.579,6.717,25.069,9.407,39.629,9.968,10.186.392,20.308-.635,30.109,2.632,13.639,4.547,13.978,19.359,15.81,31.187,2.525,16.31,16.981,37.009,32.186,43.591,27.321,11.826,47.945-22.62,73.419-22.679,18.1-.042,37.085,15.78,54.186,1.763" transform="translate(-60.683 -86.712)" fill="none" stroke="#906d4e" stroke-width="0.25"/>
        <path id="Path_42" data-name="Path 42" d="M60.683,133.281c13.733,8.706,28.509,16.512,41.479,26.269,19.537,14.7,2.257,40.584,18.7,55.394,14.682,13.228,23.423,22.854,23.217,42.865-.165,16-7.639,42.076,13.16,49.393,20.512,7.217,41.271-10.876,55.642-22.425,9.634-7.742,19.416-18.783,30.872-24.469,16.774-8.326,29.611-.237,44.308,8.122,12.39,7.047,24.586,10.005,39.132,10.835,10,.57,19.834.008,29.535,3.066,12.721,4.011,14.346,16.956,15.612,28.268,1.954,17.456,14.911,38.071,31.531,44.931,27.484,11.345,47.629-22.208,73.377-21.211,17.776.689,36.3,16.2,53.224,2.494" transform="translate(-60.683 -86.712)" fill="none" stroke="#906d4e" stroke-width="0.25"/>
        <path id="Path_43" data-name="Path 43" d="M60.683,133.281c13.905,8.648,28.7,16.254,42.144,25.539,20.5,14.157,4.1,38.706,19.391,53.659,13.342,13.048,23.743,23.586,24.289,42.371.453,15.61-7.758,41.782,12.5,49.36,20.31,7.6,43.586-11.088,57.261-23.08,9.082-7.964,18.8-20.244,30.394-25.43,16.686-7.464,30.491,2.814,44.357,11.054,21.427,12.733,44.072,8.037,67.5,15,12.911,3.835,14.694,16.194,15.719,27.724,1.552,17.464,14.576,38.7,30.647,43.828,26.557,8.477,46.7-21.721,73.308-19.689,17.378,1.328,35.525,16.6,52.274,3.2" transform="translate(-60.683 -86.712)" fill="none" stroke="#906d4e" stroke-width="0.25"/>
        <path id="Path_44" data-name="Path 44" d="M60.683,133.281c14.071,8.584,28.887,16.047,42.791,24.81,21.4,13.489,6.745,36.577,20.228,51.772,11.229,12.655,23.733,25.01,25.032,42.3,1.127,15-7.432,41.374,12.053,49.052,20.325,8.009,45.752-11.431,58.783-24.055,8.42-8.157,18.231-21.528,29.959-25.951,16.556-6.244,31.4,5.988,44.495,14.109,20.7,12.835,43.124,9.416,66.232,15.893,13.068,3.663,15.131,15.371,15.928,27.161,1.183,17.486,13.449,37.724,29.745,42.687,26.191,7.976,47.1-21.192,73.2-18.126,17.025,2,34.766,16.973,51.336,3.882" transform="translate(-60.683 -86.712)" fill="none" stroke="#906d4e" stroke-width="0.25"/>
        <path id="Path_45" data-name="Path 45" d="M60.683,133.281C74.912,141.8,89.79,149.044,104.1,157.366c22.046,12.817,9.392,34.117,21.371,49.713,8.653,11.266,23.974,26.948,25.273,42.632,1.261,15.232-6.786,40.71,11.9,48.457,20.6,8.538,47.454-11.843,60.124-25.331,7.938-8.451,17.6-22.321,29.61-25.857,16.419-4.834,32.278,9.165,44.689,17.117,19.858,12.722,42.267,10.741,64.851,16.616,14.566,3.789,15.376,16.172,16.216,28.845,1.094,16.5,13.678,34.8,28.86,39.245,12.985,3.8,24.416.533,37.567-5.17,11.013-4.776,23.157-13.313,35.493-11.362,16.65,2.634,34.017,17.324,50.408,4.543" transform="translate(-60.683 -86.712)" fill="none" stroke="#906d4e" stroke-width="0.25"/>
        <path id="Path_46" data-name="Path 46" d="M60.683,133.281c14.381,8.442,29.37,15.51,44.034,23.363,22.356,11.973,12.313,30.738,22.9,47.584,7.786,12.388,22.241,28.719,24.905,43.336,2.573,14.12-5.826,39.851,12.172,47.456,21.528,9.1,48.572-12.3,61.192-26.845,7.581-8.737,16.986-22.415,29.383-24.986,16.312-3.383,32.926,12.013,44.9,19.868,18.929,12.413,41.391,11.867,63.354,17.2,14.75,3.583,16,15.2,16.59,28.209.749,16.547,12.6,33.769,27.987,38.079,13.016,3.648,24.529.557,37.757-4.822,10.882-4.425,23.5-12.744,35.113-10.095,15.316,3.5,33.867,17.255,49.493,5.185" transform="translate(-60.683 -86.712)" fill="none" stroke="#906d4e" stroke-width="0.25"/>
        <path id="Path_47" data-name="Path 47" d="M60.683,133.281c14.528,8.364,29.629,15.261,44.628,22.644,22.336,10.993,15.847,26.716,24.752,45.451,7.108,14.955,19.04,29.458,23.792,44.393,4.265,13.4-4.872,39.127,13.085,46.261,23.252,9.238,48.825-12.732,61.979-28.816,7.572-9.258,16.337-21.6,29.346-23.139,16.421-1.942,33.067,14.094,45.059,22.069,17.951,11.939,40.429,12.572,61.739,17.7,15.02,3.615,16.7,13.852,17.072,27.553.443,16.568,11.533,32.708,27.115,36.9,13.031,3.5,24.631.6,37.919-4.445,10.757-4.08,23.368-11.865,34.711-8.845,15,3.994,33.085,17.618,48.589,5.808" transform="translate(-60.683 -86.712)" fill="none" stroke="#906d4e" stroke-width="0.25"/>
        <path id="Path_48" data-name="Path 48" d="M60.683,133.281c14.669,8.282,29.9,15.009,45.206,21.927,21.882,9.889,20.088,24.449,26.827,43.352,5.727,16.06,14.669,30.426,22.012,45.678,6.365,13.219-3.5,38.27,14.556,45.094,24.8,9.373,48.926-14.021,62.609-31.3,7.746-9.78,15.966-20.189,29.546-20.5,16.642-.382,32.807,15.562,45.084,23.768,17.027,11.381,39.439,13.6,60.008,18.176,13.7,3.046,17.468,11.127,17.8,24.383.44,17.719,8.463,33.708,26.109,38.2,14.281,3.636,26.725-.118,41.307-5.3,9.757-3.469,20.658-9.248,31.029-6.359,15.27,4.254,31.921,18.258,47.7,6.416" transform="translate(-60.683 -86.712)" fill="none" stroke="#906d4e" stroke-width="0.25"/>
        <path id="Path_49" data-name="Path 49" d="M60.683,133.281c14.805,8.2,30.914,14.469,45.767,21.213,20.327,9.231,23.326,21.087,29.107,41.18,4.956,17.226,9.97,31.657,19.622,47.235,7.946,12.827-1.168,37.6,16.524,44.014,26.117,9.474,49.215-16.6,63.139-34.183,7.961-10.051,16.062-18.131,30-17.089,16.846,1.258,32.211,16.323,44.924,24.787,16.244,10.815,38.322,14.636,58.165,18.709,13.794,2.83,18.263,10.078,18.5,23.708.3,17.641,7.363,32.6,25.242,36.984,14.25,3.5,26.8-.018,41.4-4.786,9.652-3.152,20.49-8.474,30.583-5.249,14.859,4.748,31.213,18.548,46.815,7.009" transform="translate(-60.683 -86.712)" fill="none" stroke="#906d4e" stroke-width="0.25"/>
        <path id="Path_50" data-name="Path 50" d="M60.683,133.281c14.939,8.11,31.126,14.212,46.31,20.5,19.532,8.092,26.332,18.854,31.563,38.884,4.753,18.2,5.1,32.816,16.706,49.056,8.834,12.358,2.036,37.265,18.916,43.054,27.124,9.3,49.805-18.949,63.626-37.293,21.758-28.88,54.352-1.628,75.248,11.989,15.69,10.223,36.83,15.765,56.218,19.389,13.85,2.589,19.1,9,19.279,23.013.225,17.492,6.366,31.5,24.406,35.771,14.2,3.362,26.846.092,41.452-4.258,9.552-2.845,20.3-7.706,30.117-4.163,14.443,5.211,30.513,18.826,45.945,7.588" transform="translate(-60.683 -86.712)" fill="none" stroke="#906d4e" stroke-width="0.25"/>
        <path id="Path_51" data-name="Path 51" d="M60.683,133.281c15.068,8.019,31.352,13.952,46.837,19.795,18.651,7.037,29.1,16.9,34.159,36.433,4.822,18.617.3,34.313,13.372,51.109,9.155,11.762,5.867,37.224,21.65,42.213,27.688,8.753,49.218-22.816,64.129-40.392,21.524-25.371,56.073,3.371,75.539,15.852,15.449,9.905,34.869,17.06,54.176,20.325,15.649,2.646,19.886,9.466,19.956,24.733.074,16.248,7.6,28.41,23.788,32.132,14.121,3.247,26.876.208,41.46-3.72,9.46-2.548,20.085-6.944,29.633-3.1,14.022,5.64,29.822,19.1,45.086,8.156" transform="translate(-60.683 -86.712)" fill="none" stroke="#906d4e" stroke-width="0.25"/>
        <path id="Path_52" data-name="Path 52" d="M60.683,133.281c15.194,7.927,31.588,13.69,47.348,19.089,17.763,6.086,31.387,15.18,36.846,33.812,5.45,18.6-4.155,35.927,9.755,53.347a59.157,59.157,0,0,1,11.434,21.448c2.536,8.45,3.179,17.131,13.205,20.022,28.015,8.077,48.7-27.262,64.841-43.007,21.791-21.254,56.582,6.851,75.475,18.641,15.86,9.9,32.451,18.753,52.176,21.775,15.711,2.407,20.773,8.31,20.88,23.984.11,16,6.877,27.358,23.036,30.956,14.046,3.128,26.88.33,41.42-3.177,9.388-2.265,19.84-6.191,29.132-2.071,13.593,6.028,29.138,19.358,44.238,8.714" transform="translate(-60.683 -86.712)" fill="none" stroke="#906d4e" stroke-width="0.25"/>
        <path id="Path_53" data-name="Path 53" d="M60.683,133.281c15.317,7.832,31.832,13.425,47.843,18.387,17.034,5.279,33.121,13.652,39.569,31.025,6.788,18.288-7.958,37.628,6.02,55.7,5.145,6.651,10.4,12.692,13.622,20.6,3.42,8.4,3.519,17.5,14.159,20.169,28.471,7.145,47.162-30.94,65.621-44.925,23.041-17.457,56.6,8.913,75.16,20.4,16.6,10.279,29.7,20.759,50.251,23.6,15.714,2.169,21.653,7.179,21.865,23.223.208,15.672,6.3,26.331,22.331,29.792,13.957,3.015,26.856.456,41.33-2.634,9.321-1.99,19.735-5.5,28.615-1.064,12.825,6.406,28.666,19.483,43.4,9.263" transform="translate(-60.683 -86.712)" fill="none" stroke="#906d4e" stroke-width="0.25"/>
        <path id="Path_54" data-name="Path 54" d="M60.683,133.281c15.437,7.736,32.083,13.157,48.323,17.687,16.634,4.64,34.023,12.291,42.262,28.1,9.193,17.637-10.788,39.408,2.353,58.083,4.777,6.789,11.2,12.579,15.2,20,4.352,8.062,5.185,18.122,15.765,20.014,27.733,4.96,45.571-33.735,66.407-46.086,23.712-14.056,56.194,9.22,74.657,21.234,16.857,10.969,26.922,23.152,48.391,25.779,13.7,1.675,22.076,4.738,23.035,19.677,1.056,16.446,3.307,27.657,21.546,31.419,12.376,2.552,24.267,1.334,37.265-1.253,10.284-2.047,22.3-6.136,32.007-.924,12.46,6.691,27.949,19.765,42.574,9.8" transform="translate(-60.683 -86.712)" fill="none" stroke="#906d4e" stroke-width="0.25"/>
        <path id="Path_55" data-name="Path 55" d="M60.683,133.281c15.555,7.638,32.338,12.886,48.787,16.989,16.729,4.173,34.294,11.332,44.848,25.07,12.184,15.86-12.437,41.635-1.028,60.389,4.444,7.305,11.188,12.726,16.106,19.707,5.176,7.347,7.814,18.445,17.965,19.329,27.405,2.389,43.992-36.686,67.188-46.269,24.414-10.086,55.226,8.236,73.68,21.305,16.216,11.484,24.391,25.719,46.887,28.175,13.614,1.486,22.817,3.786,24.061,18.9,1.316,16,2.967,26.679,21,30.283,12.3,2.458,24.195,1.409,37.1-.832,10.228-1.776,21.954-5.325,31.436.144,12.1,6.979,27.242,20.04,41.759,10.34" transform="translate(-60.683 -86.712)" fill="none" stroke="#906d4e" stroke-width="0.25"/>
        <path id="Path_56" data-name="Path 56" d="M60.683,133.281c15.67,7.54,32.6,12.614,49.237,16.294,17.251,3.815,33.789,10.942,47.242,22,14.9,12.251-11.874,45.505-3.881,62.492,4.126,8.77,12.082,14.717,18.278,21.96,5.209,6.087,9.506,15.775,18.6,15.709,27.649-.2,42.51-38.165,67.994-45.287,24.924-6.967,54.359,6.586,72.442,20.783,15.824,12.424,21.9,28.353,45.56,30.65,13.554,1.317,23.451,2.9,25.053,18.132,1.627,15.468,2.828,25.746,20.579,29.158,12.24,2.353,24.09,1.485,36.877-.417,10.178-1.514,21.591-4.526,30.851,1.185,11.74,7.241,26.544,20.31,40.953,10.871" transform="translate(-60.683 -86.712)" fill="none" stroke="#906d4e" stroke-width="0.25"/>
        <path id="Path_57" data-name="Path 57" d="M60.683,133.281c15.783,7.439,32.855,12.341,49.673,15.6,17.809,3.452,33.789,11.456,49.348,18.98,15.908,7.692-9.07,51.273-5.938,64.249,2.642,10.95,26.455,36.825,39.212,36.023,26.918-1.691,41.348-37.748,68.876-43.328,24.884-5.044,53.992,5.031,71.057,19.75,15.52,13.387,19.357,31.109,44.258,33.259,13.523,1.167,23.974,2.078,25.991,17.355,1.977,14.972,2.9,24.823,20.292,28.055,12.151,2.258,23.952,1.559,36.606-.014,10.136-1.261,21.212-3.736,30.256,2.205,11.376,7.474,25.855,20.575,40.157,11.4" transform="translate(-60.683 -86.712)" fill="none" stroke="#906d4e" stroke-width="0.25"/>
        <path id="Path_58" data-name="Path 58" d="M60.683,133.281c15.893,7.338,33.115,12.067,50.1,14.91,17.686,2.962,33.625,12.584,51.059,16.094,18.334,3.691-6.321,56.062-6.714,65.232-.55,12.835,26.124,36.3,40.435,34.433,12.254-1.6,22.105-12.177,31.326-19.919,11.634-9.768,23.595-17.917,38.578-20.8,24.418-4.69,53.608,3.593,69.833,18.484,7.01,6.433,10.19,19.262,17.214,26.663,6.669,7.027,16.418,8.683,25.652,9.379,15.812,1.19,24.733,2.322,26.99,19.282,1.8,13.557,5.17,21.554,20.013,24.27,12,2.2,23.777,1.631,36.279.375,10.1-1.016,20.822-2.954,29.654,3.205,11.009,7.679,25.175,20.835,39.371,11.921" transform="translate(-60.683 -86.712)" fill="none" stroke="#906d4e" stroke-width="0.25"/>
        <path id="Path_59" data-name="Path 59" d="M60.683,133.281A186.934,186.934,0,0,0,111.189,147.5c17.732,2.512,36.078,12.81,52.266,13.456,20.974.837-2.971,56-5.437,64.331-5.129,17.333,24.4,37.612,39.45,34.449,12.483-2.623,22.369-12.7,32.376-20.219A95.778,95.778,0,0,1,268.929,221.6c24.029-5.252,53.5,2.143,68.925,17.086,7.159,6.936,9.036,20.768,15.8,28.965,6.352,7.695,16.024,9.422,25.491,10.06,15.656,1.054,25.168,1.551,27.962,18.468,2.18,13.2,5.238,20.649,19.82,23.251,11.868,2.118,23.566,1.7,35.9.747,10.084-.779,20.419-2.181,29.049,4.189,10.644,7.857,24.5,21.093,38.594,12.443" transform="translate(-60.683 -86.712)" fill="none" stroke="#906d4e" stroke-width="0.25"/>
        <path id="Path_60" data-name="Path 60" d="M60.683,133.281a177.284,177.284,0,0,0,50.9,13.535c17.728,2.066,35.386,10.177,53.106,10.732,28,.877,1.374,48.795-2.442,62.007-3.628,12.562-2.184,20.408,9.04,28.614,7.883,5.763,17.968,10.048,27.712,7.474,12.785-3.375,23.052-13.031,33.946-20.231,12.605-8.332,24.958-11.9,39.255-15.6,23.473-6.076,52,.815,68.454,15.647,4.346,3.917,7.552,9.869,9.552,15.866q2.285,7.754,4.8,15.438c6,8.447,15.278,10.311,25.129,10.912,15.406.939,25.507.97,28.887,17.656,2.589,12.784,5.292,19.9,19.724,22.266,18.144,2.974,48.215-5.958,63.9,6.254,10.279,8.007,23.841,21.349,37.827,12.964" transform="translate(-60.683 -86.712)" fill="none" stroke="#906d4e" stroke-width="0.25"/>
        <path id="Path_61" data-name="Path 61" d="M60.683,133.281a168.79,168.79,0,0,0,51.293,12.85c17.759,1.629,35.587,8.62,53.537,8.163,8.428-.215,13.588-.99,16.814,7.321,4.78,12.312-10.942,40-14.693,50.883-4.469,12.969-8.623,23.812,3.871,33.2,8.129,6.109,19.122,8.86,28.911,5.946,13.165-3.921,24.041-13.186,35.858-19.986,12.592-7.247,25.469-9.632,39-13.88,22.623-7.1,54.628-.27,68.491,14.238,8.2,8.58,7.592,21.728,12.953,33.557,4.39,9.689,14.773,11.519,24.421,12.055,15.086.839,25.784.594,29.749,16.853,3.02,12.382,5.354,19.222,19.7,21.366,18.167,2.716,47.378-5.172,62.817,7.479,9.957,8.159,23.1,21.544,37.07,13.486" transform="translate(-60.683 -86.712)" fill="none" stroke="#906d4e" stroke-width="0.25"/>
        <path id="Path_62" data-name="Path 62" d="M60.683,133.281a161.231,161.231,0,0,0,51.67,12.167c17.781,1.2,35.642,7.027,53.625,5.748,6.762-.481,16.113-2.532,20.37,4.016,6.881,10.586-8.924,39.821-12.4,49.149-4.254,11.43-13.439,26.747-3.176,37.227,7.729,7.894,21.163,9.273,31.133,6.129,13.6-4.289,25.216-13.171,37.93-19.513,12.352-6.161,25.586-7.922,38.286-12.739,21.805-8.271,55.74-.974,69.068,12.918,7.762,8.09,8.086,19.614,10.844,32,2.934,13.176,11.057,16.469,24.126,17.2,14.838.825,26,.345,30.533,16.062,3.458,12,5.488,18.68,19.709,20.567,18.135,2.406,46.59-4.44,61.744,8.6,9.576,8.239,22.444,21.792,36.32,14.008" transform="translate(-60.683 -86.712)" fill="none" stroke="#906d4e" stroke-width="0.25"/>
        <path id="Path_63" data-name="Path 63" d="M60.683,133.281a154.412,154.412,0,0,0,52.038,11.485c17.765.764,35.51,5.359,53.427,3.484,6.06-.635,18.268-3.4,23.391,1.4,9.38,8.778-5.5,37.643-8.577,45.79-4.165,11.014-16.983,31.475-8.471,42.917,6.659,8.951,21.923,8.425,31.161,5.47,15.492-4.955,28.934-14.672,44.073-20.557,10.815-4.2,22.432-5.685,33.058-10.417,20.832-9.277,57.651-1.279,70.171,11.729,14.064,14.611.941,51.344,32.3,52.91,14.533.726,26.152.2,31.2,15.307,3.891,11.641,5.637,18.21,19.746,19.87,18.216,2.142,45.732-3.874,60.692,9.612,9.194,8.288,21.8,22.039,35.578,14.533" transform="translate(-60.683 -86.712)" fill="none" stroke="#906d4e" stroke-width="0.25"/>
        <path id="Path_64" data-name="Path 64" d="M60.683,133.281a148.277,148.277,0,0,0,52.4,10.805c17.7.334,35.236,3.644,53.007,1.359,6.648-.855,19.319-3.908,25.52-.052,12.213,7.594.126,31.572-3.216,40.7-3.986,10.883-19.87,36.447-13.375,48.571,5.354,9.993,22.258,7.964,30.752,5.268,15.906-5.049,30.135-14.167,45.943-19.51,10.61-3.586,21.49-5.467,31.57-10.465,19.646-9.742,58.057-1.3,71.746,10.7,17.062,14.956-4.335,55.109,29.488,56.626,14.016.629,26.1.217,31.639,14.678,4.325,11.294,5.766,17.8,19.8,19.274,18.437,1.934,44.8-3.5,59.672,10.518,8.827,8.318,21.166,22.285,34.846,15.061" transform="translate(-60.683 -86.712)" fill="none" stroke="#906d4e" stroke-width="0.25"/>
        <path id="Path_65" data-name="Path 65" d="M60.683,133.281a142.631,142.631,0,0,0,52.752,10.126c17.582-.091,34.859,1.905,52.427-.639,7.99-1.157,19.151-3.7,27.024-.785,15.067,5.575,6.621,24.215,3.058,35-3.725,11.275-23.159,42.418-16.659,54.971,4.877,9.42,21.573,6.442,29.059,4.025,25.766-8.318,52.6-19.113,77.771-29.029,20.41-8.042,58.748-2.369,73.251,9.717,17.778,14.815-8.2,58.173,26.546,60.3,13.652.838,25.9.369,31.889,14.151,4.762,10.959,5.866,17.455,19.855,18.78,18.705,1.771,43.893-3.237,58.7,11.321,8.471,8.332,20.54,22.53,34.119,15.593" transform="translate(-60.683 -86.712)" fill="none" stroke="#906d4e" stroke-width="0.25"/>
        <path id="Path_66" data-name="Path 66" d="M60.683,133.281a137.491,137.491,0,0,0,53.1,9.448c17.433-.51,34.414.149,51.75-2.53,8.841-1.367,19.252-3.292,28.123-1.178,16.171,3.853,13.089,16.885,9.677,29.585-2.576,9.584-6.919,19.591-10.816,29.3-2.625,6.539-10.835,20.741-8.482,28.318,3.481,11.207,18.611,8.377,27.382,5.681,26.253-8.069,52.215-19.436,78.633-27.743,10.275-3.231,20.307-3.181,30.907-1.945,13.528,1.577,32.87,1.508,42.947,10.457,19.25,17.1-12.1,61.033,23.543,63.872,10.762.857,24.413.332,31.083,10.5,7.24,11.035,3.631,20.214,20.769,21.618,18.654,1.528,43.373-2.861,57.772,12.022,8.057,8.328,19.925,22.774,33.4,16.128" transform="translate(-60.683 -86.712)" fill="none" stroke="#906d4e" stroke-width="0.25"/>
        <path id="Path_67" data-name="Path 67" d="M60.683,133.281a132.84,132.84,0,0,0,53.439,8.771c17.241-.92,33.942-1.619,51.041-4.337,9.256-1.471,19.535-2.969,28.86-1.254,15.247,2.8,18.519,11.441,16.247,24.831-1.524,8.986-5.58,18.719-9.3,27.954-3.217,7.982-11.44,21.051-10.641,30.059,1.2,13.554,13.782,11.5,24.66,8.35,26.654-7.723,52.91-18.692,79.913-26.114,19.6-5.389,58.408-4.859,73.644,7.238,20.425,16.217-15.353,63.609,20.577,67.239,10.384,1.049,23.941.753,30.737,10.258,7.61,10.644,4.124,19.955,21.013,21.246,18.781,1.435,42.592-2.626,56.908,12.625,7.8,8.312,19.318,23.017,32.689,16.668" transform="translate(-60.683 -86.712)" fill="none" stroke="#906d4e" stroke-width="0.25"/>
        <path id="Path_68" data-name="Path 68" d="M60.683,133.281c16.905,6.282,35.833,9.485,53.777,8.095,17-1.318,33.486-3.4,50.364-6.09,19.867-3.162,51.88-1.912,51.659,20-.176,17.375-15.62,36.994-18.642,56.487-2.352,15.175,9.222,14.615,21.18,11.374,27.138-7.354,53.94-17.129,81.452-24.136,22.3-5.68,55.511-4.047,72.7,6.065,21.622,12.716-18.359,65.525,17.766,70.3,10.1,1.335,23.288,1.274,30.155,10.2,7.9,10.268,4.746,19.684,21.276,20.895,18.937,1.387,41.769-2.419,56.109,13.135,7.625,8.271,18.725,23.257,31.985,17.213" transform="translate(-60.683 -86.712)" fill="none" stroke="#906d4e" stroke-width="0.25"/>
        <path id="Path_69" data-name="Path 69" d="M60.683,132.61c17,6.176,36.193,9.241,54.112,7.419,16.793-1.708,33.078-5.209,49.784-7.821,17.2-2.69,53.28-3.018,57.11,17.875,2.986,16.284-8.96,33.851-14.3,49.979-5.023,15.17-.481,21.948,16.041,17.575,27.661-7.32,55.274-14.929,83.139-21.8,22.362-5.518,52.733-4.153,71.092,5.167,23.787,12.075-20.357,66.974,15.25,72.944,9.786,1.64,22.5,1.882,29.384,10.288,8.112,9.913,5.379,19.424,21.507,20.592,19.023,1.378,41.216-1.929,55.358,13.594,7.359,8.077,18.173,23.455,31.308,17.725" transform="translate(-60.683 -86.041)" fill="none" stroke="#906d4e" stroke-width="0.25"/>
        <path id="Path_70" data-name="Path 70" d="M60.683,131.721c17.1,6.069,36.56,9,54.445,6.742,16.64-2.1,32.766-7.043,49.368-9.569,20.027-3.045,50.974-.623,61.166,17.449,7.323,12.983-4.688,31.929-9.2,45.454-4.288,12.852-5.084,23.843,12.34,19.988,27.541-6.094,56.36-12.5,84.19-19.366,21.808-5.379,48.438-4.054,68.679,4.7,27.983,12.1-21.512,67.569,13.357,75.066,9.483,2.039,21.6,2.565,28.44,10.511,8.244,9.583,5.99,19.186,21.685,20.346,19.044,1.408,40.71-1.417,54.668,14.007,7.124,7.872,17.66,23.611,30.65,18.208" transform="translate(-60.683 -85.152)" fill="none" stroke="#906d4e" stroke-width="0.25"/>
        <path id="Path_71" data-name="Path 71" d="M60.683,130.828c17.2,5.964,36.935,8.747,54.778,6.067,16.567-2.488,32.6-8.919,49.181-11.376,22.969-3.4,48.092,3.09,64.084,18.485,13.276,12.781-22.485,67.052,6.772,61.952,27.253-4.751,56.514-10.093,84.047-17.014,21.165-5.321,46.414-4.067,65.808,4.418,27.893,12.2-19.751,69.451,11.933,76.942,8.908,2.107,20.6,3.312,27.341,10.854,8.3,9.281,6.552,18.974,21.794,20.16,18.985,1.477,40.275-.872,54.042,14.377,6.916,7.661,17.179,23.731,30.007,18.666" transform="translate(-60.683 -84.259)" fill="none" stroke="#906d4e" stroke-width="0.25"/>
        <path id="Path_72" data-name="Path 72" d="M60.683,129.879c17.3,5.859,37.315,8.494,55.112,5.391,16.609-2.9,32.614-10.843,49.292-13.289,23.417-3.435,47.7,6.423,65.858,20.025,12.035,9.016,7.742,22.591,3.948,34.936-2.918,9.495-8.249,25.3,8.286,23.449a607.477,607.477,0,0,0,82.86-15.071c20.845-5.392,44.5-5.859,62.832,4.294,26.373,14.607-17.945,69.806,10.815,78.645,10.042,3.085,20.746,4.754,27.9,13.68,7,8.73,6.444,16.565,20.026,17.66,18.948,1.527,39.838-.332,53.481,14.71,6.675,7.36,16.849,24.01,29.377,19.1" transform="translate(-60.683 -83.31)" fill="none" stroke="#906d4e" stroke-width="0.25"/>
        <path id="Path_73" data-name="Path 73" d="M60.683,128.832c17.407,5.755,37.7,8.236,55.448,4.715,16.8-3.333,32.856-12.819,49.768-15.361,23.332-3.507,49.411,9.492,66.468,21.966,11.6,8.48,13.664,16.209,11.03,31.077-1.629,9.2-7.531,24.4,8.115,24.012,26.647-.664,54.335-6.772,80.776-13.754,20.862-5.51,42.142-6.737,59.908,4.363,25.031,15.641-16.1,70.106,10.034,80.159,9.4,3.618,19.626,5.651,26.556,14.139,6.967,8.535,6.729,16.5,19.942,17.685,18.8,1.68,39.465.195,52.987,15.009,6.519,7.142,16.418,24.1,28.756,19.523" transform="translate(-60.683 -82.263)" fill="none" stroke="#906d4e" stroke-width="0.25"/>
        <path id="Path_74" data-name="Path 74" d="M60.683,127.68c17.516,5.654,38.087,7.97,55.789,4.038,17.188-3.818,33.333-14.81,50.678-17.641,22.8-3.722,48.452,12.87,65.923,24.221,11.159,7.249,18.264,13.834,18.043,28.2-.145,9.349-5.5,23.087,9.049,24.1,26.144,1.818,52.525-6.449,77.934-13.174,21.2-5.611,38.995-7.554,57.219,4.658,25.305,16.957-15.328,69.192,9.587,81.467,8.746,4.309,18.433,6.593,25.087,14.7,6.868,8.366,6.961,16.464,19.78,17.753,18.631,1.874,39.156.7,52.557,15.281,6.365,6.924,16.018,24.158,28.142,19.932" transform="translate(-60.683 -81.11)" fill="none" stroke="#906d4e" stroke-width="0.25"/>
        <path id="Path_75" data-name="Path 75" d="M60.683,126.528c17.63,5.553,38.448,7.678,56.135,3.36s33.841-16.643,51.846-19.865c22.59-4.042,46.841,15.637,64.508,26.41,10.516,6.413,21.873,13.226,24.59,26.383,1.951,9.449-2.421,21.592,11.053,23.756,25.18,4.044,50.771-7.588,74.472-13.334,7.741-1.876,15.72-2.57,23.591-4.6,12.767-3.287,21.772,2.29,31.366,9.8,12.318,9.641,8.6,24.519,6.231,39.224-1.68,10.427-8.218,36.022,3.23,43.326,8,5.1,17.18,7.571,23.511,15.338,6.7,8.224,7.126,16.446,19.532,17.863,18.444,2.107,38.9,1.187,52.188,15.533,6.213,6.709,15.643,24.206,27.533,20.334" transform="translate(-60.683 -79.958)" fill="none" stroke="#906d4e" stroke-width="0.25"/>
        <path id="Path_76" data-name="Path 76" d="M60.683,125.449c17.751,5.454,38.834,7.391,56.488,2.681,18.172-4.848,34.483-18.457,53.128-21.895,23.18-4.274,44.128,17.278,62.506,28.3,10.76,6.454,24.682,13.46,30.249,25.579,4.133,8.994,2.063,20.088,14.091,23.024,23.5,5.738,49.113-9.869,70.526-14.131,7.453-1.484,14.411-3.085,21.9-5.339,12.534-3.769,22.483,3.643,31.09,11.342,11.054,9.889,8.627,24.352,6.755,38.884-1.412,10.962-7.062,35.987,3.208,44.518,7.117,5.912,15.883,8.582,21.847,16.049,6.476,8.108,7.212,16.449,19.194,18.012,18.248,2.381,38.7,1.649,51.875,15.775,6.063,6.5,15.291,24.244,26.926,20.732" transform="translate(-60.683 -78.879)" fill="none" stroke="#906d4e" stroke-width="0.25"/>
        <path id="Path_77" data-name="Path 77" d="M60.683,124.442c17.878,5.357,39.219,7.092,56.85,2,18.639-5.382,35.182-20.215,54.517-23.741,24.322-4.435,41.308,18.261,60.1,29.827,12.479,7.681,27.957,15.018,36.358,27.761,5.07,7.69,6.322,16.863,16.343,19.818,22.021,6.5,46.483-12.012,66.225-15.358,7.272-1.233,13.341-3.882,20.451-6.122,12.622-3.976,23.545,5.208,31.414,13.19,9.688,9.829,8.249,24.734,7.044,38.633-1.049,12.108-5.134,35.6,3.678,45.37,5.034,5.58,12.882,8.427,18.049,14.269,7.257,8.2,8.209,18.9,20.83,20.739,18.114,2.645,38.536,2.088,51.613,16.014,5.912,6.3,14.967,24.274,26.319,21.13" transform="translate(-60.683 -77.873)" fill="none" stroke="#906d4e" stroke-width="0.25"/>
        <path id="Path_78" data-name="Path 78" d="M60.683,123.507c18.013,5.261,39.6,6.781,57.222,1.318,19.111-5.924,35.918-21.905,56-25.419,25.566-4.474,38.849,18.632,57.491,30.949,12.212,8.068,26.957,14.952,37.842,25.433,7.3,7.034,12.287,18.844,22.377,21.4,21.185,5.374,41.31-12.8,61.964-16.7,7.025-1.329,12.629-5.016,19.234-6.928,13.131-3.8,24.91,6.735,32.377,15.285,18.289,20.943-3.572,61.3,11.6,84.377,3.918,5.957,11.555,9.311,16.361,15.089,6.8,8.179,8.134,18.9,20.217,20.93,17.908,3,38.4,2.508,51.39,16.264,5.763,6.1,14.651,24.307,25.71,21.531" transform="translate(-60.683 -76.937)" fill="none" stroke="#906d4e" stroke-width="0.25"/>
        <path id="Path_79" data-name="Path 79" d="M60.683,122.635c18.16,5.169,39.948,6.441,57.606.634,19.646-6.461,36.651-23.528,57.563-26.95,26.551-4.345,37,18.038,54.938,31.651,12.054,9.146,26.922,15.868,39.32,25.37,8.514,6.525,16.752,18.9,27.042,20.661,19.813,3.392,38.892-13.072,57.976-18.013,6.626-1.715,13.813-6.794,20.624-8.08,12.622-2.384,25.45,9.966,31.773,18.169,15.87,20.59,1.411,60.915,12.489,84.546,2.92,6.23,10.187,10.185,14.653,15.926,6.328,8.134,7.979,18.737,19.509,21.146,17.97,3.756,38.029,2.651,51.2,16.536,5.618,5.923,14.34,24.347,25.1,21.94" transform="translate(-60.683 -76.066)" fill="none" stroke="#906d4e" stroke-width="0.25"/>
        <path id="Path_80" data-name="Path 80" d="M60.683,121.821c18.316,5.079,40.321,6.1,58-.053,20.171-7.021,37.425-25.05,59.188-28.357,26.69-4.054,36.478,16.864,52.714,31.94,11.678,10.843,28.28,17.94,42.117,27.293,8.677,5.866,17.96,16.2,28.5,17.426,18.455,2.149,37.519-12.8,54.622-18.814,6.5-2.284,14.288-6.891,21.2-7.816,13.64-1.826,26.508,10.8,32.989,20.04,7.487,10.672,4.579,28.876,5.639,42.358,1.111,14.12,3.582,29.595,7.656,42.177,2.094,6.465,8.805,11,12.944,16.763,5.821,8.108,7.71,18.754,18.713,21.376,17.844,4.252,37.9,3.04,51.024,16.842,5.476,5.758,14.028,24.4,24.477,22.358" transform="translate(-60.683 -75.252)" fill="none" stroke="#906d4e" stroke-width="0.25"/>
        <path id="Path_81" data-name="Path 81" d="M60.683,121.048c18.484,4.991,40.69,5.748,58.418-.742,20.734-7.591,38.19-26.459,60.858-29.667,25.842-3.657,37.426,14.99,51.134,31.846,9.557,11.752,26.851,19,40.595,27.253,9.682,5.81,20.225,14.887,31.8,15.95,16.724,1.536,37.568-13.079,52.52-19.257,23.586-9.744,42.554-7.565,56.712,14.6,7.017,10.986,2.457,28.992,4.267,42.5,1.912,14.272,7,28.618,9.684,41.865,1.352,6.665,7.418,11.733,11.249,17.589,5.289,8.085,7.351,18.768,17.844,21.6,17.71,4.786,37.77,3.453,50.855,17.2,6.048,6.353,13.057,23.374,23.85,22.788" transform="translate(-60.683 -74.479)" fill="none" stroke="#906d4e" stroke-width="0.25"/>
        <path id="Path_82" data-name="Path 82" d="M60.683,120.283c19.291,5.07,40.963,4.825,58.848-1.434,20.978-7.341,38.955-27.8,62.549-30.912,25.042-3.3,39,11.732,50.544,31.427,7.437,12.686,24.461,20.043,37.23,27.156,10.466,5.831,21.842,13.68,34.017,14.61,8.766.67,15.773-3.2,23.382-7.014,9.473-4.752,19.207-8.668,28.676-12.516,23.942-9.733,46.316-5.282,59.736,17.089,6.841,11.4-.059,28.98,2.374,42.791,2.485,14.117,10.482,27.543,12.039,41.282.784,6.911,6.046,12.381,9.585,18.394,4.685,7.961,7.066,18.811,16.917,21.808,17.461,5.313,37.628,3.856,50.675,17.619,5.95,6.275,12.706,23.4,23.215,23.233" transform="translate(-60.683 -73.714)" fill="none" stroke="#906d4e" stroke-width="0.25"/>
        <path id="Path_83" data-name="Path 83" d="M60.683,119.525c19.5,4.988,41.315,4.43,59.3-2.129,21.608-7.88,39.77-29.059,64.236-32.128,24.861-3.118,41.844,9.869,50.942,30.728,8.14,18.663,47.272,39.307,67.673,40.437,8.9.493,15.889-3.667,23.642-7.458a260.31,260.31,0,0,1,29.355-12.125c24.683-8.515,49.869-3.535,63.024,19.582,6.846,12.029-2.8,29.006.007,43.209,2.785,14.069,13.814,26.087,14.655,40.464.621,10.627,13.427,37.663,23.919,41.137,17.188,5.691,37.5,4.4,50.466,18.122,5.848,6.191,12.357,23.456,22.569,23.7" transform="translate(-60.683 -72.955)" fill="none" stroke="#906d4e" stroke-width="0.25"/>
        <path id="Path_84" data-name="Path 84" d="M60.683,118.749c19.73,4.907,41.676,4.024,59.77-2.828C142.7,107.5,161.069,85.7,186.347,82.567c23.578-2.922,42.649,7.186,51.622,29.776,8.621,21.7,39.995,38.52,62.854,39.241,17.824.563,38.3-14.775,55.079-19.36,25.639-7.005,53.3-1.527,66.368,22,7.045,12.686-5.656,29.123-2.746,43.738,2.831,14.22,17.07,25.217,17.442,39.455.274,10.475,10.62,38.045,21.385,41.962,17,6.185,37.393,5.068,50.208,18.724,5.752,6.129,11.994,23.532,21.911,24.177" transform="translate(-60.683 -72.18)" fill="none" stroke="#906d4e" stroke-width="0.25"/>
        <path id="Path_85" data-name="Path 85" d="M60.683,117.915c19.97,4.828,42.025,3.6,60.266-3.531,22.909-8.954,41.335-31.106,67.491-34.635,23.158-3.123,43.948,5.543,52.553,28.585,8.488,22.732,32.79,37.981,57.267,38.226,19.239.193,39.206-15.065,58.041-18.838,26.851-5.379,56.278.834,69.565,24.3,7.512,13.266-8.5,29.309-5.76,44.35,2.63,14.447,20.022,24.741,20.3,38.311.216,10.471,7.855,37.927,18.939,42.642,16.259,6.916,37.34,5.957,49.883,19.445,5.667,6.094,11.609,23.629,21.241,24.68" transform="translate(-60.683 -71.345)" fill="none" stroke="#906d4e" stroke-width="0.25"/>
        <path id="Path_86" data-name="Path 86" d="M60.683,116.988c20.135,4.779,42.481,3.228,60.785-4.238,23.5-9.584,41.989-31.642,69-36.017,22.676-3.674,45.57,4.184,53.719,27.192,3.47,9.8,5.311,17.862,13.8,24.491,9.78,7.636,25.323,13.08,37.546,12.93,20.656-.254,40.98-15.439,61.612-18.026,26.087-3.27,58.979,1.567,72.436,26.449,8.049,14.884-11.216,29.605-8.874,45.007,2.227,14.646,22.527,24.016,22.98,37.182.367,10.667,5.462,37.607,16.761,43.054,15.415,7.429,37.191,6.948,49.466,20.306,5.593,6.086,11.2,23.745,20.556,25.2" transform="translate(-60.683 -70.419)" fill="none" stroke="#906d4e" stroke-width="0.25"/>
        <path id="Path_87" data-name="Path 87" d="M60.683,115.965c20.4,4.706,42.946,2.81,61.333-4.949,23.974-10.117,42.91-32.109,70.376-37.555,21.942-4.35,47.2,2.93,55.107,25.663,3.382,9.72,4.627,19.464,12.789,26.4,8.214,6.974,22.276,10.777,32.7,10.442C315.069,135.251,336,120.525,358.5,119c27.065-1.839,60.266,3.946,74.814,28.461,9.243,15.575-13.663,30.08-11.88,45.658,1.707,14.917,24.52,23.2,25.376,36.1.711,10.735,3.025,37,14.919,43.2,15.274,7.966,36.845,8.029,48.882,21.324,5.531,6.109,10.756,23.883,19.857,25.755" transform="translate(-60.683 -69.396)" fill="none" stroke="#906d4e" stroke-width="0.25"/>
        <path id="Path_88" data-name="Path 88" d="M60.683,114.828c20.69,4.635,43.455,2.389,61.911-5.665,24.358-10.631,43.834-32.595,71.589-39.3,21.2-5.122,48.73,1.8,56.7,24.09,7.629,21.328,13.006,37.923,40.081,36.467,23.441-1.261,45.421-15.308,69.444-15.727,27.52-.479,60.354,5.788,76.529,30.361,10.737,16.311-15.074,30.722-14.191,46.1.9,15.619,25.567,22.493,27.05,35.287,1.249,10.787.9,36.558,13.276,43.227,14.9,8.029,36.616,9.278,48.253,22.364,5.481,6.164,10.283,24.04,19.142,26.329" transform="translate(-60.683 -68.259)" fill="none" stroke="#906d4e" stroke-width="0.25"/>
      </g>
    </g>
  </g>
</svg>
