<svg xmlns="http://www.w3.org/2000/svg" width="24.594" height="19.592" viewBox="0 0 24.594 19.592">
  <g id="Group_67" data-name="Group 67" transform="translate(-127.284 -102.594)">
    <path id="Path_136" data-name="Path 136" d="M139.581,112.558c-1.907,0-3.836.643-3.847,1.871h0V120.3c0,1.235,1.936,1.882,3.848,1.882s3.847-.647,3.847-1.882v-5.874h0c-.011-1.229-1.94-1.871-3.847-1.871Zm2.92,7.745c0,.337-1.108.954-2.92.954s-2.92-.618-2.92-.954v-.689a7.236,7.236,0,0,0,5.84,0Zm0-1.954c0,.336-1.108.954-2.92.954s-2.92-.618-2.92-.954v-.689a7.245,7.245,0,0,0,5.84,0Zm0-1.955c0,.336-1.108.954-2.92.954s-2.92-.618-2.92-.954v-.688a7.243,7.243,0,0,0,5.84,0Zm-2.92-1c-1.812,0-2.92-.617-2.92-.954s1.109-.955,2.92-.955,2.92.618,2.92.955S141.393,115.393,139.581,115.393Zm12.3-4.863c0-1.235-1.936-1.882-3.847-1.882s-3.848.647-3.848,1.882V120.3c0,1.235,1.936,1.882,3.848,1.882s3.847-.647,3.847-1.882v-9.774Zm-.928,9.773c0,.337-1.109.954-2.92.954s-2.92-.618-2.92-.954v-.689a7.238,7.238,0,0,0,5.84,0Zm0-1.954c0,.336-1.109.954-2.92.954s-2.92-.618-2.92-.954v-.689a7.245,7.245,0,0,0,5.84,0Zm0-1.955c0,.336-1.109.954-2.92.954s-2.92-.618-2.92-.954V115.7a7.242,7.242,0,0,0,5.84,0Zm0-1.954c0,.336-1.109.954-2.92.954s-2.92-.618-2.92-.954v-.689a7.236,7.236,0,0,0,5.84,0Zm0-1.955c0,.336-1.109.954-2.92.954s-2.92-.618-2.92-.954V111.8a7.243,7.243,0,0,0,5.84,0Zm-2.92-1c-1.812,0-2.92-.618-2.92-.954s1.109-.954,2.92-.954,2.92.618,2.92.954S149.841,111.484,148.03,111.484Zm-16.9,4.979c-1.913,0-3.848.646-3.848,1.881V120.3c0,1.235,1.936,1.881,3.848,1.881s3.848-.646,3.848-1.881v-1.959c0-1.235-1.936-1.881-3.848-1.881Zm2.92,3.84c0,.336-1.108.954-2.92.954s-2.92-.618-2.92-.954v-.693a7.234,7.234,0,0,0,5.84,0Zm-2.92-1c-1.811,0-2.92-.618-2.92-.954s1.109-.954,2.92-.954,2.92.617,2.92.954S132.943,119.3,131.132,119.3Zm6.134-11.833,4.8,1.018,6.755-4.152.532.866,1.409-2.6-2.959.081.532.866-6.439,3.958-4.8-1.018-8.542,5.251a.464.464,0,0,0-.153.638h0a.464.464,0,0,0,.639.153Z" transform="translate(0)" fill="#906d4e"/>
  </g>
</svg>
