<svg xmlns="http://www.w3.org/2000/svg" width="156.152" height="200.79" viewBox="0 0 156.152 200.79">
  <g id="Group_698" data-name="Group 698" transform="translate(-173.605 -53.178)" opacity="0.1">
    <path id="Path_1260" data-name="Path 1260" d="M234.016,64.364A22.7,22.7,0,0,1,241.043,67c14.14,11.5,15.457,22.835,19.937,39.7,2.547,15.018,4.566,31.354,1.318,44.439a7.292,7.292,0,0,1,.878,6.148c-3.865,13.438-12.559,20.727-20.464,24.152,4.3,14.228,9.836,26.964,16.424,36.624,6.938-6.588,14.228-13.526,20.639-19.059,6.939-6.06,13.526-11.066,19.849-14.228,6.237-3.074,13.087-4.566,18.882-1.229,10.187,5.884,13.261,19.321,10.013,31.881s-13.261,25.031-30.477,29.685c-15.722,4.215-29.423-1.845-39.874-12.647-6.06,5.621-12.12,11.593-17.3,16.073-8.431,6.939-19.5,6.588-28.281,2.547-6.935-4.039-13.874-10.45-17.036-15.632a17.321,17.321,0,0,1-8.958-33.463,17.532,17.532,0,0,1,21.255,12.3,17.1,17.1,0,0,1-3.514,15.457c1.933,4.831,6.851,9.748,12.472,12.3,6.236,2.9,12.559,3.074,17.653-1.055,6.237-5.533,12.3-11.33,17.39-16.161-7.993-11.066-14.052-25.205-18.619-40.663-11.857,2.019-22.835-3.778-30.213-10.8a7.862,7.862,0,0,1-2.107-6.851c-9.134-9.487-16.512-22.749-21.166-37.943-3.6-13.963-10.189-31.354-2.723-44.439a21.984,21.984,0,0,1,4.743-5.709c-3.248-8.782.7-14.491,5.8-16.073,5.27-1.4,10.977,2.812,12.734,9.4,1.845,6.588-1.055,13.087-6.323,14.491a8.563,8.563,0,0,1-5.533-.439,12.651,12.651,0,0,0-2.9,3.337c-4.392,13.965-.351,22.045,3.688,36.535,4.392,14.579,11.681,27.05,19.937,35.043a7.069,7.069,0,0,1,4.215,2.019c6.148,6.411,13.526,7.993,20.639,6.06,5.621-1.494,11.593-4.127,14.843-15.545a7.714,7.714,0,0,1,3.864-4.743c2.723-10.452,2.459-24.241-1.405-39.258C247.632,98.088,247.1,82.1,236.125,75.6a12.106,12.106,0,0,0-4.216-1.582,8.3,8.3,0,0,1-4.48,3.251c-5.357,1.406-11.066-2.723-12.822-9.311s1.055-13.085,6.325-14.579c6.411-1.318,12.032,3.864,13.085,10.979Zm70,129.193c-4.919,2.459-11.066,7.027-17.741,12.822-6.237,5.358-13.965,12.736-20.9,19.41,8.431,8.958,17.829,13,30.125,9.748,13.877-3.776,20.99-13.175,23.45-22.572,2.372-9.4-.527-18-5.445-20.815-3.163-1.406-6.762.088-9.485,1.406Zm-114.79,18a7.4,7.4,0,1,0,9.046,5.27C196.161,212.353,193.35,211.035,189.223,211.561Z" transform="translate(0 0)" fill="#906d4e"/>
  </g>
</svg>
