<svg xmlns="http://www.w3.org/2000/svg" width="12.082" height="11.52" viewBox="0 0 12.082 11.52">
  <g id="Group_714" data-name="Group 714" transform="translate(-103.602 -45.056)">
    <path id="Path_1274" data-name="Path 1274" d="M109.63,45.056a.275.275,0,0,0-.25.19l-1.293,4.008-4.211-.008a.275.275,0,0,0-.162.5l3.412,2.469-1.31,4h0a.275.275,0,0,0,.423.307l3.4-2.483,3.4,2.483h0a.275.275,0,0,0,.423-.307l-1.31-4,3.412-2.469h0a.275.275,0,0,0-.162-.5l-4.211.008L109.9,45.246a.275.275,0,0,0-.273-.19Z" transform="translate(0 0)" fill="#fff" fill-rule="evenodd"/>
  </g>
</svg>
