<svg xmlns="http://www.w3.org/2000/svg" width="21.901" height="20.468" viewBox="0 0 21.901 20.468">
  <path id="Path_1272" data-name="Path 1272" d="M4.857,3.01C3.2,3.01,2,4,2,5.361a2.6,2.6,0,0,0,2.852,2.4A2.57,2.57,0,0,0,7.709,5.334,2.6,2.6,0,0,0,4.857,3.01ZM2.476,8.718A.477.477,0,0,0,2,9.194V23a.477.477,0,0,0,.476.476H7.237A.477.477,0,0,0,7.713,23V9.194a.477.477,0,0,0-.476-.476Zm7.142,0a.477.477,0,0,0-.476.476V23a.477.477,0,0,0,.476.476H13.9A.476.476,0,0,0,14.379,23V15.622a2.136,2.136,0,0,1,1.972-2.133,1.539,1.539,0,0,1,.342,0,2.136,2.136,0,0,1,1.972,2.133V23a.476.476,0,0,0,.476.476h4.285A.477.477,0,0,0,23.9,23V14.908c0-3.08-1.653-6.189-5.338-6.189A6.437,6.437,0,0,0,14.855,9.9V9.194a.477.477,0,0,0-.476-.476Z" transform="translate(-2 -3.01)" fill="#fff"/>
</svg>
