<svg xmlns="http://www.w3.org/2000/svg" width="51.56" height="54.76" viewBox="0 0 51.56 54.76">
  <path id="Path_114" data-name="Path 114" d="M100.087,5.6a.566.566,0,0,0-.566.565V33.834a4.553,4.553,0,0,0-2.486,2.949l-.277,1.035-.648-.173a1.733,1.733,0,0,0-1.422.192,1.843,1.843,0,0,0-.619,2.312,1.736,1.736,0,0,0,1.136.876l2.425.65-.667,1.16L95.6,45.2l-.283.492q-.276-.411-.516-.85l0,.009A1.531,1.531,0,0,0,93.9,44.1h0a1.539,1.539,0,0,0-1.62.5,1.515,1.515,0,0,0-.141,1.685h0a13.183,13.183,0,0,0,7.386,6.238v3.337h0a.565.565,0,0,0,.566.565h2.875V59.3a.565.565,0,0,0,.565.565h33.131a.565.565,0,0,0,.566-.565V53.169a22.539,22.539,0,0,0,3.425-.36,6.621,6.621,0,0,0,1.5-.447,1.787,1.787,0,0,0,.525-.344.959.959,0,0,0,.3-.6.522.522,0,0,0,0-.06V37.773a.547.547,0,0,0,0-.08c0-.03,0-.05,0-.08a.938.938,0,0,0-.3-.66,1.862,1.862,0,0,0-.525-.345,6.65,6.65,0,0,0-1.5-.446,22.286,22.286,0,0,0-3.425-.36V9.609h0a.565.565,0,0,0-.566-.566h-2.875V6.168a.566.566,0,0,0-.565-.565Zm.565,1.13h32V35.971c-.444.05-.86.118-1.232.192a6.592,6.592,0,0,0-1.5.446,1.8,1.8,0,0,0-.525.345.939.939,0,0,0-.3.66c0,.03,0,.05,0,.08h0a.556.556,0,0,0,0,.08v2.887a6.7,6.7,0,0,0-.9-.07,6.3,6.3,0,1,0,2.547,12.056c.209.06.431.111.673.158.373.07.788.138,1.232.192v2.292h-28.98a.57.57,0,0,0-.292,0h-2.729V52.838a13.16,13.16,0,0,0,9.891-1.625h0a1.515,1.515,0,0,0,.726-1.01,1.532,1.532,0,0,0-.221-1.082,1.549,1.549,0,0,0-.874-.676,1.518,1.518,0,0,0-1.231.19q-.415.253-.849.467v-.556l0-2.729,0-1.344a4.551,4.551,0,0,0,5.305-3.275l4.343-16.221h0a1.755,1.755,0,0,0-1.247-2.17,1.617,1.617,0,0,0-.689-.03,1.768,1.768,0,0,0-1.227.823,1.88,1.88,0,0,0-.37.021,2.153,2.153,0,0,0-1.77,1.57l-1.429,5.339a2.152,2.152,0,0,0,1,2.411l-.788,2.943-8.658-2.322a4.44,4.44,0,0,0-1.785-.106c-.045.006-.089.01-.133.021V6.733Zm33.131,3.441h2.31V35.781h-.059c-.793,0-1.548.03-2.252.079Zm-10.116,4.348H109.644a.565.565,0,1,0,0,1.13h14.017a.565.565,0,1,0,.007-1.13Zm-17.845,6.37h0a.565.565,0,1,0,0,1.131h21.662a.565.565,0,0,0,0-1.131Zm10.221,2.994a.561.561,0,0,1,.184.021.608.608,0,0,1,.436.767h0l0,.009-4.345,16.229a3.411,3.411,0,0,1-4.15,2.421l-12.677-3.4h0l-.008,0a.529.529,0,0,1-.4-.289.719.719,0,0,1,.229-.859.531.531,0,0,1,.493-.05h0l.008,0,12.677,3.4a2.168,2.168,0,0,0,2.651-1.54l4.344-16.229h0l0-.009a.608.608,0,0,1,.558-.47Zm-10.221.827h0a.565.565,0,0,0,0,1.13h5a.565.565,0,0,0,0-1.13Zm13.316,0h0a.565.565,0,0,0,0,1.13h8.346a.565.565,0,0,0,0-1.13Zm-4.936.06-1.872,6.992a1,1,0,0,1-.22-.945l1.429-5.339a1,1,0,0,1,.662-.709Zm-8.38,3.762h0a.565.565,0,0,0,0,1.13h4.154a.565.565,0,1,0,0-1.13Zm12.327,0h0a.565.565,0,0,0,0,1.13h9.335a.565.565,0,1,0,0-1.13Zm-1.155,3.822h0a.565.565,0,1,0,0,1.131h10.49a.565.565,0,1,0,0-1.131Zm-15.557,2.182a3.39,3.39,0,0,1,.84.114l8.659,2.322-.32,1.2-8.659-2.322a2.1,2.1,0,0,0-.858-.05,2.177,2.177,0,0,0-1.794,1.593l-.277,1.036-1.179-.316.278-1.036a3.424,3.424,0,0,1,3.31-2.534Zm14.7,1.64h0a.565.565,0,1,0,0,1.13h11.345a.565.565,0,1,0,0-1.13Zm-14.8.719a1.208,1.208,0,0,1,.324.04l8.658,2.323-.277,1.035a.982.982,0,0,1-1.267.741l-8.659-2.321.278-1.035a.976.976,0,0,1,.943-.784Zm34.695.01a23.81,23.81,0,0,1,4.394.361,5.789,5.789,0,0,1,1.172.342,5.784,5.784,0,0,1-1.172.343,26.942,26.942,0,0,1-8.789,0,5.78,5.78,0,0,1-1.173-.343,5.779,5.779,0,0,1,1.173-.342A23.88,23.88,0,0,1,136.036,36.908Zm-5.805,1.835a7.941,7.941,0,0,0,1.191.318,28.067,28.067,0,0,0,9.229,0,7.8,7.8,0,0,0,1.19-.318v2.174a.94.94,0,0,1-.176.1,5.871,5.871,0,0,1-1.234.361,26.942,26.942,0,0,1-8.789,0,7.125,7.125,0,0,1-.719-.173,6.317,6.317,0,0,0-.692-.282ZM123.256,40H115.6a.565.565,0,1,0,0,1.13h7.651a.565.565,0,1,0,.006-1.13Zm4.946,1.72a5.168,5.168,0,1,1-5.169,5.168A5.16,5.16,0,0,1,128.2,41.722Zm-29.442.253,1.232.331-3.041,5.279a10.142,10.142,0,0,1-.888-.916l.521-.907L97.943,43.4l.679-1.182Zm43.08.2v2.174a.94.94,0,0,1-.176.1,5.882,5.882,0,0,1-1.234.36,23.881,23.881,0,0,1-4.394.361c-.432,0-.854-.009-1.261-.03-.1,0-.2-.008-.3-.01h0c-.077,0-.152-.009-.227-.01a6.3,6.3,0,0,0-1.334-2.4,28.936,28.936,0,0,0,3.124.158,24.68,24.68,0,0,0,4.615-.382,7.813,7.813,0,0,0,1.19-.318Zm-40.719.435,3.491.936,0,6.569a9.871,9.871,0,0,1-3.556-.289c-.134-.04-.267-.08-.4-.117V43.422Zm27.071.561h0a.566.566,0,0,0-.557.573v.269a1.884,1.884,0,0,0-.353.1,1.7,1.7,0,0,0-1.007,1.782,1.624,1.624,0,0,0,1.414,1.553h.029c.161.006.317.006.467.006h.016c.142,0,.276,0,.407.006a.607.607,0,0,1,.392.514V48a.71.71,0,0,1-.306.628h0l-.017.006a4.065,4.065,0,0,1-.533.021,2.623,2.623,0,0,1-.543-.03h0l-.015-.006a.551.551,0,0,1-.253-.3h0a.565.565,0,1,0-1.062.387,1.644,1.644,0,0,0,.821.931,1.437,1.437,0,0,0,.539.151v.252a.565.565,0,1,0,1.13,0v-.268a1.879,1.879,0,0,0,.352-.1,1.7,1.7,0,0,0,1.007-1.783,1.623,1.623,0,0,0-1.414-1.552l-.028,0c-.167-.006-.329-.006-.484-.006h0c-.142,0-.276,0-.407-.006a.608.608,0,0,1-.392-.514c0-.007,0-.014,0-.021a.711.711,0,0,1,.307-.628l.015-.007a4.043,4.043,0,0,1,.533-.021,2.625,2.625,0,0,1,.544.03h0l.012.006a.552.552,0,0,1,.253.3h0a.565.565,0,1,0,1.063-.387,1.643,1.643,0,0,0-.818-.929,1.458,1.458,0,0,0-.542-.154v-.251h0a.565.565,0,0,0-.573-.573Zm-14.892.654h0a.565.565,0,0,0,0,1.131h7.516a.565.565,0,0,0,0-1.131Zm-7.559.021,1.232.33v.275l0,1.365,0,2.728,0,1.037a10.118,10.118,0,0,1-1.226.351Zm-12.3,1.311a.464.464,0,0,1,.134.021.393.393,0,0,1,.237.193l0,.009A11.535,11.535,0,0,0,96.7,48.851h0a.574.574,0,0,0,.114.09,10.987,10.987,0,0,0,3.947,1.973,11.2,11.2,0,0,0,8.781-1.319h0l0,0a.3.3,0,0,1,.311-.06.411.411,0,0,1,.234.19.427.427,0,0,1,.067.284c-.015.08-.039.148-.192.238h-.006a11.91,11.91,0,0,1-16.834-4.514v0l0,0a.339.339,0,0,1,.034-.421.345.345,0,0,1,.283-.146Zm6.083.225v3.892a9.878,9.878,0,0,1-1.682-.972Zm42.318.216v2.189a.941.941,0,0,1-.176.1,5.87,5.87,0,0,1-1.234.36,23.888,23.888,0,0,1-4.394.36c-.613,0-1.2-.021-1.763-.05a6.274,6.274,0,0,0,.228-1.675q0-.317-.031-.625c.086,0,.173.009.26.01.422.021.859.03,1.307.03a24.667,24.667,0,0,0,4.614-.382,7.672,7.672,0,0,0,1.19-.319Zm0,3.443v2.189a.941.941,0,0,1-.176.1,5.87,5.87,0,0,1-1.234.36,23.881,23.881,0,0,1-4.394.361,25.606,25.606,0,0,1-3.882-.27,6.338,6.338,0,0,0,1.7-2.118c.685.05,1.418.08,2.184.08a24.709,24.709,0,0,0,4.615-.382,7.751,7.751,0,0,0,1.19-.319ZM133.783,53.1c.7.05,1.46.08,2.252.08h.059v5.542h-32v-2.31h29.125a.565.565,0,0,0,.565-.565Z" transform="translate(-91.662 -5.353)" fill="#906d4e" stroke="#906d4e" stroke-width="0.5"/>
</svg>
