<svg xmlns="http://www.w3.org/2000/svg" width="28.358" height="21.467" viewBox="0 0 28.358 21.467">
  <path id="Exclusion_1" data-name="Exclusion 1" d="M13.645,20.467a72.711,72.711,0,0,1-10.234-.75A3.4,3.4,0,0,1,.545,16.988,39.809,39.809,0,0,1,0,10.234,39.807,39.807,0,0,1,.545,3.48,3.4,3.4,0,0,1,3.411.751,71.342,71.342,0,0,1,13.645,0,71.6,71.6,0,0,1,23.879.751,3.4,3.4,0,0,1,26.744,3.48a38.8,38.8,0,0,1,.614,6.754,46.755,46.755,0,0,1-.614,6.755,3.4,3.4,0,0,1-2.865,2.729A71.3,71.3,0,0,1,13.645,20.467ZM10.916,5.458V15.01L19.1,10.234,10.916,5.458Z" transform="translate(0.5 0.5)" fill="#fff" stroke="rgba(0,0,0,0)" stroke-width="1"/>
</svg>
