<svg xmlns="http://www.w3.org/2000/svg" width="48.028" height="37.772" viewBox="0 0 48.028 37.772">
  <g id="Group_76" data-name="Group 76" transform="translate(-92.025 -77.773)">
    <path id="Path_1042" data-name="Path 1042" d="M93.316,78.166a1.028,1.028,0,0,0-.915,1.044v34.933a1.028,1.028,0,0,0,1.028,1.028h45.208a1.028,1.028,0,1,0,0-2.055H94.456V79.209a1.028,1.028,0,0,0-1.14-1.044ZM133.4,84.86a1.029,1.029,0,1,0,.1,2.055h2.36L120.8,99.309l-4.993-6.357a1.028,1.028,0,0,0-1.4-.209L99,103.531a1.031,1.031,0,0,0,1.188,1.686L114.8,94.99l5.057,6.422a1.028,1.028,0,0,0,1.461.161l16.294-13.421v2.874a1.028,1.028,0,1,0,2.055,0V85.887a1.028,1.028,0,0,0-1.028-1.027H133.5c-.032,0-.064,0-.1,0Z" fill="#fff" stroke="#fff" stroke-width="0.75"/>
  </g>
</svg>
