<svg xmlns="http://www.w3.org/2000/svg" width="7.36" height="10.12" viewBox="0 0 7.36 10.12">
  <g id="Group_701" data-name="Group 701" transform="translate(-163.31 -23.332)">
    <path id="Path_1263" data-name="Path 1263" d="M166.99,23.332a3.684,3.684,0,0,0-3.68,3.68,8.053,8.053,0,0,0,1.768,4.273,18.466,18.466,0,0,0,1.75,2.1h0a.23.23,0,0,0,.325,0,18.483,18.483,0,0,0,1.75-2.1,8.051,8.051,0,0,0,1.767-4.273,3.684,3.684,0,0,0-3.68-3.68Zm0,.46a3.216,3.216,0,0,1,3.22,3.22,7.81,7.81,0,0,1-1.682,4.006,14.8,14.8,0,0,1-1.538,1.846,14.828,14.828,0,0,1-1.537-1.846,7.812,7.812,0,0,1-1.683-4.006,3.216,3.216,0,0,1,3.22-3.22Z" fill="#d2d2d2"/>
    <path id="Path_1264" data-name="Path 1264" d="M269.945,128.31a1.61,1.61,0,1,0,1.61,1.61,1.613,1.613,0,0,0-1.61-1.61Zm0,.46a1.15,1.15,0,1,1-1.149,1.15A1.147,1.147,0,0,1,269.945,128.77Z" transform="translate(-102.955 -102.908)" fill="#d2d2d2"/>
  </g>
</svg>
