<svg xmlns="http://www.w3.org/2000/svg" width="193.728" height="201.021" viewBox="0 0 193.728 201.021">
  <g id="Group_73" data-name="Group 73" opacity="0.1">
    <path id="Path_102" data-name="Path 102" d="M383.9,309.271l.137-10.232c0-.04,0-.076,0-.116s0-.093,0-.14a6.077,6.077,0,0,0-.148-1.32l-.046-11.673v0l.144-10.745c0-.037,0-.071,0-.108s0-.1,0-.146a6,6,0,0,0-.139-1.271l.137-10.419c0-.038,0-.073,0-.111s0-.1,0-.145a6.036,6.036,0,0,0-.183-1.459l.137-10.232c0-.036,0-.071,0-.108s0-.1,0-.148a6.01,6.01,0,0,0-.139-1.269l.137-10.42c0-.036,0-.071,0-.108s0-.1,0-.146c0-8.212-15.48-11.954-29.862-11.954-14.186,0-29.427,3.644-29.839,11.624-.011.094-.015.189-.017.285,0,.015,0,.029,0,.044v.012l.046,11.239a5.872,5.872,0,0,0-.046.693v.018l.046,7.135v.847a2.722,2.722,0,0,1,0,.908v.05a2.987,2.987,0,1,0,5.973,0v-.05a3.024,3.024,0,0,0-.038-.454,2.986,2.986,0,0,0,.038-.454l0-.424a26.576,26.576,0,0,0,2.734,1.189l.041.017a56.955,56.955,0,0,0,16.135,3.028h0c.907.055,1.842.1,2.758.119.244.008.492.013.736.017.475.008.954.013,1.433.013s.957,0,1.432-.013c.244,0,.488-.009.709-.015.94-.024,1.87-.064,2.767-.119H359a56.9,56.9,0,0,0,16.159-3.036c.029-.01.058-.023.087-.035a26.3,26.3,0,0,0,2.618-1.14l-.044,3.288v.953c0,.274-.864,1.713-4.86,3.235A51.5,51.5,0,0,1,358,268.725l-1.292.055c-.212.008-.422.015-.632.018l-.044,0c-.189.006-.38.009-.568.012l-.07,0h0c-1.1.017-2.156.015-3.406-.018h0l-.725-.023c-.457-.016-.914-.037-1.365-.063h0a.072.072,0,0,1-.018,0c-.254-.012-.506-.029-.758-.046l-.875-.064h0l-.028,0c-.2-.014-.394-.032-.594-.05-1.7-.149-3.366-.361-4.945-.626a2.987,2.987,0,0,0-1,5.89c1.734.293,3.557.524,5.408.687.232.021.468.041.678.057l.585.047c.017,0,.034,0,.05,0l.335.021c.28.018.562.037.826.05.491.028.989.052,1.487.069.253.012.5.02.727.023l.027,0h.029c.78.021,1.512.032,2.237.032.478,0,.957,0,1.438-.012l.069,0c.212,0,.424-.007.634-.015.236,0,.472-.012.705-.019l.674-.028a.075.075,0,0,0,.018,0,.208.208,0,0,0,.032,0h0l.658-.03h.011l.021,0a58.8,58.8,0,0,0,16.777-3.042l.09-.032a26.362,26.362,0,0,0,2.7-1.175l-.044,3.371v.87c0,.28-.887,1.748-4.985,3.287a51.239,51.239,0,0,1-14.192,2.664q-1.266.078-2.608.111c-.209.007-.417.01-.629.014-.881.015-1.76.015-2.665,0h0c-.209,0-.414-.006-.62-.014l-.039,0c-.859-.021-1.728-.059-2.579-.111-2.146-.131-4.236-.357-6.216-.669a2.987,2.987,0,0,0-.929,5.9c2.165.341,4.447.587,6.781.73.922.057,1.862.1,2.763.119.242.007.488.012.737.017.476.007.955.012,1.436.012s.959,0,1.434-.012c.245,0,.491-.008.707-.015h.032c.923-.025,1.849-.064,2.752-.119h.02a57.348,57.348,0,0,0,16.013-2.987.211.211,0,0,0,.027-.011l.119-.042a26.469,26.469,0,0,0,2.688-1.169l-.044,3.342v.9c0,.281-.887,1.748-4.986,3.287-4.742,1.78-11.58,2.8-18.759,2.8a69.585,69.585,0,0,1-10.8-.806,2.987,2.987,0,0,0-.93,5.9,75.535,75.535,0,0,0,11.728.879c7.984,0,15.391-1.129,20.859-3.18a26.3,26.3,0,0,0,2.922-1.291l.015,3.607v.857c0,.274-.864,1.713-4.861,3.237a50.626,50.626,0,0,1-14.319,2.714q-1.246.076-2.6.111c-.189.006-.38.009-.568.012l-.07,0h0c-.883.014-1.786.014-2.656,0l-.076,0c-.174,0-.344-.006-.516-.012-.025,0-.047,0-.072,0-.875-.023-1.743-.059-2.58-.111A65.308,65.308,0,0,1,343,303.9a2.987,2.987,0,1,0-.969,5.894,71.346,71.346,0,0,0,7.193.8c.907.055,1.847.1,2.77.119.216.007.436.01.652.015h.134q.688.011,1.382.011c.478,0,.957,0,1.438-.012l.069,0c.22,0,.437-.008.635-.015.95-.025,1.885-.065,2.783-.12h0a57.05,57.05,0,0,0,16.158-3.034c.027-.01.053-.02.079-.032a26.294,26.294,0,0,0,2.624-1.143l-.044,3.289v.952c0,.274-.864,1.713-4.86,3.237a51.427,51.427,0,0,1-14.954,2.752c-.641.034-1.292.055-1.971.075-.209.008-.417.011-.629.014-1.079.018-2.117.015-3.406-.018h0l-.727-.023c-.458-.014-.914-.037-1.357-.061-.378-.021-.753-.044-1.151-.073-.172-.01-.343-.024-.512-.038-.012,0-.026,0-.03,0-.2-.014-.39-.032-.6-.05-1.568-.137-3.106-.328-4.573-.565a2.986,2.986,0,1,0-.955,5.9c1.61.261,3.294.469,4.994.619.231.021.469.042.719.061.2.015.393.032.566.041.391.028.788.052,1.193.075.491.029.99.052,1.493.069.253.012.5.02.727.023h.053c.8.021,1.528.032,2.236.032.48,0,.958,0,1.434-.012.241,0,.483-.008.705-.017h.038c.692-.02,1.376-.042,2.053-.078h.015l.021,0a58.818,58.818,0,0,0,16.783-3.042c.029-.009.057-.02.085-.03a26.756,26.756,0,0,0,2.7-1.175l-.044,3.371v.868c0,1.152-5.769,5.131-19.18,5.951-.829.05-1.7.089-2.6.111-.212.008-.422.011-.632.014-.885.014-1.784.014-2.668,0h0c-.2,0-.39-.008-.583-.014l-.07,0c-.875-.023-1.743-.059-2.58-.111a64.913,64.913,0,0,1-6.8-.762,2.986,2.986,0,1,0-.992,5.89,70.767,70.767,0,0,0,7.426.835c.907.055,1.847.1,2.77.119.244.008.492.012.736.017.476.008.954.012,1.433.012s.957,0,1.433-.012c.244,0,.488-.009.71-.015.952-.024,1.891-.065,2.79-.121.055,0,.112-.007.168-.012a56.852,56.852,0,0,0,15.983-3.022,26.322,26.322,0,0,0,2.708-1.176l-.046,3.416v.825c0,.425-1.37,2.062-5.78,3.569a57.867,57.867,0,0,1-17.967,2.519,68.168,68.168,0,0,1-12.435-1.091,2.986,2.986,0,1,0-1.109,5.869,74.29,74.29,0,0,0,13.543,1.2,63.906,63.906,0,0,0,19.9-2.839c8.118-2.772,9.822-6.545,9.822-9.221v-.785l.143-10.8c0-.038,0-.076,0-.114s0-.093,0-.141a5.982,5.982,0,0,0-.139-1.271l.137-10.419c0-.04,0-.076,0-.116s0-.093,0-.141a5.779,5.779,0,0,0-.18-1.452Zm-28.487-52.4c-.885.014-1.784.014-2.668,0h0c-.2,0-.39-.008-.584-.014l-.07,0c-.872-.021-1.74-.059-2.58-.111a51.243,51.243,0,0,1-14.308-2.693c-4.1-1.542-4.959-3.029-4.959-3.258v-.52l-.015-3.75a26.829,26.829,0,0,0,2.766,1.2l.088.032c5.486,2.033,12.939,3.151,21,3.151s15.512-1.119,21-3.15l.09-.032a26.729,26.729,0,0,0,2.7-1.175l-.044,3.369v.872c0,.274-.864,1.713-4.86,3.235a50.7,50.7,0,0,1-14.318,2.714q-1.251.078-2.6.111c-.21.007-.42.012-.632.015Zm-19.39-21.423a67.152,67.152,0,0,1,36.115,0c4.817,1.608,5.83,3.25,5.83,3.484l0,.021c0,.017-.006.037-.009.052-.157.508-1.361,1.8-4.8,3.1-.029.009-.057.019-.086.03-4.773,1.783-11.7,2.805-19,2.805s-14.222-1.022-19-2.805c-.027-.011-.055-.02-.082-.029-3.721-1.4-4.742-2.762-4.808-3.149,0-.259,1.016-1.9,5.83-3.508Z" transform="translate(-237.412 -147.165)" fill="#906d4e"/>
    <path id="Path_103" data-name="Path 103" d="M263.4,379.169v0l.145-10.942c0-.038,0-.074,0-.113s0-.1,0-.146a6.189,6.189,0,0,0-.14-1.289l.14-10.612c0-.039,0-.078,0-.117s0-.095,0-.142a6.148,6.148,0,0,0-.186-1.48l.14-10.422c0-.038,0-.076,0-.114s0-.1,0-.146a6.179,6.179,0,0,0-.14-1.289l.14-10.612c0-.038,0-.075,0-.113s0-.1,0-.146c0-8.324-15.733-12.115-30.35-12.115a66.574,66.574,0,0,0-20.292,2.828c-8.31,2.773-10.054,6.582-10.054,9.288v.012l.046,11.446a6.066,6.066,0,0,0-.046.7v.012l.047,11.615v.545l.046,11.446a6.049,6.049,0,0,0-.046.7v.012l.047,11.615v.428c0,.064,0,.131,0,.2,0,.01,0,.02,0,.029l.046,11.446a5.792,5.792,0,0,0,.044,1.742c.555,3.232,3.519,5.872,8.808,7.845.02.008.04.015.061.021a57.959,57.959,0,0,0,16.37,3.065h0c.939.057,1.89.1,2.8.12.23.007.46.012.693.017h.089q.711.012,1.428.012c.488,0,.975,0,1.461-.012h.063c.227,0,.454-.008.654-.015h.029c.937-.025,1.879-.064,2.8-.121h0a58.09,58.09,0,0,0,16.435-3.086l.083-.032c4.784-1.8,7.658-4.159,8.551-7.06a6.6,6.6,0,0,0,.25-1.331c0-.027,0-.065.006-.091.006-.123.012-.242.012-.367a6.153,6.153,0,0,0-.149-1.338ZM254.507,340.4c.029-.011.059-.02.089-.032a27.145,27.145,0,0,0,2.827-1.234l-.046,3.525v.884c0,.286-.887,1.783-4.982,3.345a51.7,51.7,0,0,1-14.593,2.767q-1.28.078-2.654.114c-.193.006-.389.011-.582.014l-.064,0c-.9.014-1.82.014-2.708,0l-.073,0h0c-.185,0-.367-.006-.548-.012l-.052,0c-.884-.023-1.769-.061-2.629-.113a52.236,52.236,0,0,1-14.582-2.745c-4.179-1.573-5.084-3.08-5.084-3.367v-.527l-.016-3.91a27.07,27.07,0,0,0,2.891,1.266l.088.032c5.581,2.068,13.163,3.2,21.364,3.2s15.777-1.143,21.357-3.209Zm-45.64,39.636v-.014l-.017-4.439a27.157,27.157,0,0,0,2.9,1.268l.084.031-.017-.006.149.055a58.45,58.45,0,0,0,16.2,3.007h.02c.928.056,1.881.1,2.806.121.224.007.451.012.675.015h.02l.053,0h.034c.474.007.951.012,1.428.012s.975,0,1.461-.012l.062,0c.227,0,.453-.008.652-.015h.029c.95-.025,1.893-.066,2.806-.121h.011l.015,0a58.275,58.275,0,0,0,16.283-3.037l.027-.01.122-.044a26.778,26.778,0,0,0,2.81-1.228l-.046,3.493v.914c0,.293-.91,1.82-5.112,3.4-4.834,1.813-11.8,2.853-19.119,2.853-7.284,0-14.248-1.031-19.105-2.83-4.242-1.571-5.195-3.075-5.224-3.407Zm2.795-27.52.055.021a57.917,57.917,0,0,0,16.411,3.078h.006c.927.057,1.878.1,2.8.121.224.007.451.012.675.015h.018l.053,0h.053c.466.007.937.012,1.406.012.488,0,.974,0,1.461-.012l.063,0c.227,0,.452-.008.653-.015l.021,0h0c.943-.025,1.88-.066,2.789-.121h.018a57.939,57.939,0,0,0,16.437-3.087l.084-.032a26.435,26.435,0,0,0,2.745-1.2l-.046,3.438v.969c0,.287-.887,1.783-4.982,3.345a52.389,52.389,0,0,1-15.23,2.8h-.01l-1.312.056c-.213.008-.427.015-.64.018l-.053,0c-.194.006-.389.011-.582.014l-.064,0c-1.116.018-2.194.015-3.5-.02l-.715-.023c-.466-.015-.931-.038-1.411-.064-.252-.012-.5-.029-.75-.044l-.919-.067h0l-.023,0c-.2-.015-.4-.032-.61-.052a49.171,49.171,0,0,1-12.67-2.6c-4.11-1.545-5.056-3.043-5.082-3.357V355.7l-.017-4.439a27.039,27.039,0,0,0,2.86,1.254Zm.078,12.173.089.032a55.634,55.634,0,0,0,14.148,2.892l.064.006c.235.021.474.042.695.058l.591.047c.018,0,.036,0,.055,0l.364.023c.276.017.553.035.812.047.5.029,1.007.053,1.515.07.27.013.54.021.78.025.811.021,1.56.032,2.293.032.488,0,.975,0,1.461-.012l.062,0c.218,0,.434-.008.652-.015.241,0,.481-.012.722-.02l.686-.027c.017,0,.032,0,.049,0l.674-.032h.011l.021,0a59.771,59.771,0,0,0,17.069-3.094c.029-.011.058-.02.087-.032a26.63,26.63,0,0,0,2.827-1.234l-.046,3.525v.884c0,.293-.91,1.819-5.111,3.4a52.262,52.262,0,0,1-14.466,2.716q-1.277.078-2.653.113c-.194.006-.389.011-.583.014l-.064,0c-.9.015-1.816.015-2.709,0l-.073,0h0c-.188,0-.372-.008-.556-.012a.422.422,0,0,1-.046,0c-.884-.021-1.768-.059-2.627-.113a52.737,52.737,0,0,1-14.448-2.691c-4.29-1.591-5.219-3.127-5.219-3.421l0-.454v-.075l-.015-3.91a26.783,26.783,0,0,0,2.892,1.266Zm22.921,33.844-.064,0c-.9.015-1.816.015-2.708,0l-.072,0H231.8c-.183,0-.365-.006-.547-.012a.438.438,0,0,1-.046,0c-.873-.021-1.757-.059-2.628-.113A52.391,52.391,0,0,1,214,395.665c-4.18-1.577-5.085-3.084-5.085-3.372l0-.454v-.075l-.015-4.088a26.83,26.83,0,0,0,3.11,1.367c5.577,2.065,13.1,3.2,21.182,3.2,8.124,0,15.658-1.149,21.219-3.235a26.645,26.645,0,0,0,3.048-1.351l.015,3.762v.87c0,.286-.887,1.784-4.983,3.345A51.645,51.645,0,0,1,237.9,398.4q-1.3.08-2.654.114c-.2.009-.39.012-.585.015Zm-1.514-73.19c16.778,0,24.376,4.712,24.376,6.126l0,.02c0,.02-.008.046-.013.065-.161.526-1.4,1.862-4.922,3.19l-.082.029c-4.866,1.816-11.922,2.859-19.358,2.859s-14.492-1.042-19.358-2.859c-.027-.011-.053-.02-.081-.029-3.814-1.437-4.863-2.847-4.933-3.258,0-1.432,7.6-6.143,24.372-6.143Z" transform="translate(-163.364 -203.499)" fill="#906d4e"/>
    <path id="Path_104" data-name="Path 104" d="M171.517,106.563a2.989,2.989,0,0,0,4.52-1.056l23.626-48.675,19.28,14.832a2.989,2.989,0,0,0,3.883-.206l46.081-43.951a2.987,2.987,0,0,0-4.122-4.323L220.553,65.364,200.395,49.857a2.986,2.986,0,0,0-4.508,1.063L172.268,99.579,148.349,81.012a2.987,2.987,0,0,0-4.585,1.205l-41.817,99.847a2.987,2.987,0,1,0,5.51,2.309l40.311-96.25Z" transform="translate(-101.715 -22.359)" fill="#906d4e"/>
    <path id="Path_105" data-name="Path 105" d="M504.551,219.37l.137-10.419c0-.038,0-.076,0-.116s0-.093,0-.14a6.029,6.029,0,0,0-.183-1.459l.137-10.232c0-.036,0-.073,0-.108s0-.1,0-.146a6.083,6.083,0,0,0-.148-1.32l-.046-11.673v0l.142-10.746c0-.038,0-.076,0-.116s0-.093,0-.14a6.02,6.02,0,0,0-.139-1.271l.137-10.419c0-.039,0-.076,0-.115s0-.093,0-.14a6.01,6.01,0,0,0-.183-1.458l.137-10.23c0-.04,0-.076,0-.116s0-.093,0-.14a6.028,6.028,0,0,0-.139-1.271l.137-10.419c0-.04,0-.076,0-.116s0-.093,0-.14c0-8.212-15.48-11.954-29.862-11.954-14.186,0-29.427,3.643-29.839,11.624a2.758,2.758,0,0,0-.017.285c0,.015,0,.029,0,.044v.013l.046,11.239a5.9,5.9,0,0,0-.046.693v.012l.046,11.408v.421c0,.009,0,.018,0,.028s0,.018,0,.027v.05a2.987,2.987,0,0,0,5.973,0v-.05c0-.009,0-.018,0-.027s0-.018,0-.028l-.017-4.271a26.542,26.542,0,0,0,2.749,1.2l.041.015a56.851,56.851,0,0,0,16.094,3.023l.032,0h.009c.9.055,1.841.1,2.761.119.216.008.436.011.654.015h.018l.059,0h.055c.459.008.919.011,1.382.011s.957,0,1.438-.012l.069,0c.22,0,.437-.007.635-.015.943-.024,1.875-.064,2.768-.119h.017a56.937,56.937,0,0,0,16.159-3.034c.029-.01.059-.023.088-.035a26.132,26.132,0,0,0,2.616-1.14l-.044,3.289v.953c0,.274-.864,1.713-4.86,3.236a51.488,51.488,0,0,1-14.957,2.752l-1.286.055c-.209.007-.417.015-.626.018l-.055,0c-.209.007-.417.011-.629.014-1.08.018-2.121.015-3.408-.018h0l-.725-.023c-.456-.015-.913-.036-1.384-.064-.247-.012-.491-.027-.733-.044l-.9-.066h0l-.029,0c-.2-.014-.39-.032-.6-.05-1.7-.149-3.365-.36-4.943-.626a2.987,2.987,0,1,0-1,5.89c1.736.293,3.558.524,5.4.686.233.022.471.043.684.057l.587.047.052,0,.358.023c.271.017.544.035.8.047.5.029,1.006.053,1.469.067h.006l.039,0,.031,0c.23.011.457.017.663.021h.063c.8.021,1.528.032,2.237.032.48,0,.958,0,1.434-.012.236,0,.473-.007.708-.015s.473-.012.706-.02l.68-.027.044,0,.664-.03h.011l.021,0a58.823,58.823,0,0,0,16.783-3.042c.029-.009.056-.02.085-.03a26.6,26.6,0,0,0,2.7-1.175l-.044,3.371v.87c0,.281-.887,1.748-4.985,3.287A51.286,51.286,0,0,1,479.3,178.6q-1.262.078-2.6.112c-.21.007-.422.01-.632.014-.886.014-1.785.014-2.668,0h0c-.2,0-.4-.008-.591-.014l-.064,0c-.864-.021-1.731-.06-2.578-.112-2.149-.131-4.24-.357-6.214-.667a2.987,2.987,0,1,0-.93,5.9c2.162.341,4.444.586,6.78.73.919.056,1.859.1,2.771.119.244.008.491.013.736.017.475.008.954.013,1.432.013s.957,0,1.432-.013c.244,0,.488-.009.709-.015.939-.024,1.874-.064,2.786-.12h.009l.023,0a57.286,57.286,0,0,0,16-2.987l.008,0c.046-.015.09-.032.136-.049a26.742,26.742,0,0,0,2.689-1.169l-.044,3.342v.9c0,.28-.887,1.748-4.986,3.287-4.742,1.778-11.58,2.8-18.759,2.8a69.614,69.614,0,0,1-10.8-.806,2.987,2.987,0,0,0-.93,5.9,75.555,75.555,0,0,0,11.728.878c7.984,0,15.393-1.129,20.859-3.18a26.31,26.31,0,0,0,2.921-1.291l.015,3.607v.857c0,.274-.864,1.713-4.861,3.236a50.606,50.606,0,0,1-14.317,2.714c-.844.052-1.711.09-2.607.112-.209.007-.418.011-.63.014-.878.015-1.761.015-2.665,0h0c-.21,0-.416-.006-.622-.014a.322.322,0,0,1-.038,0c-.859-.021-1.728-.06-2.58-.111a64.953,64.953,0,0,1-6.588-.729,2.987,2.987,0,0,0-.969,5.895,71.549,71.549,0,0,0,7.194.8c.922.056,1.862.1,2.763.119.242.008.488.013.739.017.476.008.955.012,1.434.012s.96,0,1.434-.012c.245,0,.491-.007.707-.015h.032c.923-.024,1.848-.064,2.752-.119h0a57.062,57.062,0,0,0,16.158-3.034c.029-.01.058-.023.087-.035a26.3,26.3,0,0,0,2.617-1.14l-.044,3.288v.953c0,.274-.864,1.713-4.86,3.237a51.359,51.359,0,0,1-14.932,2.75.041.041,0,0,0-.014,0h-.006c-.643.034-1.294.055-1.966.075-.212.007-.422.011-.632.014-1.088.017-2.138.015-3.435-.018l-.7-.023q-.688-.023-1.361-.062l-.04,0c-.364-.021-.724-.043-1.117-.071-.153-.009-.3-.021-.454-.034l-.015,0-.066,0c-.192-.014-.383-.03-.595-.05-1.573-.138-3.112-.327-4.575-.565a2.986,2.986,0,1,0-.955,5.9c1.606.261,3.29.468,5.016.62.226.02.454.041.663.055h0l.049,0h.008l.05,0c.175.014.349.028.487.035l.021,0,.015,0h0c.366.026.733.049,1.1.07l.052,0c.491.029.99.052,1.493.069.265.012.53.02.767.025.8.021,1.539.032,2.249.032.479,0,.958,0,1.433-.012.244,0,.488-.009.716-.017h.018c.695-.019,1.382-.044,2.062-.079h.015l.021,0a58.809,58.809,0,0,0,16.781-3.041c.029-.009.057-.02.085-.031a26.724,26.724,0,0,0,2.7-1.175l-.044,3.371v.87c0,1.152-5.77,5.131-19.18,5.951q-1.243.075-2.6.111c-.19.006-.381.009-.571.012l-.067,0c-.882.014-1.786.014-2.656,0l-.078,0h0c-.172,0-.341-.006-.511-.012l-.071,0c-.875-.023-1.744-.059-2.58-.111a65.134,65.134,0,0,1-6.8-.762,2.986,2.986,0,1,0-.992,5.89,71.308,71.308,0,0,0,7.426.835c.907.055,1.847.1,2.771.119.217.007.436.011.654.015h.018l.059,0h.055c.458.007.92.01,1.382.01.478,0,.957,0,1.438-.012l.067,0c.22,0,.439-.008.637-.015.952-.025,1.892-.066,2.79-.121l.161-.011a56.784,56.784,0,0,0,15.987-3.023,26.376,26.376,0,0,0,2.708-1.177l-.046,3.418v.824c0,.425-1.37,2.063-5.78,3.569a57.863,57.863,0,0,1-17.967,2.519,68.177,68.177,0,0,1-12.435-1.091,2.987,2.987,0,1,0-1.109,5.87,74.445,74.445,0,0,0,13.543,1.193,63.919,63.919,0,0,0,19.9-2.839,28.2,28.2,0,0,0,3.873-1.628l-.027,4.626a2.972,2.972,0,0,0-.118.82c0,.274-.864,1.713-4.86,3.237a51.441,51.441,0,0,1-14.954,2.752c-.643.034-1.292.055-1.97.075-.211.007-.419.01-.63.014-1.093.018-2.141.015-3.454-.02-.21,0-.421-.01-.631-.02-.017,0-.034,0-.052,0-.459-.014-.914-.036-1.358-.061-.378-.021-.753-.044-1.151-.073-.158-.009-.314-.021-.473-.035l-.069-.006c-.2-.014-.393-.032-.594-.05-1.569-.137-3.109-.328-4.575-.565a2.986,2.986,0,1,0-.955,5.9c1.609.261,3.293.469,5,.619.23.021.465.041.673.057l.044,0c.2.016.39.031.561.041.392.027.788.052,1.193.075q.738.044,1.494.069c.266.012.532.021.766.025.8.021,1.539.032,2.249.032.48,0,.96,0,1.432-.012.244,0,.486-.007.709-.017h.035c.692-.02,1.376-.043,2.053-.078h.015l.021,0a58.822,58.822,0,0,0,16.783-3.042c.029-.009.056-.02.085-.03a26.361,26.361,0,0,0,2.679-1.163l-.02,3.365v.864c0,1.152-5.769,5.131-19.178,5.951q-1.251.077-2.6.111c-.212.007-.422.011-.632.014-.884.014-1.785.014-2.668,0-.21,0-.425-.008-.658-.015-.872-.021-1.74-.059-2.58-.111a65.424,65.424,0,0,1-6.8-.762,2.986,2.986,0,1,0-.992,5.89,70.638,70.638,0,0,0,7.426.835c.91.055,1.85.1,2.769.119.244.007.491.012.736.016q.713.012,1.432.013c.478,0,.957,0,1.432-.013.244,0,.488-.009.71-.015.948-.024,1.887-.066,2.79-.12l.171-.012a56.886,56.886,0,0,0,15.98-3.022,26.321,26.321,0,0,0,2.708-1.176l-.046,3.417v.824c0,.425-1.37,2.062-5.778,3.569a57.851,57.851,0,0,1-17.967,2.519,68.179,68.179,0,0,1-12.435-1.091,2.986,2.986,0,1,0-1.109,5.869,74.333,74.333,0,0,0,13.543,1.195,63.919,63.919,0,0,0,19.9-2.839c8.118-2.772,9.822-6.545,9.822-9.221v-.785l.143-10.8c0-.037,0-.072,0-.108s0-.1,0-.146a6.141,6.141,0,0,0-.135-1.26l.056-9.761c.025-.155.05-.309.063-.463a3,3,0,0,0-.055-.861l.073-12.726a2.955,2.955,0,0,0-.071-.66v-.142l.143-10.8c0-.039,0-.076,0-.116s0-.093,0-.14a6.806,6.806,0,0,0-.146-1.263Zm-28.469-64.537-.07,0h0c-.882.014-1.786.014-2.656,0l-.078,0h-.006c-.171,0-.338-.006-.506-.012l-.073,0c-.875-.023-1.744-.06-2.58-.111a51.3,51.3,0,0,1-14.306-2.691c-4.1-1.542-4.959-3.029-4.959-3.258v-.521l-.015-3.751a26.646,26.646,0,0,0,2.766,1.2l.09.032c5.486,2.033,12.938,3.15,21,3.15s15.515-1.119,21-3.151c.029-.009.058-.02.085-.031a26.693,26.693,0,0,0,2.7-1.175l-.044,3.371v.87c0,.274-.864,1.713-4.86,3.235a50.632,50.632,0,0,1-14.233,2.709l-.078,0h-.009c-.829.05-1.7.088-2.6.111-.189.009-.378.012-.568.015ZM456.628,133.41a67.152,67.152,0,0,1,36.115,0c4.817,1.608,5.83,3.25,5.83,3.49v.014a.352.352,0,0,1-.011.053c-.156.508-1.361,1.8-4.8,3.1-.028.009-.055.018-.081.029-4.773,1.783-11.7,2.805-19,2.805s-14.223-1.022-19-2.805c-.028-.011-.055-.02-.084-.029-3.72-1.4-4.739-2.762-4.806-3.149,0-.257,1.015-1.9,5.829-3.506Z" transform="translate(-310.969 -84.936)" fill="#906d4e"/>
  </g>
</svg>
