<svg xmlns="http://www.w3.org/2000/svg" width="136.101" height="154.708" viewBox="0 0 136.101 154.708">
  <g id="Group_72" data-name="Group 72" transform="translate(-8.553 25.335) rotate(-16)" opacity="0.4">
    <path id="Path_968" data-name="Path 968" d="M-293.334,341.874l.015.007-.014,0Z" transform="translate(384.449 -299.471)" fill="none"/>
    <path id="Path_969" data-name="Path 969" d="M-288.385,326.455c.061.019.125.037.187.054l-.187-.053Z" transform="translate(374.379 -299.471)" fill="none"/>
    <path id="Path_970" data-name="Path 970" d="M-284.261,408.572c-.051-.032-.1-.06-.154-.087,1.849-.577,3.736-1.048,5.541-1.739,1.729-.663,3.366-1.564,5.045-2.359l1.543-1.111c.089.116.177.234.268.35-.389.325-.776.651-1.166.976a.285.285,0,0,1-.115.1c-1.381,1.134-2.748,2.287-4.144,3.4a18.969,18.969,0,0,1-6.055,3.29A2.361,2.361,0,0,0-284.261,408.572Z" transform="translate(354.229 -299.472)" fill="#fff"/>
    <path id="Path_971" data-name="Path 971" d="M-286.076,418.73a6.022,6.022,0,0,0-1.151-.744c2.886-1.4,5.736-2.89,8.607-4.324l3.606-2.668a10.1,10.1,0,0,1-1.6,2.423,13.108,13.108,0,0,1-2.162,1.921,34.841,34.841,0,0,1-3.179,2.85c-.982.69-1.975,1.415-3.008,2.038A3.958,3.958,0,0,0-286.076,418.73Z" transform="translate(360.037 -299.472)" fill="#fff"/>
    <path id="Path_972" data-name="Path 972" d="M-285.7,413.488a65.73,65.73,0,0,0,10.869-4.021c.474-.3.946-.61,1.419-.914.094.141.187.284.281.425l-2.109,1.561c-.669.565-1.4,1.051-2.111,1.563-.809.577-1.608,1.175-2.434,1.727a17.732,17.732,0,0,1-5.517,2.458A3.136,3.136,0,0,0-285.7,413.488Z" transform="translate(356.633 -299.472)" fill="#fff"/>
    <path id="Path_973" data-name="Path 973" d="M-269.58,429.64a1.644,1.644,0,0,1,1.964-.777c.876.176,1.74.409,2.607.614q.705.064,1.409.124c.245,0,.488,0,.732.009.287-.006.573-.01.86-.017a.239.239,0,0,1,.1.211.365.365,0,0,1,.416.166c-.06.152-.118.3-.178.456a.378.378,0,0,1-.348.172c-.128.063-.253.128-.381.189v0l-1.156.159c-.091-.011-.186-.023-.277-.037-.284-.01-.568-.023-.854-.036l.012-.006h-.005a3.289,3.289,0,0,0-.561.026c-.365.042-.743.123-1.182.176.063.054.124.1.186.145l-.012.04.119.044c.231.087.465.173.7.261l2.033.789c.469.055.937.112,1.406.168l.846.218c-.307.079-.613.16-.919.236-.026.005-.06-.022-.091-.033-.335.017-.674.032-1.011.046l-1.6-.16-1.47-.147a4.023,4.023,0,0,1-2.847-1.176C-269.551,430.953-270.006,430.412-269.58,429.64Z" transform="translate(328.696 -299.472)" fill="#d37d79"/>
    <g id="Group_71" data-name="Group 71" transform="translate(56.833 114.016)">
      <path id="Path_974" data-name="Path 974" d="M-273.118,415.508q.568.042,1.136.079l.856.041,2.277-.062c3.121-.561,6.21-1.232,9.245-2.078a3.136,3.136,0,0,1,.4,2.8,23.93,23.93,0,0,1-9.35.3l-2.931-.413c-.091,0-.182.007-.275.007l-1.106-.306-.833-.31.082-.235Zm3.269.46v-.008l-.01,0Z" transform="translate(273.701 -413.488)" fill="#d37d79"/>
    </g>
    <path id="Path_975" data-name="Path 975" d="M-289.07,425.851q3.709-3.081,7.423-6.16a8.18,8.18,0,0,1,1-.81,1.368,1.368,0,0,1,1.746.12,1.265,1.265,0,0,1,.313,1.7c-.56.971-1.19,1.9-1.788,2.853-.244.384-.713.784-.691,1.153.092,1.58-.829,2.645-1.773,3.648-1.127,1.2-2.308,2.408-4.113,2.563q-1.361.523-2.721,1.051l-.122-.249q.81-.792,1.616-1.584l.015-.01q-1.134.174-2.263.348c-.017-.1-.031-.193-.048-.288.612-.44,1.235-.865,1.824-1.331.1-.075.044-.333.059-.506l-.255.015c-.635.143-1.27.287-1.9.428h0c-.036-.129-.071-.259-.106-.388q1.5-.854,3-1.7c.1-.1.216-.194.326-.287a.9.9,0,0,1-.452.132l-1.75.385-1.364.53c-.051-.119-.1-.24-.148-.361l1.7-.978Z" transform="translate(367.423 -299.472)" fill="#d37d79"/>
    <path id="Path_976" data-name="Path 976" d="M-277.984,427.176c-.685.115-1.356.3-2.035.45l-1,.1c-.612,0-1.226.005-1.838.009-.38-.035-.763-.068-1.143-.1l-1.962-.174c-.344.021-.688.04-1.033.062-.032-.068-.064-.135-.1-.2l1-.052c.77-.131,1.544-.265,2.315-.4,1.931-.662,4.117-.957,5.722-2.082a26.573,26.573,0,0,1,5.559-2.615c.184-.074.37-.145.549-.226l6-2.673q.828-.562,1.658-1.122l.825-.694c.065.077.131.154.2.229-.259.251-.515.5-.771.751a13.992,13.992,0,0,1-4.449,3.731,8.364,8.364,0,0,0-1.3.883A14.776,14.776,0,0,1-277.984,427.176Z" transform="translate(348.149 -299.472)" fill="#d37d79"/>
    <path id="Path_977" data-name="Path 977" d="M-276.075,420.928c.233,0,.465-.009.7-.016q.566.041,1.132.076c1.212-.17,2.433-.293,3.636-.516a20.041,20.041,0,0,0,4.637-1.038q1.541-.7,3.062-1.448a6.022,6.022,0,0,1,1.151.744,3.958,3.958,0,0,1,1.11,1.5,13.231,13.231,0,0,1-2.233,1.11c-3.13,1.162-6.449.94-9.717.373-.109-.034-.222-.066-.335-.1-.268-.034-.546,0-.811-.043-.071-.013-.155-.017-.238-.028h0c-.426-.053-.852-.1-1.278-.156-.28-.034-.56-.067-.84-.1-.141.007-.281.011-.421.015-.249-.076-.5-.142-.744-.233-.02-.008.012-.155.018-.238.2.028.4.055.6.081Z" transform="translate(335.719 -299.472)" fill="#d37d79"/>
    <path id="Path_978" data-name="Path 978" d="M-272.289,410.608c-.272-.082-.545-.167-.819-.25.027-.094.051-.187.075-.281.226.03.45.063.678.093.362.1.725.189,1.088.282l4.376.3c1.936-.445,3.88-.862,5.806-1.347.894-.226,1.751-.6,2.636-.881l.132-.04c.052.027.1.055.154.087a2.361,2.361,0,0,1,.763,2.82,20.956,20.956,0,0,1-9.737.613c-.437-.156-.9-.205-1.348-.32l-.071-.015a1.835,1.835,0,0,1-.288-.067c-.728-.17-1.459-.344-2.187-.514Z" transform="translate(328.131 -299.472)" fill="#d37d79"/>
    <path id="Path_979" data-name="Path 979" d="M-278.162,428.793l-.715.038.61-.426C-278.345,428.566-278.366,428.71-278.162,428.793Z" transform="translate(354.835 -299.472)" fill="#d37d79"/>
    <path id="Path_980" data-name="Path 980" d="M-264.315,400.428c.112-.1.222-.19.326-.29.029.113.055.225.08.337C-264.044,400.461-264.181,400.444-264.315,400.428Z" transform="translate(326.02 -299.472)" fill="#fff"/>
    <path id="Path_981" data-name="Path 981" d="M-219.591,348.575c-.046-.118-.091-.239-.134-.36v-.006C-219.68,348.331-219.638,348.454-219.591,348.575Z" transform="translate(237.112 -299.471)" fill="#fff"/>
    <path id="Path_982" data-name="Path 982" d="M-267.743,384.625c-.151-.225-.3-.452-.448-.677-.07-.105-.141-.208-.213-.314l-.951-1.135a2.044,2.044,0,0,1-1.158.011,2.056,2.056,0,0,1-1.416-2.54,2.042,2.042,0,0,1,.145-.371l-3.043-3.635c-.485-.584-.982-1.156-1.449-1.751-.6-.767-1.178-1.554-1.765-2.332-.076-.11-.152-.219-.227-.325a1.4,1.4,0,0,0-.355-.532,1.581,1.581,0,0,1-.437-.658c-.186-.349-.374-.7-.559-1.05-.193-.3-.385-.6-.579-.9a.131.131,0,0,1-.05-.15q-.552-1.107-1.1-2.211-.408-1.391-.816-2.776-.026-.84-.049-1.68a.762.762,0,0,0,.043-.185c-.17-2.481,1.214-3.5,3.452-2.468a11.459,11.459,0,0,1,2.766,1.716c1.262,1.113,2.37,2.4,3.545,3.612a7.106,7.106,0,0,0,.263-.994c.068-.548.076-1.1.109-1.654-.005-1.74-.044-3.48,0-5.22a1.7,1.7,0,0,1,1.409-1.8,1.756,1.756,0,0,1,1.928,1.086c.186.26.374.517.559.775a6.028,6.028,0,0,1,.753,1.036c.067.1.133.206.2.308.256.317.511.635.767.951q.764,1.328,1.528,2.657c.065.1.13.21.2.315q.871,1.354,1.746,2.709c.46.43.922.858,1.382,1.289,0-.618-.037-1.241.013-1.855.114-1.355.241-2.71.358-4.067.035-.463.074-.926.122-1.39.145-1.641.279-3.286.435-4.927a2.934,2.934,0,0,1,.461-1.194,1.469,1.469,0,0,1,2.61-.172,34.324,34.324,0,0,1,1.8,3.162,5.829,5.829,0,0,0,.768,1.009q.532.7,1.064,1.4l.8.349a6.725,6.725,0,0,1,.29-.945c.735-1.533,1.61-3.011,2.206-4.6a6.242,6.242,0,0,1,1.323-2.127,2.045,2.045,0,0,1-.037-1.238,2.056,2.056,0,0,1,2.54-1.417,2.057,2.057,0,0,1,1.466,1.645c.077.081.154.167.233.264a15.242,15.242,0,0,1,3.5,8.626c.315,4.037-.893,7.741-2.428,11.382a41.814,41.814,0,0,0-3.637,16.687c-.078-.054-.152-.109-.227-.162,0,.069,0,.139,0,.21a49.314,49.314,0,0,0,.651,7.156c.231,1.641.347,3.3.565,4.941-.2.089-.414.172-.622.256q-.252-2.7-.526-5.4c-.056-.555-.2-1.1-.3-1.652q-.174-1.648-.349-3.3l.213-2.094c.031-.107.063-.214.094-.321a31.43,31.43,0,0,1,1.042-10.874,80.521,80.521,0,0,1,2.677-8.369c2.048-3.711,2.664-7.527.9-11.542-.508-1.153-.927-2.344-1.392-3.515a3.373,3.373,0,0,0-.59-1.013,2.047,2.047,0,0,1-.671.754,6.583,6.583,0,0,1,.473.928l.006.017h0l1.119,2.92-.014-.006c.04.094.082.188.12.283,1.795,3.56,1.013,7.028-.375,10.474l-.844,1.782h0c-.018.038-.031.078-.047.116l.014-.006-.566,1.943q-.336,1.027-.67,2.055l-2.121,7.364-.126,3.26q.193,2.277.388,4.553c-.021.017-.033.034-.052.05l.009.014c.017,0,.027,0,.044,0l.009,1.156a.285.285,0,0,0-.029,0l.029.036q.152,1.513.3,3.027h0c-.016.01-.021.024-.036.034.019.027.032.054.052.081q-.037,1.983-.074,3.966c.15,1.2.292,2.4.446,3.6-.117.043-.233.089-.351.13-.192-1.309-.38-2.616-.572-3.922a38.293,38.293,0,0,1-.663-12.948c-.023-1.1-.232-2.226.418-3.24.219-1.08.365-2.183.677-3.239.391-1.335.917-2.63,1.385-3.943.152-.649.307-1.3.46-1.947.147-.623.3-1.245.445-1.868.01-.043.023-.088.033-.134a4.62,4.62,0,0,1-2.711-2.338,13.5,13.5,0,0,1-2.03-5.5,4.961,4.961,0,0,0-.229-.745c-.15.235-.229.369-.317.5-1.015,1.507-2.116,1.594-3.256.189-1.247-1.54-2.435-3.129-3.669-4.719-.075.446-.166.973-.258,1.5-.019.033-.031.066-.047.1a4.28,4.28,0,0,0-.308,1.771,3.114,3.114,0,0,1,.039.71l.009-.029q-.022,1.338-.048,2.674c-.03.472-.061.942-.09,1.414a39.882,39.882,0,0,1-.085,4.167,1.656,1.656,0,0,1-2.868,1.094,3.612,3.612,0,0,1-.625-.635c-1.472-2.047-2.944-4.094-4.387-6.162-.8-1.149-1.555-2.338-2.328-3.51-.107.026-.215.048-.325.073v0c.014.345.025.691.038,1.038a4.975,4.975,0,0,0-.01,1.29c-.018.373-.039.744-.056,1.114q-.137,2.139-.27,4.278v0c0,.041-.006.079-.007.117-.074.929-.725,1.207-1.5,1.274-.527.045-.539.209-.389.676.423,1.323.823,2.657,1.125,4.011a4.329,4.329,0,0,1-.586,3.257,1.084,1.084,0,0,0,.131.963c.508.659,1.025,1.313,1.544,1.965a2.008,2.008,0,0,1,.456.074,2.058,2.058,0,0,1,1.464,2.338c.82,1.043,1.627,2.1,2.393,3.176a24.321,24.321,0,0,1,1.924,4.124l.005.016V388.2q.551,1.395,1.1,2.785.423,1.173.844,2.346c.1.295.192.593.286.887-.127-.036-.252-.08-.378-.12l-.029-.1q-.3-.182-.6-.364c0-.051-.007-.1-.006-.153-.005-.02-.014-.038-.02-.057a2.113,2.113,0,0,0-.19-.443.491.491,0,0,0,.093-.073l-.07-.105a.5.5,0,0,0,.1-.125h0l-.558-1.268A.287.287,0,0,0-263,391.4a.589.589,0,0,0-.058-.039h0q.041-.28.08-.561l-1.392-2.809q-.224-.449-.446-.9l-1.4-2.4a6.681,6.681,0,0,0-.908-1.174l-1.071-1.384-.181-.281a2.05,2.05,0,0,1-.295.287l.8.945-.009.007c.019.014.033.031.053.043a.888.888,0,0,1-.114.123l.483.622a2.276,2.276,0,0,0,.608.876,1.988,1.988,0,0,1,.418.6c.538,1.114,1.073,2.23,1.614,3.342.416.857.839,1.711,1.259,2.566q.36.891.721,1.783h0l.274.481c-.009.092-.013.182-.016.271a14.141,14.141,0,0,1-1.44-.674,60.737,60.737,0,0,0-3.392-8A1.338,1.338,0,0,0-267.743,384.625Zm20.584-12.717,0-.006h0Zm.022-.117h0c.008-.063.021-.125.033-.187C-247.116,371.665-247.127,371.728-247.137,371.791Zm-.9-6.024a1.746,1.746,0,0,0,.425.145c.021-.176.116-.386.053-.522-.749-1.6-1.522-3.194-2.306-4.826C-250.205,362.034-249.163,365.006-248.037,365.767Zm-.37-12.4c-.978,3.981-.941,7.84,1.535,11.355.616.874,1.242.917,1.6-.059a11.77,11.77,0,0,0,.773-3.853,54.278,54.278,0,0,0-.428-5.457c0-.025-.005-.05-.006-.076a.144.144,0,0,0-.022.007l0,0q-.686-1.5-1.373-3.009l-.153-.336a3.7,3.7,0,0,0-1.294.331A1.981,1.981,0,0,0-248.407,353.364Zm-31.585,7.716a3.332,3.332,0,0,0-.2,1.025,15.693,15.693,0,0,0,2.8,6.723c1.172,1.746,2.569,3.341,3.866,5l.249-1.543q-.212-.868-.425-1.737l-.426-1.432c-1.156-2.455-2.132-5.013-4.026-7.046a7.251,7.251,0,0,0-.875-.652A6.016,6.016,0,0,0-279.992,361.08Zm31.227-9.061c.129-.1.263-.2.387-.314l.155-.133a2.039,2.039,0,0,1-.68-.5,3.467,3.467,0,0,0-.281.512c-.079.181-.178.353-.268.529l-1.092,1.766.285.18Zm-22.3,14.395a1.564,1.564,0,0,1,.188-.152.231.231,0,0,0,.023-.021.178.178,0,0,1,.014-.084l0-.027c.082-.746.177-1.491.241-2.239s.1-1.5.143-2.249q-.053-1-.106-2.006l.015-.153.279-2.918.052-.087.036-.059.015-.026a2.061,2.061,0,0,1,.608.317,8.071,8.071,0,0,1,.654.909,1.241,1.241,0,0,0,.334.528l.237.374c.229.383.454.767.688,1.147q1.167,1.9,2.339,3.8a14.951,14.951,0,0,0,1.572,2,12.6,12.6,0,0,1,1.057,1.347c.124.192.2.458.38.562.425.251,1,.693,1.32.566.413-.165.706-.777.916-1.255a4.3,4.3,0,0,0,.117-1.181c.091-.747.2-1.491.3-2.236q.075-.617.152-1.233l.168-1.626q.045-.448.092-.9a1.94,1.94,0,0,1-.012-.3c-.012-.224-.023-.448-.035-.673q-.044-.874-.089-1.749l.022-.025c.034-.035.068-.071.1-.11q-.072-.711-.142-1.424a8.992,8.992,0,0,1,.209-1.254,2.834,2.834,0,0,1,.467-.689,2.841,2.841,0,0,1,.666.5c.827,1.141,1.622,2.306,2.427,3.462a20.066,20.066,0,0,0,1.3,2.189,1.2,1.2,0,0,0,1.964-.069,14.481,14.481,0,0,0,1-2.02q.217-.83.437-1.658l-.262-.094-.587,1.286-.754,1.189-.616.481-.339.266c-.952-1.279-1.893-2.566-2.861-3.832a24.063,24.063,0,0,0-1.755-2.126c-.462-.479-1.364.081-1.541.962a10.585,10.585,0,0,0-.1,1.373q-.16.912-.322,1.825-.388,4.366-.778,8.733c-.02.225-.079.446-.12.668a.848.848,0,0,1-.169.345.75.75,0,0,1-.279.088l-.018-.006a.992.992,0,0,1-.37-.252l-.3-.25a2.25,2.25,0,0,1-.911-1.1l-.206-.341-.148-.241c-.158-.185-.364-.339-.379-.612l-1.727-2.975-.015-.025a.643.643,0,0,1-.034-.064.41.41,0,0,1-.053-.1q-.551-.971-1.1-1.939l-.055-.066-1.233-1.467-.023-.035.005,0a1.206,1.206,0,0,0-.077-.157,2.328,2.328,0,0,0-.282-.36l-.531-.782-.06-.108-.037-.068-.686-.23h-.3c-.3.243-.826.448-.875.735-.209,1.229-.278,2.482-.4,3.727l-.372,1.375-.009.181q-.081,1.52-.16,3.038c-.006.105-.011.209-.017.313l-1.128.317.986,1.381C-271.514,366.882-271.3,366.629-271.064,366.414Zm-1.017,6a17.9,17.9,0,0,0-5.669-11.988,3.357,3.357,0,0,0-.717-.4l-.236.232,1.852,2.538h0a10.928,10.928,0,0,1,3.141,6.213l.52,1.891.2,1.428q.139.926.281,1.851l-.285-.122a.6.6,0,0,0,.285.122C-272.488,373.593-272.03,372.981-272.081,372.414Zm-.823,3.887a44.227,44.227,0,0,1-7.675-11.692,7.1,7.1,0,0,0-.511-.844,4.783,4.783,0,0,1,.73-3.594c.077-.094.028-.291.038-.44-.174.046-.441.037-.5.147-.354.609-.66,1.248-.982,1.877,0,.042,0,.084,0,.126-.006.458-.01.917-.015,1.375v.063l.387.732.468,1.919.026.069q.339.914.679,1.829l.116.313c.02,0,.031.008.05.01a.187.187,0,0,1-.024.018l.121.139.1.111q.2.234.407.466l.168.318.221.417,1.205,1.806.012.018,1.429,1.935h0l.024.03,2.274,2.747.518.48.636.591.026.024h0l.381.287.428.323.882,1.071c.04-.034.081-.065.123-.1a2.131,2.131,0,0,1,.331-.2C-271.522,377.881-272.206,377.085-272.9,376.3Z" transform="translate(321.57 -299.471)" fill="#fff"/>
    <path id="Path_983" data-name="Path 983" d="M-217.816,339.307c0-.125-.011-.251-.015-.376h0c0,.126.01.253.016.38h0Z" transform="translate(233.441 -299.471)" fill="#fff"/>
    <path id="Path_984" data-name="Path 984" d="M-226.909,379.551c.507-2.009,1.69-3.755,2.566-5.623a71.852,71.852,0,0,0,4.108-11.243,30.488,30.488,0,0,0,.528-3.953c.43-3,.78-6.007,1.077-9.018a39.6,39.6,0,0,0-.677-10.334,42.528,42.528,0,0,0-1.737-6.557,6.516,6.516,0,0,0-.549-1.283,69.657,69.657,0,0,0-7.577-11.212,43.243,43.243,0,0,0-8.689-7.6c-2.288-1.49-4.4-3.23-6.81-4.542a43.5,43.5,0,0,0-5.243-2.418,45.438,45.438,0,0,0-13.815-1.505,29.485,29.485,0,0,0-4.787,1.378,14.8,14.8,0,0,1-2.527.58,12.4,12.4,0,0,0-4.8,2.565,1.632,1.632,0,0,0-.575,2.113,5.421,5.421,0,0,1-.1,4.012,14.127,14.127,0,0,1-5.738,6.853,7.662,7.662,0,0,1-5.823,1.076,28.269,28.269,0,0,1,1.518-2.44,16.772,16.772,0,0,0-6.151,4.29q.53-1.209,1.147-2.387a26.657,26.657,0,0,1,7.617-9.243,22.215,22.215,0,0,0,3.475-3.285,9.692,9.692,0,0,1,2.505-1.782,33.018,33.018,0,0,0,4.207-2.672,1.469,1.469,0,0,1,1.4-.294,2.815,2.815,0,0,0,2.72-.523,1.793,1.793,0,0,1,1.211-.414,19.994,19.994,0,0,0,2.122-.07c5.269-1.416,11.149-.718,16.325.752l.483.137a31.873,31.873,0,0,1,5.141,1.737,30.654,30.654,0,0,1,6.638,3.981,13.045,13.045,0,0,0,2.572,1.688c.454.294.895.6,1.33.923q2.45,2.117,4.9,4.236c.113.1.224.2.336.3.113.125.224.249.327.383a.426.426,0,0,0,.046.035.244.244,0,0,0-.02.1,3.419,3.419,0,0,0,1.138,1.587,19.605,19.605,0,0,1,3.948,5.029c.085.112.178.221.269.33,4.272,6.962,5.8,19.845,5.854,20.276-.052,2.824-.221,5.647-.331,8.47a43.061,43.061,0,0,1-.957,5.782,1.512,1.512,0,0,0-.058.909c-.024.066-.04.132-.066.2-1.357,4.5-3.215,8.813-4.923,13.181a33.194,33.194,0,0,0-2.351,13.768c.091,2,.075,4.015.2,6.017a23.847,23.847,0,0,1-2.154,1.782C-228.929,390.2-228.246,384.852-226.909,379.551Z" transform="translate(307.528 -299.471)" fill="#fff"/>
    <path id="Path_985" data-name="Path 985" d="M-227.363,307.589l1.225-1.027c.046.034.09.07.134.107l-.6.511-.657.561A.168.168,0,0,0-227.363,307.589Z" transform="translate(251.163 -299.471)" fill="#2d4668"/>
    <path id="Path_986" data-name="Path 986" d="M-223.232,406.66a67.812,67.812,0,0,1-7.4,1.613,20.385,20.385,0,0,1-9.1-.357,1.224,1.224,0,0,1-1.084-1.089c-.312-1.754-1.408-3.152-2.32-4.606a62.066,62.066,0,0,0-7.064-9.394,36.825,36.825,0,0,0-6.771-5.251q-.562-.372-1.136-.734a12.032,12.032,0,0,1-3.608-2.067,9.537,9.537,0,0,1-1.434-.867c-2.168-1.7-4.3-3.458-6.445-5.193-.044-.137-.076-.282-.117-.42a23.086,23.086,0,0,1-2.955-3.374c-.978-1.126-1.915-2.288-2.88-3.424-.034-.036-.065-.072-.1-.108a.827.827,0,0,0-.278-.593c-1.333-1.515-2.107-3.386-3.232-5.03a3.828,3.828,0,0,0-.759-.922.847.847,0,0,0-.324-.145l0,0q-.42-.783-.84-1.57c-.165-.3-.332-.591-.5-.886a.336.336,0,0,0,.086-.083,4.136,4.136,0,0,0-.916-2.293.731.731,0,0,0-.134-.053q.2-.474-.32-.675l-.041-.019a.194.194,0,0,0,.1-.036,2.782,2.782,0,0,0-.739-2.19.906.906,0,0,0-.145-.066,1.263,1.263,0,0,0-.2-1.506.6.6,0,0,0-.061-.017c.428-.461.27-.915-.037-1.368a.537.537,0,0,0-.1-.036.608.608,0,0,0-.113-.948,2.486,2.486,0,0,0-.333-2.352l-.009,0a2.851,2.851,0,0,0-.262-2.722.025.025,0,0,1,.008-.012,13.692,13.692,0,0,0,.111-4.42c.033-.058.064-.116.1-.167.363-1.621.647-3.257.987-4.883a68.623,68.623,0,0,1,4.033-13.706,16.771,16.771,0,0,1,6.151-4.29,28.269,28.269,0,0,0-1.518,2.44q-.191.344-.372.691c-.038.072-.073.145-.11.217q-.125.243-.245.487c-.041.085-.082.171-.122.256q-.109.229-.215.46-.061.133-.12.267c-.069.154-.136.308-.2.464-.037.088-.075.176-.111.264q-.1.243-.2.487c-.032.082-.065.163-.1.245q-.105.275-.205.552c-.022.062-.046.124-.068.186q-.264.744-.489,1.5c-.024.081-.046.163-.07.244q-.074.252-.143.506c-.028.1-.054.208-.081.312q-.057.219-.111.438-.043.177-.084.354c-.031.131-.06.262-.089.394s-.056.26-.083.39c-.023.115-.046.23-.068.345-.028.146-.057.293-.083.439-.015.083-.028.166-.042.248-.071.415-.136.831-.191,1.249a15.788,15.788,0,0,0-.96,2.1c-.447,1.289-.692,2.647-1.024,3.975a16.02,16.02,0,0,0,0,8.388l.261,1.479.024.134.423,2.4q.153.651.307,1.3l.225.878q.158.521.316,1.039h0l.372.6c-.016-.2-.033-.39-.049-.585q-.108-.435-.214-.869l-.147-.872-.222-1.15q-.095-1.863-.187-3.726.124-2.313.248-4.627c-.021-.357-.042-.713-.064-1.07l.363,0-.033,1.076q.321,1.515.641,3.03c.18.628.3,1.27.426,1.911.044.227.073.532.262.654q.327,1.221.655,2.442c.049.181.126.354.19.531h0c.075.292.149.584.224.876l.63,1.6.307-.092q-.167-.516-.334-1.032-.153-.633-.305-1.267l-.807-4.232c0-.165,0-.33,0-.5.043.121.088.242.134.36a26.13,26.13,0,0,1,7.519-17.794c-2.791,7.848-4.323,16.622-1.43,24.435a26.31,26.31,0,0,1,4.8-14.5,42.638,42.638,0,0,0-1.527,17.35,26.752,26.752,0,0,0,7.479,15.512,59.459,59.459,0,0,0,5.587,4.484,89.561,89.561,0,0,1,8.793,7.635c2.711,2.681,5.524,5.679,8.808,7.434a14.141,14.141,0,0,0,1.44.674,5.562,5.562,0,0,0,1.165,3.229l.15,2.554q.545,2.11,1.09,4.221l.159,1.718.234.893h0l.22-.382c.056-.251.111-.5.167-.753l-.321-1.292a8.052,8.052,0,0,0-1.047-4.351q-.246-1.223-.493-2.445.053-.567.106-1.134l-.012-.04q-.294-.96-.586-1.919c.126.04.251.084.378.12a10.959,10.959,0,0,0,2.312.408c1.407.1,3.169-.429,3.506-1.714a12.841,12.841,0,0,1-3.989,7.224c-.1.1-.214.2-.326.29.134.016.271.033.406.047a25.2,25.2,0,0,0,10.946-1.287c.118-.041.234-.087.351-.13.092.712.188,1.423.3,2.133.051.333.421.618.644.926a4.938,4.938,0,0,0,.132-1.056c-.069-.777-.143-1.554-.216-2.332.208-.084.417-.167.622-.256.1.731.216,1.461.373,2.185.056.259.077.526.158.783.15.483.446.691.886.353a12.544,12.544,0,0,0,3.3-3.157,3.528,3.528,0,0,0,.315-2.8c-.018-.073-.034-.146-.05-.219a23.847,23.847,0,0,0,2.154-1.782c.045.753.112,1.5.211,2.252a3.037,3.037,0,0,0,.128.886c.608,1.288-.046,2.2-.924,2.979C-216.041,402.7-219.181,405.37-223.232,406.66Z" transform="translate(294.381 -299.471)" fill="#d37d79"/>
    <path id="Path_987" data-name="Path 987" d="M-217.716,339.307h0l-.113-.031.1-.348v0C-217.727,339.056-217.721,339.182-217.716,339.307Z" transform="translate(233.341 -299.471)" fill="#d37d79"/>
    <path id="Path_988" data-name="Path 988" d="M-262.881,415.968l-.009,0,.01,0Z" transform="translate(323.566 -299.472)" fill="#2d4668"/>
    <path id="Path_989" data-name="Path 989" d="M-281.556,321.761a14.127,14.127,0,0,0,5.738-6.853,5.421,5.421,0,0,0,.1-4.012,1.632,1.632,0,0,1,.575-2.113,12.405,12.405,0,0,1,4.8-2.565,14.8,14.8,0,0,0,2.527-.58,29.484,29.484,0,0,1,4.787-1.378,45.438,45.438,0,0,1,13.815,1.505,43.5,43.5,0,0,1,5.243,2.418c2.408,1.312,4.522,3.052,6.81,4.542a43.243,43.243,0,0,1,8.689,7.6A69.657,69.657,0,0,1-220.9,331.54a6.516,6.516,0,0,1,.549,1.283,42.528,42.528,0,0,1,1.737,6.557,39.6,39.6,0,0,1,.677,10.334c-.3,3.011-.647,6.021-1.077,9.018a30.488,30.488,0,0,1-.528,3.953,71.852,71.852,0,0,1-4.108,11.243c-.876,1.868-2.059,3.614-2.566,5.623-1.337,5.3-2.02,10.649-.756,16.068.016.073.032.146.05.219a3.528,3.528,0,0,1-.315,2.8,12.544,12.544,0,0,1-3.3,3.157c-.44.338-.736.13-.886-.353-.081-.257-.1-.524-.158-.783-.157-.724-.274-1.454-.373-2.185-.218-1.643-.334-3.3-.565-4.941a49.314,49.314,0,0,1-.651-7.156c0-.071,0-.141,0-.21.075.053.149.108.227.162a41.814,41.814,0,0,1,3.637-16.687c1.535-3.641,2.743-7.345,2.428-11.382a15.242,15.242,0,0,0-3.5-8.626c-.079-.1-.156-.183-.233-.264a2.057,2.057,0,0,0-1.466-1.645,2.056,2.056,0,0,0-2.54,1.417,2.045,2.045,0,0,0,.037,1.238,6.242,6.242,0,0,0-1.323,2.127c-.6,1.584-1.471,3.062-2.206,4.6a6.725,6.725,0,0,0-.29.945l-.8-.349q-.533-.7-1.064-1.4a5.829,5.829,0,0,1-.768-1.009,34.324,34.324,0,0,0-1.8-3.162,1.469,1.469,0,0,0-2.61.172,2.934,2.934,0,0,0-.461,1.194c-.156,1.641-.29,3.286-.435,4.927-.048.464-.087.927-.122,1.39-.117,1.357-.244,2.712-.358,4.067-.05.614-.01,1.237-.013,1.855-.46-.431-.922-.859-1.382-1.289q-.873-1.354-1.746-2.709c-.068-.105-.133-.211-.2-.315q-.767-1.328-1.528-2.657c-.256-.316-.511-.634-.767-.951-.069-.1-.135-.2-.2-.308a6.029,6.029,0,0,0-.753-1.036c-.185-.258-.373-.515-.559-.775a1.756,1.756,0,0,0-1.928-1.086,1.7,1.7,0,0,0-1.409,1.8c-.048,1.74-.009,3.48,0,5.22-.033.553-.041,1.106-.109,1.654a7.106,7.106,0,0,1-.263.994c-1.175-1.213-2.283-2.5-3.545-3.612a11.459,11.459,0,0,0-2.766-1.716c-2.238-1.037-3.622-.013-3.452,2.468a.762.762,0,0,1-.043.185q.024.84.049,1.68.409,1.387.816,2.776.553,1.1,1.1,2.211a.131.131,0,0,0,.05.15c.194.3.386.6.579.9.185.35.373.7.559,1.05a1.581,1.581,0,0,0,.437.658,1.4,1.4,0,0,1,.355.532c.075.106.151.215.227.325.587.778,1.165,1.565,1.765,2.332.467.6.964,1.167,1.449,1.751l3.043,3.635a2.042,2.042,0,0,0-.145.371,2.056,2.056,0,0,0,1.416,2.54,2.044,2.044,0,0,0,1.158-.011l.951,1.135c.072.106.143.209.213.314.15.225.3.452.448.677a1.338,1.338,0,0,1,.333.506,60.737,60.737,0,0,1,3.392,8c-3.284-1.755-6.1-4.753-8.808-7.434a89.563,89.563,0,0,0-8.793-7.635,59.461,59.461,0,0,1-5.587-4.484,26.752,26.752,0,0,1-7.479-15.512,42.638,42.638,0,0,1,1.527-17.35,26.31,26.31,0,0,0-4.8,14.5c-2.893-7.813-1.361-16.587,1.43-24.435a26.13,26.13,0,0,0-7.519,17.794c-.047-.121-.089-.244-.134-.366.015-1.641.019-3.283.06-4.923.053-2.1.145-4.205.22-6.307.5-1.137.979-2.281,1.5-3.408.34-.74.733-1.455,1.1-2.181l.567-.94q.165-.33.328-.66l-.165-.1-.529.721-.44.674-3.459,5.233.09.107.042.051-.47.944q-.192.557-.383,1.115c-.057.262-.114.525-.17.787l-.051-.014c-.006-.127-.012-.254-.016-.38l.087-.31h0c.011-.365.021-.73.032-1.1q.021-.34.043-.682l.179-.2.194-.22.7-2.914.72-1.931.421-1.093q.266-.621.533-1.243.183-.519.367-1.037l-.328-.13q-.266.627-.532,1.253t-.542,1.255l-.387.826-.7,1.368c-.173.356-.358.709-.542,1.061.055-.418.12-.834.191-1.249.014-.082.027-.165.042-.248.026-.146.055-.293.083-.439.022-.115.045-.23.068-.345.027-.13.055-.26.083-.39s.058-.263.089-.394.055-.236.084-.354q.054-.219.111-.438c.027-.1.053-.208.081-.312q.069-.254.143-.506c.024-.081.046-.163.07-.244q.225-.756.489-1.5c.022-.062.046-.124.068-.186q.1-.277.205-.552c.031-.082.064-.163.1-.245q.1-.244.2-.487c.036-.088.074-.176.111-.264.066-.156.133-.31.2-.464q.059-.133.12-.267.105-.231.215-.46c.04-.085.081-.171.122-.256q.12-.244.245-.487c.037-.072.072-.145.11-.217q.182-.348.372-.691A7.662,7.662,0,0,0-281.556,321.761Zm25.806-11.468h0c-.226.053-.23.206-.172.386l1,.551c.059-.084.119-.168.178-.253Zm4.3-1.993a13.236,13.236,0,0,0-1.282-.419l-.085.358a8.392,8.392,0,0,0,1.048.673c.137.063.379-.1.573-.16C-251.273,308.6-251.319,308.353-251.445,308.3Zm-1.105,3.2a4.434,4.434,0,0,0-1.188-.331c-.053.112-.085.161-.077.168a12.253,12.253,0,0,0,1.174,1.063c.13.093.427-.044.647-.076C-252.174,312.036-252.292,311.649-252.55,311.495Zm5.177-1.513a21.867,21.867,0,0,0-2.339-.98c-.1-.035-.393.173-.421.306-.039.18.091.4.14.568.746.394,1.4.766,2.089,1.08a.57.57,0,0,0,.522-.21C-247.3,310.509-247.265,310.036-247.373,309.982Zm-3.693,3.114c.669.407,1.332.822,2.013,1.209.073.042.24-.082.573-.21-.074-.339-.032-.882-.255-1.032a5.972,5.972,0,0,0-1.81-.741C-250.643,312.3-250.889,312.824-251.066,313.1Zm2.081,2.52a7.418,7.418,0,0,0-1.539-.583c-.083-.023-.251.258-.383.4a14.95,14.95,0,0,0,1.382.917c.174.091.447-.009.675-.023C-248.89,316.083-248.851,315.69-248.985,315.616Zm21.606,12.66a3.949,3.949,0,0,0-.578-1.363c-.1-.175-.335-.271-.472-.375-.768.6-1.05,1.05-.479,1.66.18.191.274.461.451.656a9.644,9.644,0,0,0,.74.671A3.569,3.569,0,0,0-227.379,328.276Zm1.463,2.889c-.006-.1.025-.221-.024-.287-.257-.355-.053-1.275-.908-.907-.682.294-.655.939-.312,1.5a11.925,11.925,0,0,0,1.073,1.4c.029.034.255-.1.389-.154Q-225.806,331.94-225.916,331.165Zm1.052,3.8c.111.256.223.511.334.767h0q.192.453.382.906l.281-.106-.237-.917h0l-.247-.589-.556-.736Zm-3.423,2.562h0l.375,1.039h0c.052.318.1.637.156.955l.278-.012q-.053-.609-.106-1.219h0l-.116-.438a1.988,1.988,0,0,0-.123-.561c-.067-.124-.249-.186-.38-.275Zm-1.573-3.256c.3.546.579,1.1.9,1.628.077.123.308.151.468.222.057-.143.2-.311.159-.425-.252-.791-.54-1.571-.816-2.355C-230.08,333.112-229.931,333.72-229.86,334.268Zm-1.146-2.187c.358.624.745.782,1.279.214l-1.326-3.077-1.417.71c.148.2.295.407.443.611C-231.684,331.051-231.312,331.548-231.006,332.081Zm-2.742,1.254c-.166-.7-.3-1.419-.52-2.106-.058-.181-.386-.275-.589-.409-.1.29-.354.635-.273.859a14.714,14.714,0,0,0,.893,1.762l.2.593h0l.5.971.19-.068.063-.023-.067-.278c-.044-.186-.089-.371-.134-.557Q-233.613,333.707-233.748,333.335Zm-.295,7.052a37.041,37.041,0,0,0-2.349-10.788l.275.414c.184.278.669.605.92.54.587-.15.517-.641.28-1.125-.947-1.928-1.876-3.864-2.812-5.8-.044-.168-.089-.336-.133-.5l.384.295,4.471,5.571c1.081-.035,1.329-.307,1.2-1.311l-3.148-5.368-.948-1.132.264-.254,1.113,1.038c1.307,1.276,2.6,2.564,3.931,3.816.229.217.751.478.882.378.5-.371,1.012-.855.521-1.583-.26-.385-.583-.728-.846-1.111A35.3,35.3,0,0,0-242.5,312.528c-.785-.43-1.547-.9-2.3-1.383a.907.907,0,0,0-1.383.222c-.469.633.123.917.467,1.2,1.208.979,2.454,1.911,3.685,2.861l1,.723-.111.18-.633-.3c-1.551-.745-3.1-1.495-4.655-2.232-.427-.2-.868-.426-1.1.275-.183.55-.22.914.423,1.278,1.117.633,2.139,1.433,3.2,2.163l.241.6c-1.184-.59-2.362-1.2-3.559-1.758a2.593,2.593,0,0,0-.833-.088c.063.3.055.683.138.962a25.884,25.884,0,0,0-12.6-2.037C-242.859,318.593-234.043,340.387-234.043,340.387Zm-35.18,7.19a1.754,1.754,0,0,0,2.168-1.209,1.756,1.756,0,0,0-1.209-2.169,1.756,1.756,0,0,0-2.168,1.21A1.754,1.754,0,0,0-269.223,347.577Z" transform="translate(306.831 -299.471)" fill="#ffdeab"/>
    <path id="Path_990" data-name="Path 990" d="M-267.8,390.987q-.551-1.391-1.1-2.785v.005l-.005-.016a24.321,24.321,0,0,0-1.924-4.124c-.766-1.081-1.573-2.133-2.393-3.176a2.058,2.058,0,0,0-1.464-2.338,2.008,2.008,0,0,0-.456-.074c-.519-.652-1.036-1.306-1.544-1.965a1.084,1.084,0,0,1-.131-.963,4.329,4.329,0,0,0,.586-3.257c-.3-1.354-.7-2.688-1.125-4.011-.15-.467-.138-.631.389-.676.776-.067,1.427-.345,1.5-1.274,0-.038.005-.076.007-.117v0q.133-2.141.27-4.278c.017-.37.038-.741.056-1.114a4.975,4.975,0,0,1,.01-1.29c-.013-.347-.024-.693-.038-1.038v0c.11-.025.218-.047.325-.073.773,1.172,1.524,2.361,2.328,3.51,1.443,2.068,2.915,4.115,4.387,6.162a3.612,3.612,0,0,0,.625.635,1.656,1.656,0,0,0,2.868-1.094,39.882,39.882,0,0,0,.085-4.167c.029-.472.06-.942.09-1.414q.024-1.336.048-2.674l-.009.029a3.114,3.114,0,0,0-.039-.71,4.28,4.28,0,0,1,.308-1.771c.016-.032.028-.065.047-.1.092-.527.183-1.054.258-1.5,1.234,1.59,2.422,3.179,3.669,4.719,1.14,1.4,2.241,1.318,3.256-.189.088-.128.167-.262.317-.5a4.961,4.961,0,0,1,.229.745,13.5,13.5,0,0,0,2.03,5.5,4.62,4.62,0,0,0,2.711,2.338c-.01.046-.023.091-.033.134-.148.623-.3,1.245-.445,1.868-.153.648-.308,1.3-.46,1.947-.468,1.313-.994,2.608-1.385,3.943-.312,1.056-.458,2.159-.677,3.239-.65,1.014-.441,2.139-.418,3.24a38.293,38.293,0,0,0,.663,12.948c.192,1.306.38,2.613.572,3.922a25.2,25.2,0,0,1-10.946,1.287c-.025-.112-.051-.224-.08-.337a12.841,12.841,0,0,0,3.989-7.224c-.337,1.285-2.1,1.81-3.506,1.714a10.959,10.959,0,0,1-2.312-.408c-.094-.294-.19-.592-.286-.887Q-267.376,392.161-267.8,390.987Z" transform="translate(326.872 -299.471)" fill="#ffdeab"/>
    <path id="Path_991" data-name="Path 991" d="M-280.908,328.854c-.177-.2-.271-.465-.451-.656-.571-.61-.289-1.058.479-1.66.137.1.376.2.472.375a3.949,3.949,0,0,1,.578,1.363,3.569,3.569,0,0,1-.338,1.249A9.644,9.644,0,0,1-280.908,328.854Z" transform="translate(359.282 -299.471)" fill="#2d4668"/>
    <path id="Path_992" data-name="Path 992" d="M-283.1,331.473c-.343-.563-.37-1.208.312-1.5.855-.368.651.552.908.907.049.066.018.19.024.287q.109.775.218,1.552c-.134.055-.36.188-.389.154A11.925,11.925,0,0,1-283.1,331.473Z" transform="translate(362.772 -299.471)" fill="#2d4668"/>
    <path id="Path_993" data-name="Path 993" d="M-284.365,335.612h0l.237.917-.281.106q-.19-.453-.382-.906h0c-.111-.256-.223-.511-.334-.767l-.043-.675.556.736Z" transform="translate(367.092 -299.471)" fill="#2d4668"/>
    <path id="Path_994" data-name="Path 994" d="M-280.97,337.849l.116.438h0q.053.609.106,1.219l-.278.012c-.053-.318-.1-.637-.156-.955h0l-.375-1.039h0l.084-.511c.131.089.313.151.38.275A1.988,1.988,0,0,1-280.97,337.849Z" transform="translate(360.101 -299.471)" fill="#2d4668"/>
    <path id="Path_995" data-name="Path 995" d="M-279.943,333.338c.276.784.564,1.564.816,2.355.036.114-.1.282-.159.425-.16-.071-.391-.1-.468-.222-.326-.527-.607-1.082-.9-1.628C-280.73,333.72-280.879,333.112-279.943,333.338Z" transform="translate(357.63 -299.471)" fill="#2d4668"/>
    <path id="Path_996" data-name="Path 996" d="M-279.308,329.928l1.417-.71,1.326,3.077c-.534.568-.921.41-1.279-.214-.306-.533-.678-1.03-1.021-1.542C-279.013,330.335-279.16,330.131-279.308,329.928Z" transform="translate(353.669 -299.471)" fill="#2d4668"/>
    <path id="Path_997" data-name="Path 997" d="M-275.5,334.937l-.19.068h0Z" transform="translate(348.992 -299.471)" fill="#2d4668"/>
    <path id="Path_998" data-name="Path 998" d="M-274.646,333.441a14.714,14.714,0,0,1-.893-1.762c-.081-.224.172-.569.273-.859.2.134.531.228.589.409.221.687.354,1.4.52,2.106q.135.372.268.744l-.556-.045Z" transform="translate(347.24 -299.471)" fill="#2d4668"/>
    <path id="Path_999" data-name="Path 999" d="M-262.39,317.225a.57.57,0,0,0,.154.274c1.288,1.139,2.7,2.134,3.983,3.282a23.561,23.561,0,0,1,2.078,2.389,6.164,6.164,0,0,0,.683.85,23.99,23.99,0,0,1,4.628,5.579,37.041,37.041,0,0,1,2.349,10.788s-8.816-21.794-26.477-25.2A25.884,25.884,0,0,1-262.39,317.225Z" transform="translate(321.303 -299.471)" fill="#fff"/>
    <path id="Path_1000" data-name="Path 1000" d="M-273.684,323.17a23.561,23.561,0,0,0-2.078-2.389c-1.279-1.148-2.7-2.143-3.983-3.282a.57.57,0,0,1-.154-.274c-.083-.279-.075-.661-.138-.962a2.593,2.593,0,0,1,.833.088c1.2.563,2.375,1.168,3.559,1.758l1.073.665.08-.181.023-.051.069-.156-1.486-.88c-1.062-.73-2.084-1.53-3.2-2.163-.643-.364-.606-.728-.423-1.278.234-.7.675-.478,1.1-.275,1.555.737,3.1,1.487,4.655,2.232l.633.3.111-.18-1-.723c-1.231-.95-2.477-1.882-3.685-2.861-.344-.279-.936-.563-.467-1.2a.907.907,0,0,1,1.383-.222c.756.481,1.518.953,2.3,1.383a35.3,35.3,0,0,1,12.455,10.938c.263.383.586.726.846,1.111.491.728-.025,1.212-.521,1.583-.131.1-.653-.161-.882-.378-1.329-1.252-2.624-2.54-3.931-3.816l-1.113-1.038-.264.254.948,1.132,3.148,5.368c.133,1-.115,1.276-1.2,1.311l-4.471-5.571-.384-.295c.044.168.089.336.133.5.936,1.933,1.865,3.869,2.812,5.8.237.484.307.975-.28,1.125-.251.065-.736-.262-.92-.54l-.275-.414A23.99,23.99,0,0,0-273,324.02,6.164,6.164,0,0,1-273.684,323.17Z" transform="translate(338.812 -299.471)" fill="#2d4668"/>
    <path id="Path_1001" data-name="Path 1001" d="M-258.8,316.352a14.95,14.95,0,0,1-1.382-.917c.132-.144.3-.425.383-.4a7.418,7.418,0,0,1,1.539.583c.134.074.1.467.135.713C-258.356,316.343-258.629,316.443-258.8,316.352Z" transform="translate(316.109 -299.471)" fill="#2d4668"/>
    <path id="Path_1002" data-name="Path 1002" d="M-260.034,312.322a5.972,5.972,0,0,1,1.81.741c.223.15.181.693.255,1.032-.333.128-.5.252-.573.21-.681-.387-1.344-.8-2.013-1.209C-260.378,312.824-260.132,312.3-260.034,312.322Z" transform="translate(316.32 -299.471)" fill="#2d4668"/>
    <path id="Path_1003" data-name="Path 1003" d="M-259.495,310.956c-.685-.314-1.343-.686-2.089-1.08-.049-.171-.179-.388-.14-.568.028-.133.322-.341.421-.306a21.867,21.867,0,0,1,2.339.98c.108.054.076.527-.009.764A.57.57,0,0,1-259.495,310.956Z" transform="translate(318.422 -299.471)" fill="#2d4668"/>
    <path id="Path_1004" data-name="Path 1004" d="M-257.844,308.239l.085-.358a13.236,13.236,0,0,1,1.282.419c.126.053.172.3.254.452-.194.06-.436.223-.573.16A8.392,8.392,0,0,1-257.844,308.239Z" transform="translate(311.863 -299.471)" fill="#2d4668"/>
    <path id="Path_1005" data-name="Path 1005" d="M-255.866,312.395a12.258,12.258,0,0,1-1.174-1.063c-.008-.007.024-.056.077-.168a4.434,4.434,0,0,1,1.188.331c.258.154.376.541.556.824C-255.439,312.351-255.736,312.488-255.866,312.395Z" transform="translate(310.056 -299.471)" fill="#2d4668"/>
    <path id="Path_1006" data-name="Path 1006" d="M-254.257,310.679c-.058-.18-.054-.333.172-.386h0l1,.684c-.059.085-.119.169-.178.253Z" transform="translate(305.166 -299.471)" fill="#2d4668"/>
    <path id="Path_1007" data-name="Path 1007" d="M-219.584,331.4l.387-.826q.271-.627.542-1.255t.532-1.253l.328.13q-.183.519-.367,1.037-.267.621-.533,1.243l-.421,1.093-.72,1.931-.7,2.914-.194.22-.179.2q-.022.342-.043.682c-.011.365-.021.73-.032,1.1h0l-.087.31h0l-.1.348.113.031h0l.051.014c.056-.262.113-.525.17-.787q.192-.558.383-1.115l.47-.944-.042-.051-.09-.107,3.459-5.233.44-.674.529-.721.165.1q-.163.33-.328.66l-.567.94c-.37.726-.763,1.441-1.1,2.181-.518,1.127-1,2.271-1.5,3.408-.075,2.1-.167,4.2-.22,6.307-.041,1.64-.045,3.282-.06,4.923v.006c0,.166,0,.331,0,.5l.807,4.232q.151.633.305,1.267.166.516.334,1.032l-.307.092-.63-1.6c-.075-.292-.149-.584-.224-.876h0c-.064-.177-.141-.35-.19-.531q-.33-1.221-.655-2.442c-.189-.122-.218-.427-.262-.654-.123-.641-.246-1.283-.426-1.911q-.321-1.515-.641-3.03l.033-1.076-.363,0c.022.357.043.713.064,1.07q-.125,2.313-.248,4.627.093,1.863.187,3.726l.222,1.15.147.872q.106.434.214.869c.016.2.033.39.049.585l-.372-.6h0q-.158-.519-.316-1.039l-.225-.878q-.153-.651-.307-1.3l-.423-2.4-.024-.134-.261-1.479a16.019,16.019,0,0,1,0-8.388c.332-1.328.577-2.686,1.024-3.975a15.788,15.788,0,0,1,.96-2.1c.184-.352.369-.705.542-1.061Z" transform="translate(236.678 -299.471)" fill="#2d4668"/>
    <path id="Path_1008" data-name="Path 1008" d="M-289.524,326.456l.187.053.22.064h0q.459,1.041.919,2.081l-.026.262Z" transform="translate(375.518 -299.471)" fill="#2d4668"/>
    <path id="Path_1009" data-name="Path 1009" d="M-292.844,336.585c.087-.071.174-.142.26-.214l.375,2.035-.127.092-.093.067Z" transform="translate(382.849 -299.471)" fill="#2d4668"/>
    <path id="Path_1010" data-name="Path 1010" d="M-265.2,318.542l-.023.051-.08.181-1.073-.665-.241-.6,1.486.88Z" transform="translate(329.542 -299.471)" fill="#2d4668"/>
    <path id="Path_1011" data-name="Path 1011" d="M-275,334.914l-.063.023-.19.068h0l-.5-.971h0l.556.045c.045.186.09.371.134.557Z" transform="translate(348.551 -299.471)" fill="#2d4668"/>
    <path id="Path_1012" data-name="Path 1012" d="M-274.459,352.113c.09-.176.189-.348.268-.529a3.467,3.467,0,0,1,.281-.512,2.039,2.039,0,0,0,.68.5l-.155.133c-.124.111-.258.21-.387.314l-1.494,2.04-.285-.18Z" transform="translate(346.577 -299.471)" fill="#2d4668"/>
    <path id="Path_1013" data-name="Path 1013" d="M-280.538,391.493c-.02-.027-.033-.054-.052-.081.015-.01.02-.024.036-.034h0q-.15-1.514-.3-3.027l-.029-.036a.285.285,0,0,1,.029,0l-.009-1.156c-.017,0-.027,0-.044,0l-.009-.014c.019-.016.031-.033.052-.05q-.193-2.277-.388-4.553l.126-3.26,2.121-7.364q.334-1.027.67-2.055l.566-1.943-.014.006c.016-.038.029-.078.047-.116h0l.844-1.782c1.388-3.446,2.17-6.914.375-10.474-.038-.1-.08-.189-.12-.283l.014.006-1.119-2.92h0l-.006-.017a6.583,6.583,0,0,0-.473-.928,2.047,2.047,0,0,0,.671-.754,3.373,3.373,0,0,1,.59,1.013c.465,1.171.884,2.362,1.392,3.515,1.766,4.015,1.15,7.831-.9,11.542a80.521,80.521,0,0,0-2.677,8.369,31.43,31.43,0,0,0-1.042,10.874c-.031.107-.063.214-.094.321l-.213,2.094q.176,1.648.349,3.3c.1.55.249,1.1.3,1.652q.278,2.7.526,5.4c.073.778.147,1.555.216,2.332a4.938,4.938,0,0,1-.132,1.056c-.223-.308-.593-.593-.644-.926-.108-.71-.2-1.421-.3-2.133-.154-1.2-.3-2.4-.446-3.6Q-280.574,393.476-280.538,391.493Z" transform="translate(353.574 -299.471)" fill="#2d4668"/>
    <path id="Path_1014" data-name="Path 1014" d="M-276.756,351.939l.153.336q.687,1.5,1.373,3.009l0,0a.144.144,0,0,1,.022-.007c0,.026.005.051.006.076a54.278,54.278,0,0,1,.428,5.457,11.77,11.77,0,0,1-.773,3.853c-.362.976-.988.933-1.6.059-2.476-3.515-2.513-7.374-1.535-11.355a1.981,1.981,0,0,1,.634-1.094A3.7,3.7,0,0,1-276.756,351.939Z" transform="translate(351.847 -299.471)" fill="#ffdeab"/>
    <path id="Path_1015" data-name="Path 1015" d="M-271.933,357.361a.443.443,0,0,1,.124.07c.211.176.414.362.617.549.3.28.605.564.909.845l.339-.266.616-.481.754-1.189.1.111c.055.062.11.125.166.187l.148.168a14.481,14.481,0,0,1-1,2.02,1.2,1.2,0,0,1-1.964.069,20.066,20.066,0,0,1-1.3-2.189c.069.018.142.03.216.042A1.513,1.513,0,0,1-271.933,357.361Z" transform="translate(338.38 -299.471)" fill="#2d4668"/>
    <path id="Path_1016" data-name="Path 1016" d="M-270.15,355.216l-.151-.014a10.585,10.585,0,0,1,.1-1.373c.177-.881,1.079-1.441,1.541-.962a24.063,24.063,0,0,1,1.755,2.126c.968,1.266,1.909,2.553,2.861,3.832-.3-.281-.6-.565-.909-.845-.2-.187-.406-.373-.617-.549a.443.443,0,0,0-.124-.07,1.513,1.513,0,0,0-.273-.064c-.074-.012-.147-.024-.216-.042-.8-1.156-1.6-2.321-2.427-3.462a2.841,2.841,0,0,0-.666-.5,2.834,2.834,0,0,0-.467.689,8.992,8.992,0,0,0-.209,1.254l-.2-.017Z" transform="translate(332.141 -299.471)" fill="#2d4668"/>
    <path id="Path_1017" data-name="Path 1017" d="M-273.918,365.912a1.746,1.746,0,0,1-.425-.145c-1.126-.761-2.168-3.733-1.828-5.2.784,1.632,1.557,3.223,2.306,4.826C-273.8,365.526-273.9,365.736-273.918,365.912Z" transform="translate(347.876 -299.471)" fill="#2d4668"/>
    <path id="Path_1018" data-name="Path 1018" d="M-264.549,365.37l1.128-.317c.006-.1.011-.208.017-.313q.079-1.52.16-3.038l.009-.181.372-1.375c.121-1.245.19-2.5.4-3.727.049-.287.571-.492.875-.735h.3l.686.23.037.068.06.108.531.782a2.328,2.328,0,0,1,.282.36,1.206,1.206,0,0,1,.077.157l-.005,0,.023.035,1.233,1.467.055.066q.55.969,1.1,1.939a.41.41,0,0,0,.053.1.643.643,0,0,0,.034.064l.015.025,1.727,2.975c.015.273.221.427.379.612l.148.241.206.341a2.25,2.25,0,0,0,.911,1.1l.3.25a.992.992,0,0,0,.37.252l.018.006a.75.75,0,0,0,.279-.088.848.848,0,0,0,.169-.345c.041-.222.1-.443.12-.668q.393-4.367.778-8.733.161-.912.322-1.825l.151.014h0l.2.017q.07.713.142,1.424c-.032.039-.066.075-.1.11l-.022.025q.045.875.089,1.749c.012.225.023.449.035.673a1.94,1.94,0,0,0,.012.3q-.047.448-.092.9l-.168,1.626q-.076.617-.152,1.233c-.1.745-.211,1.489-.3,2.236a4.3,4.3,0,0,1-.117,1.181c-.21.478-.5,1.09-.916,1.255-.319.127-.895-.315-1.32-.566-.176-.1-.256-.37-.38-.562a12.6,12.6,0,0,0-1.057-1.347,14.951,14.951,0,0,1-1.572-2q-1.17-1.9-2.339-3.8c-.234-.38-.459-.764-.688-1.147l-.237-.374a1.241,1.241,0,0,1-.334-.528,8.071,8.071,0,0,0-.654-.909,2.061,2.061,0,0,0-.608-.317l-.015.026-.036.059-.052.087-.279,2.918-.015.153q.054,1,.106,2.006c-.046.75-.079,1.5-.143,2.249s-.159,1.493-.241,2.239l0,.027a.178.178,0,0,0-.014.084.231.231,0,0,1-.023.021,1.564,1.564,0,0,0-.188.152c-.234.215-.45.468-.848.337Zm2.674-8.913.024-.064c-.027-.029-.051-.059-.078-.087a.587.587,0,0,1,.028-.183A.261.261,0,0,0-261.875,356.457Z" transform="translate(313.221 -299.471)" fill="#2d4668"/>
    <path id="Path_1019" data-name="Path 1019" d="M-253.525,356.123a.587.587,0,0,0-.028.183c.027.028.051.058.078.087l-.024.064A.261.261,0,0,1-253.525,356.123Z" transform="translate(304.845 -299.471)" fill="#fff"/>
    <path id="Path_1020" data-name="Path 1020" d="M-272.761,357l-.1-.111.587-1.286.262.094q-.219.83-.437,1.658l-.148-.168C-272.651,357.125-272.706,357.062-272.761,357Z" transform="translate(342.665 -299.471)" fill="#2d4668"/>
    <path id="Path_1021" data-name="Path 1021" d="M-244.423,369.119l.426,1.432q.213.869.425,1.737l-.249,1.543c-1.3-1.662-2.694-3.257-3.866-5a15.694,15.694,0,0,1-2.8-6.723,3.332,3.332,0,0,1,.2-1.025,6.015,6.015,0,0,1,.958.341,7.249,7.249,0,0,1,.875.652C-246.555,364.106-245.579,366.664-244.423,369.119Z" transform="translate(291.86 -299.471)" fill="#ffdeab"/>
    <path id="Path_1022" data-name="Path 1022" d="M-245.985,372.332l-.2-1.428-.52-1.891a10.928,10.928,0,0,0-3.141-6.213h0l-1.852-2.538.236-.232a3.356,3.356,0,0,1,.717.4,17.9,17.9,0,0,1,5.669,11.988c.051.567-.407,1.179-.629,1.769Q-245.845,373.258-245.985,372.332Z" transform="translate(294.564 -299.471)" fill="#2d4668"/>
    <path id="Path_1023" data-name="Path 1023" d="M-250.779,374.183a.6.6,0,0,1-.285-.122Z" transform="translate(299.639 -299.471)" fill="#2d4668"/>
    <path id="Path_1024" data-name="Path 1024" d="M-255.945,393.049q-.361-.891-.721-1.783c-.42-.855-.843-1.709-1.259-2.566-.541-1.112-1.076-2.228-1.614-3.342a1.988,1.988,0,0,0-.418-.6,2.276,2.276,0,0,1-.608-.876l-.483-.622a.888.888,0,0,0,.114-.123c.022-.01.044-.023.065-.035l.045-.023.015-.009h0l-.038-.073-.307-.58a.545.545,0,0,1-.148-.281l1.071,1.384a6.681,6.681,0,0,1,.908,1.174l1.4,2.4q.224.45.446.9l1.392,2.809q-.039.281-.08.561h0a.589.589,0,0,1,.058.039.287.287,0,0,1-.032.021l.558,1.268h0a.5.5,0,0,1-.1.125l-.076.069Z" transform="translate(314.679 -299.471)" fill="#2d4668"/>
    <path id="Path_1025" data-name="Path 1025" d="M-242.279,378.876c-.232-.229-.468-.455-.7-.681-.1-.1-.2-.2-.3-.294l-.428-.323-.381-.287h0l-.026-.024-.636-.591-.518-.48-2.274-2.747-.024-.03h0L-249,371.484l-.012-.018-1.205-1.806-.221-.417-.168-.318q-.2-.232-.407-.466l-.1-.111-.121-.139a.188.188,0,0,0,.024-.018c-.019,0-.03-.009-.05-.01l-.116-.313q-.339-.915-.679-1.829l-.026-.069-.468-1.919-.387-.732v-.063c0-.458.009-.917.015-1.375,0-.042,0-.084,0-.126.322-.629.628-1.268.982-1.877.064-.11.331-.1.5-.147-.01.149.039.346-.038.44a4.783,4.783,0,0,0-.73,3.594,7.1,7.1,0,0,1,.511.844,44.228,44.228,0,0,0,7.675,11.692c.7.784,1.382,1.58,2.066,2.377A2.129,2.129,0,0,0-242.279,378.876Z" transform="translate(292.68 -299.471)" fill="#2d4668"/>
    <path id="Path_1026" data-name="Path 1026" d="M-251.6,378.876c-.042.031-.083.062-.123.1l-.882-1.071c.1.1.2.2.3.294C-252.068,378.421-251.832,378.647-251.6,378.876Z" transform="translate(302.001 -299.471)" fill="#2d4668"/>
    <path id="Path_1027" data-name="Path 1027" d="M-255.45,382.413l.307.58.038.073h0l-.015.009-.045.023c-.021.012-.043.025-.065.035l-.044-.05-.8-.945a2.05,2.05,0,0,0,.295-.287l.181.281A.545.545,0,0,0-255.45,382.413Z" transform="translate(308.975 -299.471)" fill="#2d4668"/>
    <path id="Path_1028" data-name="Path 1028" d="M-264.179,393.641q.3.183.6.364l.029.1q.292.96.586,1.919l.012.04q-.053.567-.106,1.134.246,1.223.493,2.445a8.052,8.052,0,0,1,1.047,4.351l.321,1.292c-.056.251-.111.5-.167.753l-.22.382h0l-.234-.893-.159-1.718q-.545-2.11-1.09-4.221l-.15-2.554a5.562,5.562,0,0,1-1.165-3.229c0-.089.007-.179.016-.271Z" transform="translate(323.372 -299.471)" fill="#2d4668"/>
    <path id="Path_1029" data-name="Path 1029" d="M-261.4,393.049h0l.19-.17.076-.069.07.105a.491.491,0,0,1-.093.073,2.113,2.113,0,0,1,.19.443c.006.019.015.037.02.057,0,.053.005.1.006.153l-.185-.111Z" transform="translate(320.131 -299.471)" fill="#2d4668"/>
    <path id="Path_1030" data-name="Path 1030" d="M-255.949,383.09l.009-.007.044.05C-255.916,383.121-255.93,383.1-255.949,383.09Z" transform="translate(309.641 -299.471)" fill="#2d4668"/>
    <path id="Path_1031" data-name="Path 1031" d="M-276.617,371.908V371.9h0Z" transform="translate(351.028 -299.471)" fill="#2d4668"/>
    <path id="Path_1032" data-name="Path 1032" d="M-276.672,371.791c.01-.063.021-.126.035-.188-.012.062-.025.124-.033.187Z" transform="translate(351.105 -299.471)" fill="#2d4668"/>
    <path id="Path_1033" data-name="Path 1033" d="M-247.89,354.262c0,.011.005.028.005.039l.582,3.274.068,1.28c0,.107.013.209.023.311l.222,2.21a4.6,4.6,0,0,0,1.056,2.728,3.218,3.218,0,0,0,.209.354l.1.268.373,1.352a4.132,4.132,0,0,0,.374.906l1.794,3.216a6.721,6.721,0,0,0,.509,1.355c.486.964,1,1.923,1.516,2.882l.51.954a4.216,4.216,0,0,0,.253.423l1.452,2.056a33.6,33.6,0,0,0,2.218,3.183A38.732,38.732,0,0,0-229.979,389,68.76,68.76,0,0,0-221.4,395.8q1.081.756,2.145,1.53l.71.505c2.642,1.906,5.14,3.7,6.659,6.111,1.717,2.722,3.5,5.683,5.586,9.294-.8,3.895.31,6.55,1.8,8.306a8.7,8.7,0,0,0,2.279,6.85c0,.209,0,.407.024.611A58.134,58.134,0,0,1-234.05,412.06,58.435,58.435,0,0,1-247.89,354.262Z" transform="translate(250.463 -299.471)" fill="#906d4e"/>
    <path id="Path_1034" data-name="Path 1034" d="M-314.9,406.5a8.008,8.008,0,0,0-1.976-7.41,2.446,2.446,0,0,1-.1-.381,60.015,60.015,0,0,1-.878-13.953c.205-.788.412-1.576.612-2.37.551-2.123,1.121-4.319,1.752-6.429.516-1.745,1.117-3.46,1.748-5.281.286-.81.571-1.62.846-2.441a4.045,4.045,0,0,0,.177-.76c.1-.8.23-1.523.389-2.233a3.141,3.141,0,0,0,.106-.536c.108-.7.223-1.416.336-2.115l.2-1.179c.032-.186.063-.361.089-.541.013-.124.026-.226.039-.328.141-.959.3-2.138.393-3.381a63.564,63.564,0,0,0,.02-7.715c-.074-1.585-.257-3.11-.429-4.578-.08-.612-.155-1.218-.212-1.83-.01-.08-.025-.165-.035-.244l-.047-.278-.492-3.572-.031-.17-.387-2.117a2.672,2.672,0,0,0-.127-.511l-.215-.683-.163-.721a.3.3,0,0,0-.021-.079l-.057-.256a5.377,5.377,0,0,0-.951-3.874l-.023-.034a3.207,3.207,0,0,0-.4-.692l-1.1-1.608-.417-.765-.713-1.6a4.724,4.724,0,0,0-.806-1.479l-1.339-2.7a58.64,58.64,0,0,1,11.391,9.18,58.453,58.453,0,0,1-1.438,82.654c-1.116,1.077-2.265,2.1-3.436,3.074a2.073,2.073,0,0,0-.046-.267,9.156,9.156,0,0,0-1.018-2.619A7.682,7.682,0,0,0-314.9,406.5Z" transform="translate(408.22 -299.471)" fill="#906d4e"/>
    <path id="Path_1035" data-name="Path 1035" d="M-252.127,414.435c-1.969-1.563-2.185-3.548-1.657-5.826.016-.075.031-.154.042-.234a2.858,2.858,0,0,0-.284-1.668c-1.843-3.224-3.727-6.427-5.7-9.578-2-3.2-5.073-5.324-8.03-7.517a86.012,86.012,0,0,1-9.807-7.758,33.645,33.645,0,0,1-5.857-7.124,30.528,30.528,0,0,1-2.1-3.025q-.727-1.042-1.451-2.085c-.639-1.214-1.292-2.422-1.914-3.646a6.154,6.154,0,0,1-.312-.984c-.023-.041-.045-.081-.065-.123l-.422-.78c-.163-.3-.328-.593-.492-.89l-.494-.895c-.166-.3-.332-.589-.5-.884q-.2-.723-.4-1.449c-.128-.341-.253-.68-.378-1.02-.053-.054-.106-.106-.16-.158a.81.81,0,0,0-.3-.525.794.794,0,0,1-.3-.522c-.018-.329-.034-.658-.054-.985-.062-.483-.125-.963-.191-1.445-.025-.469-.05-.937-.078-1.4-.048-.345-.1-.688-.15-1.033-.158-.817-.313-1.633-.471-2.45q-.2-1.3-.388-2.6-.043-2.4-.087-4.812c.084-1.4.162-2.793.259-4.19a12.305,12.305,0,0,1,.193-1.674c.567-2.664,1.226-5.311,1.73-7.988.024-.11.045-.219.065-.33A32.3,32.3,0,0,1-286.86,316.6a35.67,35.67,0,0,1,7.747-8.853h0l.657-.561q.3-.255.6-.511c.551-.369,1.109-.732,1.651-1.114a32.4,32.4,0,0,1,18.533-6.08,36.763,36.763,0,0,1,14.653,2.906,36.548,36.548,0,0,1,4.678,2,48.111,48.111,0,0,1,5.887,4.05c2.525,2.037,4.9,4.266,7.333,6.414.781.8,1.628,1.549,2.33,2.413,1.409,1.734,2.742,3.532,4.107,5.3q.77,1.57,1.542,3.136a.851.851,0,0,0,.253.422.894.894,0,0,1,.273.457h0l-.22-.064c-.062-.017-.126-.035-.187-.054h0l1.3,2.459.026-.262q.248.445.494.89l.676,1.046h0l.558.777h0c.243.648,1.02,1.179.439,2.007q.16.653.32,1.3c.064.29.129.579.193.869.088.275.177.55.265.825-.086.072-.173.143-.26.214l.415,1.98.093-.067.128-.092q.244,1.738.489,3.475l-.015-.007v0l.014,0c.02.111.038.218.055.328.214,1.967.521,3.929.618,5.9a58.307,58.307,0,0,1,.015,6.92c-.071,1.015-.2,2.024-.352,3.034-.01.078-.013.155-.022.233-.028.2-.068.4-.1.6-.163,1.037-.335,2.072-.483,3.108v0a26.073,26.073,0,0,0-.461,2.635c-.838,2.489-1.752,4.955-2.493,7.469-.864,2.933-1.576,5.911-2.35,8.869a1.093,1.093,0,0,0-.01.2,61.776,61.776,0,0,0,.945,14.465,4.434,4.434,0,0,0,.944,2.138c1.45,1.539,1.39,3.183.73,4.987a1.039,1.039,0,0,0,.145.9c1.8,1.816,2.128,3.251,1.072,5.556-.262.571-.005.778.268,1.18a6.337,6.337,0,0,1,1.034,2.159c.27,1.3-.418,2.431-.968,3.572a1.111,1.111,0,0,0,.091.983,3.491,3.491,0,0,1,.636,3.276,7.205,7.205,0,0,1-2.243,4.014,1.17,1.17,0,0,0-.334.584c-.252.878-.48,1.766-.716,2.649a3.513,3.513,0,0,0-.422.413,10.187,10.187,0,0,1-4.58,3.757c-.712.275-1.4.619-2.1.932-.156.051-.312.1-.468.157l-4.947,1.247c-.307.025-.613.05-.921.072,0,.107,0,.214,0,.321l.892-.027q2.453-.534,4.9-1.072c.054-.035.108-.069.162-.105.282-.044.566-.09.849-.136.018.059.036.115.053.173-.472.4-.943.792-1.415,1.186a1.023,1.023,0,0,0-.548.334.821.821,0,0,1-.333.2,16.612,16.612,0,0,1-9.776,1.266,7.357,7.357,0,0,1-3.384-1.555,6.747,6.747,0,0,0-3.175-1.485,6.21,6.21,0,0,1-3.278-1.218c-1.242-.942-2.379-2.11-2.259-3.776a1.719,1.719,0,0,0-1.02-1.826,4.423,4.423,0,0,1-2.1-4.945.83.83,0,0,0-.235-.7,4.809,4.809,0,0,1-1.955-5.355A1.314,1.314,0,0,0-252.127,414.435Zm6.776,1.437,1.106.306c.093,0,.184,0,.275-.007l2.931.413a23.93,23.93,0,0,0,9.35-.3,17.732,17.732,0,0,0,5.517-2.458c.826-.552,1.625-1.15,2.434-1.727.71-.512,1.442-1,2.111-1.563l2.109-1.561c-.094-.141-.187-.284-.281-.425-.473.3-.945.61-1.419.914a65.73,65.73,0,0,1-10.869,4.021c-3.035.846-6.124,1.517-9.245,2.078l-2.277.062-.856-.041q-.568-.037-1.136-.079l-.5-.181-.082.235Zm4.786,16.807,1.47.147,1.6.16c.337-.014.676-.029,1.011-.046.031.011.065.038.091.033.306-.076.612-.157.919-.236l-.846-.218c-.469-.056-.937-.113-1.406-.168l-2.033-.789c-.231-.088-.465-.174-.7-.261l-.119-.044.012-.04c-.062-.049-.123-.091-.186-.145.439-.053.817-.134,1.182-.176a3.289,3.289,0,0,1,.561-.026H-239l-.012.006c.286.013.57.026.854.036.091.014.186.026.277.037l1.156-.159v0c.128-.061.253-.126.381-.189a.378.378,0,0,0,.348-.172c.06-.151.118-.3.178-.456a.365.365,0,0,0-.416-.166.239.239,0,0,0-.1-.211c-.287.007-.573.011-.86.017-.244,0-.487,0-.732-.009q-.7-.06-1.409-.124c-.867-.2-1.731-.438-2.607-.614a1.644,1.644,0,0,0-1.964.777c-.426.772.029,1.313.489,1.863A4.023,4.023,0,0,0-240.565,432.679Zm14.116-4.274-.61.426.715-.038C-226.548,428.71-226.527,428.566-226.449,428.4Zm-.241-.943,1.364-.53,1.75-.385a.9.9,0,0,0,.452-.132c-.11.093-.223.185-.326.287q-1.5.851-3,1.7c.035.129.07.259.106.388h0c.634-.141,1.269-.285,1.9-.428l.255-.015c-.015.173.036.431-.059.506-.589.466-1.212.891-1.824,1.331.017.1.031.191.048.288q1.131-.176,2.263-.348l-.015.01q-.809.791-1.616,1.584l.122.249q1.357-.527,2.721-1.051c1.8-.155,2.986-1.366,4.113-2.563.944-1,1.865-2.068,1.773-3.648-.022-.369.447-.769.691-1.153.6-.95,1.228-1.882,1.788-2.853a1.265,1.265,0,0,0-.313-1.7,1.368,1.368,0,0,0-1.746-.12,8.18,8.18,0,0,0-1,.81q-3.713,3.078-7.423,6.16l-.472.272-1.7.978C-226.79,427.222-226.741,427.343-226.69,427.462Zm2.037-4.411a8.364,8.364,0,0,1,1.3-.883,13.992,13.992,0,0,0,4.449-3.731c.256-.252.512-.5.771-.751-.067-.075-.133-.152-.2-.229l-.825.694q-.831.559-1.658,1.122l-6,2.673c-.179.081-.365.152-.549.226a26.573,26.573,0,0,0-5.559,2.615c-1.6,1.125-3.791,1.42-5.722,2.082-.771.134-1.545.268-2.315.4l-1,.052c.034.068.066.135.1.2.345-.022.689-.041,1.033-.062l1.962.174c.38.033.763.066,1.143.1.612,0,1.226-.005,1.838-.009l1-.1c.679-.151,1.35-.335,2.035-.45A14.776,14.776,0,0,0-224.653,423.051Zm-19.914-1.989c.244.091.495.157.744.233.14,0,.28-.008.421-.015.28.036.56.069.84.1.426.052.852.1,1.278.156h0c.083.011.167.015.238.028.265.046.543.009.811.043.113.032.226.064.335.1,3.268.567,6.587.789,9.717-.373a13.231,13.231,0,0,0,2.233-1.11c1.033-.623,2.026-1.348,3.008-2.038a34.841,34.841,0,0,0,3.179-2.85,13.108,13.108,0,0,0,2.162-1.921,10.1,10.1,0,0,0,1.6-2.423l-3.606,2.668c-2.871,1.434-5.721,2.92-8.607,4.324q-1.523.742-3.062,1.448a20.041,20.041,0,0,1-4.637,1.038c-1.2.223-2.424.346-3.636.516q-.565-.036-1.132-.076c-.234.007-.466.012-.7.016l-.573-.023c-.2-.026-.4-.053-.6-.081C-244.555,420.907-244.587,421.054-244.567,421.062Zm.837-9.459a1.835,1.835,0,0,0,.288.067l.071.015c.447.115.911.164,1.348.32a20.956,20.956,0,0,0,9.737-.613,18.969,18.969,0,0,0,6.055-3.29c1.4-1.116,2.763-2.269,4.144-3.4a.285.285,0,0,0,.115-.1c.39-.325.777-.651,1.166-.976-.091-.116-.179-.234-.268-.35l-1.543,1.111c-1.679.8-3.316,1.7-5.045,2.359-1.8.691-3.692,1.162-5.541,1.739l-.132.04c-.885.277-1.742.655-2.636.881-1.926.485-3.87.9-5.806,1.347l-4.376-.3c-.363-.093-.726-.186-1.088-.282-.228-.03-.452-.063-.678-.093-.024.094-.048.187-.075.281.274.083.547.168.819.25l1.258.481C-245.189,411.259-244.458,411.433-243.73,411.6Zm23.069-14.628a3.037,3.037,0,0,1-.128-.886c-.1-.749-.166-1.5-.211-2.252-.123-2-.107-4.014-.2-6.017a33.194,33.194,0,0,1,2.351-13.768c1.708-4.368,3.566-8.681,4.923-13.181.026-.063.042-.129.066-.2a1.512,1.512,0,0,1,.058-.909,43.061,43.061,0,0,0,.957-5.782c.11-2.823.279-5.646.331-8.47-.051-.431-1.582-13.314-5.854-20.276-.091-.109-.184-.218-.269-.33a19.605,19.605,0,0,0-3.948-5.029,3.419,3.419,0,0,1-1.138-1.587.244.244,0,0,1,.02-.1.426.426,0,0,1-.046-.035c-.1-.134-.214-.258-.327-.383-.112-.1-.223-.2-.336-.3q-2.448-2.119-4.9-4.236c-.435-.321-.876-.629-1.33-.923a13.045,13.045,0,0,1-2.572-1.688,30.654,30.654,0,0,0-6.638-3.981,31.873,31.873,0,0,0-5.141-1.737l-.483-.137c-5.176-1.47-11.056-2.168-16.325-.752a19.994,19.994,0,0,1-2.122.07,1.793,1.793,0,0,0-1.211.414,2.815,2.815,0,0,1-2.72.523,1.469,1.469,0,0,0-1.4.294,33.018,33.018,0,0,1-4.207,2.672,9.692,9.692,0,0,0-2.505,1.782,22.214,22.214,0,0,1-3.475,3.285,26.658,26.658,0,0,0-7.617,9.243q-.619,1.179-1.147,2.387a68.623,68.623,0,0,0-4.033,13.706c-.34,1.626-.624,3.262-.987,4.883-.032.051-.063.109-.1.167a13.692,13.692,0,0,1-.111,4.42.025.025,0,0,0-.008.012,2.851,2.851,0,0,1,.262,2.722l.009,0a2.486,2.486,0,0,1,.333,2.352.608.608,0,0,1,.113.948.537.537,0,0,1,.1.036c.307.453.465.907.037,1.368a.6.6,0,0,1,.061.017,1.263,1.263,0,0,1,.2,1.506.906.906,0,0,1,.145.066,2.782,2.782,0,0,1,.739,2.19.194.194,0,0,1-.1.036l.041.019q.517.2.32.675a.731.731,0,0,1,.134.053,4.136,4.136,0,0,1,.916,2.293.336.336,0,0,1-.086.083c.164.3.331.591.5.886q.418.787.84,1.57l0,0a.847.847,0,0,1,.324.145,3.828,3.828,0,0,1,.759.922c1.125,1.644,1.9,3.515,3.232,5.03a.827.827,0,0,1,.278.593c.033.036.064.072.1.108.965,1.136,1.9,2.3,2.88,3.424a23.086,23.086,0,0,0,2.955,3.374c.041.138.073.283.117.42,2.147,1.735,4.277,3.488,6.445,5.193a9.537,9.537,0,0,0,1.434.867,12.032,12.032,0,0,0,3.608,2.067q.573.363,1.136.734a36.824,36.824,0,0,1,6.771,5.251,62.064,62.064,0,0,1,7.064,9.394c.912,1.454,2.008,2.852,2.32,4.606a1.224,1.224,0,0,0,1.084,1.089,20.385,20.385,0,0,0,9.1.357,67.812,67.812,0,0,0,7.4-1.613c4.051-1.29,7.191-3.963,10.283-6.706C-220.707,399.178-220.053,398.263-220.661,396.975Z" transform="translate(303.017 -299.471)" fill="#906d4e"/>
    <path id="Path_1036" data-name="Path 1036" d="M-239.812,344.2a1.756,1.756,0,0,1,1.209,2.169,1.754,1.754,0,0,1-2.168,1.209,1.754,1.754,0,0,1-1.209-2.168A1.756,1.756,0,0,1-239.812,344.2Z" transform="translate(278.379 -299.471)" fill="#fff"/>
  </g>
</svg>
