<svg xmlns="http://www.w3.org/2000/svg" width="40.177" height="38.217" viewBox="0 0 40.177 38.217">
  <g id="Group_81" data-name="Group 81" transform="translate(-159.541 -97.198)">
    <g id="Group_77" data-name="Group 77" transform="translate(160.856 99.879)">
      <path id="Path_1043" data-name="Path 1043" d="M179.78,132.18H164.8V117.2h14.98Zm-13.752-1.228h12.524V118.428H166.028Z" transform="translate(-164.8 -117.2)" fill="#fff" stroke="#fff" stroke-width="1"/>
    </g>
    <g id="Group_78" data-name="Group 78" transform="translate(180.084 97.905)">
      <path id="Path_1044" data-name="Path 1044" d="M362.178,116.831l-9.463-9.463,9.463-9.463,9.463,9.463Zm-7.727-9.463,7.727,7.727,7.727-7.727-7.727-7.727Z" transform="translate(-352.715 -97.905)" fill="#fff" stroke="#fff" stroke-width="1"/>
    </g>
    <g id="Group_79" data-name="Group 79" transform="translate(160.407 120.017)">
      <path id="Path_1045" data-name="Path 1045" d="M176.286,327.761H160.407l7.939-13.751Zm-13.752-1.228h11.625l-5.813-10.067Z" transform="translate(-160.407 -314.01)" fill="#fff" stroke="#fff" stroke-width="1"/>
    </g>
    <g id="Group_80" data-name="Group 80" transform="translate(182.057 119.934)">
      <path id="Path_1046" data-name="Path 1046" d="M379.5,328.181q-.178,0-.357-.008a7.538,7.538,0,0,1-7.129-7.129,7.49,7.49,0,1,1,7.486,7.137Zm0-13.752a6.263,6.263,0,0,0-6.255,6.559,6.3,6.3,0,0,0,5.959,5.958,6.262,6.262,0,1,0,.3-12.517Z" transform="translate(-372.001 -313.201)" fill="#fff" stroke="#fff" stroke-width="1"/>
    </g>
  </g>
</svg>
