<svg xmlns="http://www.w3.org/2000/svg" width="73.863" height="73.863" viewBox="0 0 73.863 73.863">
  <g id="Group_683" data-name="Group 683" transform="translate(-150 -79.999)">
    <path id="Path_1250" data-name="Path 1250" d="M222.386,80H151.477A1.477,1.477,0,0,0,150,81.476v6.456a1.477,1.477,0,0,0,1.477,1.477h1.491v47.136a5.135,5.135,0,0,0,5.129,5.129h27.353v2.063a5.17,5.17,0,1,0,2.955,0v-2.063h27.356a5.135,5.135,0,0,0,5.129-5.129V89.409h1.5a1.477,1.477,0,0,0,1.477-1.477V81.476A1.477,1.477,0,0,0,222.386,80Zm-33.242,68.693a2.216,2.216,0,1,1-2.216-2.216A2.218,2.218,0,0,1,189.144,148.692Zm28.791-12.147a2.178,2.178,0,0,1-2.175,2.175H158.1a2.178,2.178,0,0,1-2.175-2.175V89.417h62.013Zm2.974-50.09H152.955v-3.5h67.954Z" fill="#906d4e"/>
    <path id="Path_1251" data-name="Path 1251" d="M219.113,204.636a1.477,1.477,0,1,0,2.088,2.089l13.236-13.236,7.2,7.2a1.52,1.52,0,0,0,2.089,0l22.064-22.069v5.385a1.477,1.477,0,0,0,2.955,0v-8.93a1.475,1.475,0,0,0-1.49-1.5h-8.939a1.477,1.477,0,1,0,0,2.955h5.387l-21.02,21.025-7.2-7.2a1.477,1.477,0,0,0-2.089,0Z" transform="translate(-55.998 -76.3)" fill="#906d4e"/>
    <path id="Path_1252" data-name="Path 1252" d="M226.677,355.42h0Z" transform="translate(-62.517 -224.562)" fill="#906d4e"/>
    <path id="Path_1253" data-name="Path 1253" d="M211.617,176.535h13.665a1.477,1.477,0,0,0,0-2.955H211.617a1.477,1.477,0,1,0,0,2.955Z" transform="translate(-49.035 -76.301)" fill="#906d4e"/>
    <path id="Path_1254" data-name="Path 1254" d="M211.617,212.455h13.665a1.477,1.477,0,0,0,0-2.955H211.617a1.477,1.477,0,1,0,0,2.955Z" transform="translate(-49.035 -105.588)" fill="#906d4e"/>
  </g>
</svg>
