<svg xmlns="http://www.w3.org/2000/svg" xmlns:xlink="http://www.w3.org/1999/xlink" width="87.402" height="87.402" viewBox="0 0 87.402 87.402">
  <defs>
    <clipPath id="clip-path">
      <circle id="SVGID" cx="36.198" cy="36.198" r="36.198" transform="translate(0 70.361) rotate(-76.386)" fill="#906d4e"/>
    </clipPath>
  </defs>
  <g id="Group_58" data-name="Group 58" transform="translate(-549.69 -245.268)">
    <g id="Group_57" data-name="Group 57" transform="translate(549.69 245.268)">
      <g id="Group_56" data-name="Group 56" transform="translate(0 0)" clip-path="url(#clip-path)">
        <g id="Group_55" data-name="Group 55" transform="translate(-22.868 -69.898)">
          <rect id="Rectangle_14" data-name="Rectangle 14" width="1.425" height="175.573" transform="translate(124.147 0) rotate(44.998)" fill="#906d4e"/>
          <rect id="Rectangle_15" data-name="Rectangle 15" width="1.425" height="175.573" transform="translate(124.147 6.841) rotate(44.998)" fill="#906d4e"/>
          <rect id="Rectangle_16" data-name="Rectangle 16" width="1.425" height="175.573" transform="translate(124.149 13.683) rotate(45)" fill="#906d4e"/>
          <rect id="Rectangle_17" data-name="Rectangle 17" width="1.425" height="175.573" transform="translate(124.149 20.524) rotate(45)" fill="#906d4e"/>
          <rect id="Rectangle_18" data-name="Rectangle 18" width="1.425" height="175.573" transform="translate(124.149 27.364) rotate(45)" fill="#906d4e"/>
          <rect id="Rectangle_19" data-name="Rectangle 19" width="1.425" height="175.573" transform="translate(124.147 34.203) rotate(44.998)" fill="#906d4e"/>
          <rect id="Rectangle_20" data-name="Rectangle 20" width="1.425" height="175.573" transform="translate(124.147 41.043) rotate(44.998)" fill="#906d4e"/>
          <rect id="Rectangle_21" data-name="Rectangle 21" width="1.425" height="175.573" transform="translate(124.147 47.884) rotate(44.998)" fill="#906d4e"/>
          <rect id="Rectangle_22" data-name="Rectangle 22" width="1.425" height="175.573" transform="translate(124.147 54.724) rotate(44.998)" fill="#906d4e"/>
          <rect id="Rectangle_23" data-name="Rectangle 23" width="1.425" height="175.573" transform="translate(124.147 61.565) rotate(44.998)" fill="#906d4e"/>
          <rect id="Rectangle_24" data-name="Rectangle 24" width="1.425" height="175.573" transform="translate(124.147 68.405) rotate(44.998)" fill="#906d4e"/>
          <rect id="Rectangle_25" data-name="Rectangle 25" width="1.425" height="175.573" transform="translate(124.149 75.248) rotate(45)" fill="#906d4e"/>
          <rect id="Rectangle_26" data-name="Rectangle 26" width="1.425" height="175.573" transform="translate(124.149 82.088) rotate(45)" fill="#906d4e"/>
          <rect id="Rectangle_27" data-name="Rectangle 27" width="1.425" height="175.573" transform="translate(124.147 88.927) rotate(44.998)" fill="#906d4e"/>
          <rect id="Rectangle_28" data-name="Rectangle 28" width="1.425" height="175.573" transform="translate(124.147 95.767) rotate(44.998)" fill="#906d4e"/>
          <rect id="Rectangle_29" data-name="Rectangle 29" width="1.425" height="175.573" transform="translate(124.147 102.608) rotate(44.998)" fill="#906d4e"/>
          <rect id="Rectangle_30" data-name="Rectangle 30" width="1.425" height="175.573" transform="translate(124.147 109.448) rotate(44.998)" fill="#906d4e"/>
        </g>
      </g>
    </g>
  </g>
</svg>
