<svg xmlns="http://www.w3.org/2000/svg" width="17.829" height="17" viewBox="0 0 17.829 17">
  <g id="Group_688" data-name="Group 688" transform="translate(-109.202 -50.397)">
    <path id="Path_1257" data-name="Path 1257" d="M110.388,50.4a1.21,1.21,0,0,0-.842.369,1.453,1.453,0,0,0-.343.855c.169,4.957,1.736,8.922,4.568,11.635s6.911,4.149,12,4.14a1.57,1.57,0,0,0,.849-.382,1.188,1.188,0,0,0,.382-.836q.013-1.771.026-3.544a1.163,1.163,0,0,0-.389-.81,1.212,1.212,0,0,0-.842-.356,17.593,17.593,0,0,1-3.79-.68.422.422,0,0,0-.389.1l-2.1,2.034a13.086,13.086,0,0,1-5.228-5.079l2.086-2.021a.424.424,0,0,0,.11-.408,13.7,13.7,0,0,1-.777-3.965,1.167,1.167,0,0,0-.5-.764,1.359,1.359,0,0,0-.849-.292h-3.978Zm0,.829h4a.573.573,0,0,1,.33.13.791.791,0,0,1,.181.194,12.693,12.693,0,0,0,.726,3.848l-2.151,2.093a.428.428,0,0,0-.065.518,14.386,14.386,0,0,0,5.967,5.8.427.427,0,0,0,.5-.058l2.164-2.105a16.209,16.209,0,0,0,3.771.654.44.44,0,0,1,.266.123.42.42,0,0,1,.13.233l-.026,3.518a.421.421,0,0,1-.13.253.519.519,0,0,1-.3.142c-4.925,0-8.753-1.374-11.4-3.913s-4.155-6.276-4.315-11.085a.432.432,0,0,1,.1-.214.6.6,0,0,1,.253-.13Z" fill="#fff"/>
  </g>
</svg>
