<svg xmlns="http://www.w3.org/2000/svg" width="83.295" height="83.295" viewBox="0 0 83.295 83.295">
  <g id="Group_699" data-name="Group 699" transform="translate(-116.169 -46.165)">
    <path id="Path_1261" data-name="Path 1261" d="M198.133,59.622a1.636,1.636,0,0,0-1.653.012l-28.73,16.99V61.051a1.646,1.646,0,0,0-2.483-1.416L140.785,74.11v-25.8a1.644,1.644,0,0,0-1.646-1.646H118.315a1.644,1.644,0,0,0-1.646,1.646v79a1.644,1.644,0,0,0,1.646,1.646h79a1.644,1.644,0,0,0,1.646-1.646V61.05a1.641,1.641,0,0,0-.83-1.429Zm-2.461,66.047H119.959V49.957h17.533V77a1.646,1.646,0,0,0,2.483,1.416l24.48-14.476V79.509a1.646,1.646,0,0,0,2.483,1.416l28.732-16.99Z" transform="translate(0 0)" fill="#fff" stroke="#fff" stroke-width="1"/>
  </g>
</svg>
